<?xml version="1.0" standalone="no"?>
<!DOCTYPE svg PUBLIC "-//W3C//DTD SVG 1.1//EN" "http://www.w3.org/Graphics/SVG/1.1/DTD/svg11.dtd" >
<svg xmlns="http://www.w3.org/2000/svg">
<metadata></metadata>
<defs>
<font id="brooklyn_samuelsno5_fat" horiz-adv-x="1159" >
<font-face units-per-em="2048" ascent="1556" descent="-492" />
<missing-glyph horiz-adv-x="409" />
<glyph unicode="&#xfb01;" horiz-adv-x="1222" d="M12 825v150q0 17 12 28t31 11h86q12 0 19.5 7.5t7.5 18.5v21q0 80 26 149t80.5 127t150 91.5t222.5 33.5q202 0 383 -104q12 -5 19 -20t0 -33l-103 -185q-6 -11 -21 -17.5t-28 -0.5q-119 55 -221 55q-129 0 -129 -113v-4q0 -11 6.5 -18.5t15.5 -7.5h523q19 0 31 -11 t12 -28v-936q0 -15 -12.5 -27t-30.5 -12h-297q-15 0 -27 12t-12 27v721q0 9 -8 15.5t-19 6.5h-160q-9 0 -15.5 -6.5t-6.5 -15.5v-721q0 -15 -12.5 -27t-30.5 -12h-297q-15 0 -27 12t-12 27v721q0 9 -7.5 15.5t-19.5 6.5h-86q-19 0 -31 12t-12 31z" />
<glyph unicode="&#xfb02;" horiz-adv-x="1253" d="M12 825v150q0 17 12 28t31 11h86q12 0 19.5 7.5t7.5 18.5v80q0 303 352 303q120 0 232 -55q9 -5 20.5 2t11.5 19v18q0 17 12 28t29 11h299q16 0 27.5 -11t11.5 -28v-1368q0 -15 -12 -27t-27 -12h-299q-17 0 -29 12t-12 27v1046q0 21 -18 31q-39 19 -109 19 q-45 0 -77.5 -16.5t-32.5 -43.5v-35q0 -11 6.5 -18.5t15.5 -7.5h115q16 0 27.5 -11t11.5 -28v-150q0 -18 -12 -30.5t-27 -12.5h-115q-9 0 -15.5 -6.5t-6.5 -15.5v-721q0 -15 -12.5 -27t-30.5 -12h-297q-15 0 -27 12t-12 27v721q0 9 -7.5 15.5t-19.5 6.5h-86q-19 0 -31 12 t-12 31z" />
<glyph unicode="&#xfb03;" horiz-adv-x="1884" d="M12 825v150q0 17 12 28t31 11h86q12 0 19.5 7.5t7.5 18.5v119q0 156 90.5 232.5t276.5 76.5q154 0 266 -53q12 -7 19.5 -22t0.5 -31l-94 -188q-5 -11 -19.5 -18t-27.5 -3q-31 10 -66 10q-29 0 -48 -11.5t-19 -33.5v-78q0 -11 6.5 -18.5t15.5 -7.5h234q12 0 19 7.5t7 18.5 v21q0 63 16 120t52 109t90.5 89.5t137 60t184.5 22.5q202 0 383 -104q12 -5 18.5 -20t-0.5 -33l-102 -185q-6 -11 -21 -17.5t-28 -0.5q-119 55 -222 55q-129 0 -129 -113v-4q0 -10 7 -18t16 -8h522q19 0 31 -11t12 -28v-936q0 -15 -12.5 -27t-30.5 -12h-297q-15 0 -27 12 t-12 27v721q0 9 -7.5 15.5t-18.5 6.5h-160q-9 0 -16 -6.5t-7 -15.5v-721q0 -15 -12.5 -27t-30.5 -12h-297q-15 0 -27 12t-12 27v721q0 9 -7 15.5t-19 6.5h-234q-9 0 -15.5 -6.5t-6.5 -15.5v-721q0 -15 -12.5 -27t-30.5 -12h-297q-15 0 -27 12t-12 27v721q0 9 -7.5 15.5 t-19.5 6.5h-86q-19 0 -31 12t-12 31z" />
<glyph unicode="&#xfb04;" horiz-adv-x="1914" d="M12 825v150q0 17 12 28t31 11h86q12 0 19.5 7.5t7.5 18.5v119q0 156 90.5 232.5t276.5 76.5q152 0 256 -49q13 -5 21 -20t1 -31l-92 -188q-6 -12 -20.5 -19.5t-26.5 -3.5q-20 6 -60 6q-29 0 -48 -11.5t-19 -33.5v-78q0 -11 6.5 -18.5t15.5 -7.5h234q12 0 19 7.5t7 18.5 v80q0 303 353 303q119 0 231 -55q9 -5 21 2t12 19v18q0 17 12 28t29 11h299q16 0 27.5 -11t11.5 -28v-1368q0 -15 -12 -27t-27 -12h-299q-17 0 -29 12t-12 27v1046q0 20 -19 31q-39 19 -108 19q-45 0 -78 -16.5t-33 -43.5v-35q0 -10 7 -18t16 -8h115q15 0 26.5 -11t11.5 -28 v-150q0 -18 -11.5 -30.5t-26.5 -12.5h-115q-9 0 -16 -6.5t-7 -15.5v-721q0 -15 -12.5 -27t-30.5 -12h-297q-15 0 -27 12t-12 27v721q0 9 -7 15.5t-19 6.5h-234q-9 0 -15.5 -6.5t-6.5 -15.5v-721q0 -15 -12.5 -27t-30.5 -12h-297q-15 0 -27 12t-12 27v721q0 9 -7.5 15.5 t-19.5 6.5h-86q-19 0 -31 12t-12 31z" />
<glyph horiz-adv-x="0" />
<glyph horiz-adv-x="682" />
<glyph unicode=" "  horiz-adv-x="409" />
<glyph unicode="&#x09;" horiz-adv-x="409" />
<glyph unicode="&#xa0;" horiz-adv-x="409" />
<glyph unicode="!" horiz-adv-x="659" d="M131 184q0 83 58.5 139t140.5 56q80 0 138 -56.5t58 -138.5t-57.5 -138t-138.5 -56q-83 0 -141 56t-58 138zM139 1407q0 16 11 27.5t28 11.5h299q16 0 27.5 -11t11.5 -28l-2 -885q0 -15 -12.5 -27t-30.5 -12h-287q-17 0 -29 12t-12 27z" />
<glyph unicode="&#x22;" horiz-adv-x="872" d="M61 1292q0 72 49.5 118t120.5 46q69 0 117.5 -46t48.5 -118q0 -18 -3 -33.5t-11 -40t-10 -30.5l-99 -279q-8 -28 -36 -28h-17q-26 0 -37 28l-96 279q-3 9 -9 25.5t-9 26t-6 24t-3 28.5zM477 1292q0 72 49 118t119 46q69 0 117.5 -46t48.5 -118q0 -18 -3.5 -34t-11.5 -39 t-10 -31l-94 -279q-14 -28 -39 -28h-16q-29 0 -37 28l-98 279l-8.5 25.5l-9 27t-5 22.5t-2.5 29z" />
<glyph unicode="#" horiz-adv-x="1288" d="M102 356v183q0 15 12 27t29 12h107q9 0 17.5 6.5t8.5 15.5v246q0 7 -9 12.5t-17 5.5h-107q-17 0 -29 12.5t-12 28.5v185q0 15 12 25.5t29 10.5h107q9 0 17.5 8t8.5 17v192q0 17 12 29t27 12h185q15 0 27 -12t12 -29v-192q0 -9 6.5 -17t13.5 -8h172q8 0 14.5 8t6.5 17v192 q0 17 12 29t27 12h186q15 0 26 -12t11 -29v-192q0 -9 8.5 -17t17.5 -8h109q15 0 26 -10.5t11 -25.5v-187q0 -15 -11 -27t-26 -12h-109q-9 0 -17.5 -5.5t-8.5 -12.5v-246q0 -9 8.5 -15.5t17.5 -6.5h109q15 0 26 -12t11 -27v-185q0 -15 -11 -27t-26 -12h-109q-10 0 -18 -7 t-8 -17v-189q0 -15 -11 -27t-26 -12h-186q-15 0 -27 12t-12 27v189q0 8 -7 16t-14 8h-172q-7 0 -13.5 -8t-6.5 -16v-189q0 -15 -12 -27t-27 -12h-185q-15 0 -27 12t-12 27v189q0 10 -8 17t-18 7h-107q-17 0 -29 12.5t-12 28.5zM539 600q0 -9 6 -15.5t14 -6.5h172 q8 0 14.5 6.5t6.5 15.5v242q0 8 -7 15t-14 7h-172q-7 0 -13.5 -7t-6.5 -15v-242z" />
<glyph unicode="$" horiz-adv-x="1245" d="M75 181.5q-2 17.5 7 29.5l180 238q8 11 25.5 12.5t29.5 -8.5q131 -111 275 -111q102 0 145 29.5t43 70.5v7q0 29 -12.5 48t-52 34t-71 22.5t-110.5 22.5q-13 3 -20 4q-8 2 -26 5q-31 6 -48 9.5t-51.5 13.5t-56 19.5t-53.5 27.5t-52.5 38.5t-43.5 51t-36.5 66t-22.5 83.5 t-9 103v9q0 188 117.5 308.5t318.5 145.5v266q0 16 10.5 27.5t28.5 11.5h84q17 0 29 -12t12 -27v-264q180 -18 348 -149q13 -10 15 -25.5t-7 -27.5l-178 -234q-11 -14 -29.5 -15t-32.5 11q-48 42 -92 59t-98 17q-66 0 -103.5 -25t-37.5 -69v-3q0 -52 58.5 -78.5t211.5 -52.5 q203 -33 303.5 -136.5t100.5 -268.5v-8q0 -194 -126 -316t-333 -151v-269q0 -17 -12 -28.5t-29 -11.5h-84q-16 0 -27.5 11t-11.5 29v261q-117 6 -239 51.5t-222 120.5q-13 10 -15 27.5z" />
<glyph unicode="%" horiz-adv-x="1884" d="M70 1083v7q0 157 112.5 262.5t278.5 105.5t278.5 -105.5t112.5 -262.5v-7q0 -157 -112 -262.5t-279 -105.5t-279 105.5t-112 262.5zM322 1083q0 -139 139 -139q67 0 103 36t36 103v7q0 67 -36.5 103t-102.5 36q-139 0 -139 -139v-7zM334.5 20q-10.5 20 1.5 39l901 1346 q27 41 80 41h201q24 0 34.5 -20.5t-2.5 -39.5l-901 -1345q-27 -41 -80 -41h-200q-24 0 -34.5 20zM1032 356v6q0 155 112.5 261t278.5 106t279 -106t113 -261v-6q0 -158 -112.5 -264t-279.5 -106t-279 106t-112 264zM1284 356q0 -69 35.5 -105t103.5 -36t104 36t36 105v6 q0 67 -36.5 102.5t-103.5 35.5q-68 0 -103.5 -35.5t-35.5 -102.5v-6z" />
<glyph unicode="&#x26;" horiz-adv-x="1454" d="M184 408v43q0 187 156 305q30 21 4 51q-70 94 -70 221v16q0 181 133 301.5t347 120.5h18q216 0 348.5 -120.5t132.5 -301.5v-16q0 -84 -35.5 -156.5t-92.5 -121t-126.5 -78.5t-140.5 -37l-139 -19q-63 -9 -104.5 -49t-41.5 -86v-26q0 -52 53.5 -87.5t127.5 -35.5h39 q78 0 139 28q11 6 11.5 19.5t-11.5 19.5l-39 21q-16 10 -17.5 30.5t9.5 30.5l135 154q8 9 22.5 11.5t26.5 -3.5l467 -270q15 -8 18 -27t-10 -33l-137 -153q-7 -9 -24 -9.5t-27 5.5l-74 39q-31 19 -57 -11q-83 -88 -204.5 -146t-262.5 -58h-37q-114 0 -214.5 34.5t-171 92.5 t-111 136.5t-40.5 164.5zM637 995q0 -47 34 -81.5t87 -34.5h10q53 0 87 34.5t34 81.5v17q0 52 -33 86.5t-86 34.5h-12q-53 0 -87 -34.5t-34 -86.5v-17z" />
<glyph unicode="'" horiz-adv-x="456" d="M61 1292q0 72 48.5 118t117.5 46q70 0 119 -46t49 -118q0 -18 -3 -33.5t-11 -40t-10 -30.5l-97 -279q-11 -28 -36 -28h-17q-29 0 -37 28l-98 279q-25 66 -25 104z" />
<glyph unicode="(" horiz-adv-x="802" d="M143 723q0 298 71 543t243 508q6 12 20 16t27 -2l215 -80q41 -12 20 -55q-88 -168 -133.5 -289t-70.5 -276.5t-25 -364.5t25.5 -365t71.5 -276.5t134 -288.5q9 -15 4 -33t-24 -24l-213 -80q-11 -6 -26 -1.5t-23 15.5q-173 265 -244.5 511t-71.5 542z" />
<glyph unicode=")" horiz-adv-x="802" d="M59 -240q-5 18 2 33q131 246 181.5 436.5t50.5 493.5q0 209 -25 364t-71 277t-134 289q-17 43 21 55l217 80q12 6 26 2t21 -16q172 -262 241.5 -507t69.5 -544q0 -297 -70.5 -543t-242.5 -510q-9 -11 -24 -15.5t-27 1.5l-213 80q-18 6 -23 24z" />
<glyph unicode="*" horiz-adv-x="960" d="M64 1066.5q3 18.5 18 25.5l164 82q9 4 9 14t-9 16l-164 80q-11 6 -15.5 22.5t3.5 30.5l77 133q6 13 24 19t30 -2l151 -107q10 -6 18.5 -0.5t8.5 17.5l-12 184q0 15 12 27t29 12h151q15 0 27 -12t12 -27l-10 -184q0 -11 9 -17t19 0l148 103q10 9 29 4.5t28 -17.5l74 -131 q9 -15 5 -31.5t-19 -23.5l-162 -84q-9 -5 -10 -14.5t8 -14.5l166 -79q13 -9 15.5 -26t-5.5 -30l-76 -133q-7 -15 -22.5 -19t-30.5 5l-152 98q-9 8 -17.5 3.5t-8.5 -17.5l12 -178q1 -17 -11 -29t-28 -12h-151q-17 0 -29 12t-12 29l12 178q0 12 -11.5 17t-21.5 -3l-145 -96 q-12 -7 -30.5 -3t-25.5 17l-75 131q-9 12 -6 30.5z" />
<glyph unicode="+" horiz-adv-x="1173" d="M102 633v182q0 15 12 27t29 12h287q10 0 18.5 7.5t8.5 17.5v288q0 17 12 29t27 12h184q15 0 27 -12t12 -29v-288q0 -10 8.5 -17.5t17.5 -7.5h287q15 0 27 -12t12 -27v-184q0 -15 -12 -27t-27 -12h-287q-9 0 -17.5 -7.5t-8.5 -17.5v-288q0 -15 -12 -27t-27 -12h-184 q-15 0 -27 12t-12 27v288q0 10 -8.5 17.5t-18.5 7.5h-287q-17 0 -29 12.5t-12 28.5z" />
<glyph unicode="," horiz-adv-x="569" d="M83 -245.5q-4 19.5 9 36.5q80 100 80 168q0 39 -10 64t-33 53q-43 59 -43 125q0 79 57 136.5t142 57.5t141.5 -57t56.5 -137q0 -128 -80.5 -255.5t-193.5 -211.5q-19 -14 -43 -18.5t-33 1.5l-31 13q-15 5 -19 24.5z" />
<glyph unicode="-" horiz-adv-x="790" d="M86 408v198q0 15 12 27t27 12h539q17 0 29 -12t12 -27v-198q0 -15 -12 -27t-29 -12h-539q-15 0 -27 12t-12 27z" />
<glyph unicode="." horiz-adv-x="569" d="M86 184q0 83 58.5 140t140.5 57t140 -57t58 -140t-57.5 -138.5t-140.5 -55.5t-141 56t-58 138z" />
<glyph unicode="/" horiz-adv-x="1007" d="M-29 -266l719 1992q12 39 55 39h250q24 0 35.5 -15t3.5 -36l-717 -1995q-12 -38 -57 -38h-250q-24 0 -34.5 15.5t-4.5 37.5z" />
<glyph unicode="0" horiz-adv-x="1140" d="M90 467v512q0 227 132.5 357t348.5 130t348 -130t132 -357v-512q0 -226 -132.5 -356.5t-347.5 -130.5q-216 0 -348.5 131t-132.5 356zM467.5 1040.5q-0.5 -11.5 0.5 -34.5t1 -31v-498v-10q0 -37 0.5 -55t6 -44.5t15.5 -39t30 -22t50 -9.5q25 0 43.5 5.5t29.5 20 t17.5 26.5t9 38t3 40.5t0.5 47.5v500q0 6 0.5 27t0.5 30.5t-2 28t-6 28t-11.5 23t-18.5 20.5t-27.5 12t-38.5 5q-25 0 -44 -5.5t-30 -17.5t-18 -23t-9 -31t-2.5 -31.5z" />
<glyph unicode="1" horiz-adv-x="684" d="M49 1190l144 240q10 16 30 16h283q17 0 28 -11t11 -28v-1368q0 -15 -12 -27t-27 -12h-301q-15 0 -27 12t-12 27v1065q0 12 -7 19t-16 7h-59q-20 0 -32.5 19.5t-2.5 40.5z" />
<glyph unicode="2" horiz-adv-x="1026" d="M68 39v178q0 31 18 57l375 457q38 49 58.5 78.5t41.5 71.5t21 71v21q0 74 -52 119t-137 45q-95 0 -166 -27q-13 -6 -30.5 0t-24.5 23l-80 204q-6 15 -0.5 30.5t19.5 21.5q148 77 321 77q246 0 388.5 -123.5t142.5 -338.5v-35q0 -92 -58.5 -191.5t-159.5 -220.5l-174 -199 q-7 -6 -1.5 -18t16.5 -12h307q16 0 27.5 -10t11.5 -27v-252q0 -15 -12 -27t-27 -12h-787q-15 0 -26.5 12t-11.5 27z" />
<glyph unicode="3" horiz-adv-x="980" d="M60.5 73.5q-5.5 14.5 0.5 28.5l82 211q6 14 24.5 21t37.5 0q63 -25 145 -25q85 0 142 48t57 120v15q0 77 -61 129.5t-150 52.5q-64 0 -105 -10q-32 -7 -45 16l-26 45q-17 26 2 45l221 303q10 12 3.5 28.5t-23.5 16.5h-213q-18 0 -29.5 11.5t-11.5 25.5v252q0 17 11 28 t30 11h704q14 0 25.5 -11t11.5 -28v-174q0 -29 -27 -64l-190 -233q-8 -10 -4 -24.5t18 -20.5q114 -45 176 -148.5t62 -242.5v-33q0 -137 -72 -249t-197.5 -175t-279.5 -63q-151 0 -299 71q-14 8 -19.5 22.5z" />
<glyph unicode="4" horiz-adv-x="1097" d="M37 322v192q0 26 10 43l500 862q15 27 51 27h289q17 0 28 -11t11 -28v-823q0 -9 8.5 -17t17.5 -8h58q17 0 29 -12t12 -29v-196q0 -17 -12 -29t-29 -12h-58q-9 0 -17.5 -7.5t-8.5 -17.5v-217q0 -16 -11 -27.5t-28 -11.5h-299q-18 0 -28.5 11.5t-10.5 27.5v217 q0 10 -8.5 17.5t-18.5 7.5h-446q-17 0 -28 12t-11 29zM415.5 567.5q5.5 -8.5 14.5 -8.5h92q9 0 18 8t9 17v204q0 12 -12.5 15.5t-20.5 -8.5l-100 -211q-6 -8 -0.5 -16.5z" />
<glyph unicode="5" horiz-adv-x="1019" d="M82 73.5q-5 14.5 0 28.5l82 213q5 14 22.5 21.5t32.5 -0.5q67 -27 152 -27t141.5 49t56.5 123v17q0 77 -58 126.5t-149 49.5q-101 0 -176 -45q-18 -9 -37.5 2.5t-19.5 32.5v743q0 17 12 28t29 11h680q17 0 29 -11t12 -28v-252q0 -14 -12 -25.5t-29 -11.5h-336 q-12 0 -19.5 -7.5t-7.5 -18.5v-109q0 -12 8 -20.5t21 -8.5q191 0 312.5 -120t121.5 -328v-35q0 -205 -160.5 -348t-390.5 -143q-150 0 -299 73q-13 6 -18 20.5z" />
<glyph unicode="6" horiz-adv-x="1130" d="M90 442v539q0 211 153.5 348t389.5 137q155 0 299 -69q13 -6 20 -20.5t2 -28.5l-84 -211q-5 -15 -20 -22.5t-31 -0.5q-77 23 -155 23q-87 0 -141 -47.5t-54 -118.5v-72q0 -12 9.5 -16.5t19.5 0.5q63 28 168 28q190 0 297.5 -120.5t107.5 -317.5v-31q0 -195 -143 -328.5 t-361 -133.5q-217 0 -347 128.5t-130 333.5zM457 453q0 -156 110 -156q59 0 90 43.5t31 112.5v12q0 156 -110 156q-60 0 -90.5 -41t-30.5 -115v-12z" />
<glyph unicode="7" horiz-adv-x="909" d="M41 1155v252q0 17 12 28t29 11h780q16 0 27.5 -11t11.5 -28v-164q0 -43 -16 -86l-402 -1122q-6 -16 -19.5 -25.5t-27.5 -9.5h-346q-15 0 -24.5 14t-2.5 29l412 1038q5 13 -1.5 25t-22.5 12h-369q-17 0 -29 11.5t-12 25.5z" />
<glyph unicode="8" horiz-adv-x="1161" d="M82 410v36q0 163 129 289q16 13 0 29q-100 111 -100 258v18q0 177 129 301.5t340 124.5q107 0 197 -34.5t149 -93.5t92 -136t33 -162v-18q0 -144 -99 -258q-16 -16 0 -29q127 -127 127 -289v-36q0 -83 -34.5 -161t-97 -139t-158 -98t-209.5 -37q-113 0 -208.5 37t-158 98 t-97 139t-34.5 161zM473 432q0 -60 27.5 -100.5t79.5 -40.5q54 0 80 40t26 101v49q0 52 -28 92.5t-78 40.5q-51 0 -79 -40.5t-28 -92.5v-49zM475 995q0 -50 27 -87.5t78 -37.5q49 0 76.5 37.5t27.5 87.5v15q0 139 -104 139q-52 0 -78.5 -37t-26.5 -102v-15z" />
<glyph unicode="9" horiz-adv-x="1130" d="M59 973v31q0 195 143 328.5t361 133.5q217 0 347 -128.5t130 -333.5v-539q0 -211 -153 -348t-389 -137q-155 0 -299 69q-14 6 -20.5 21t-2.5 28l82 211q7 15 22 22.5t31 0.5q77 -23 156 -23q85 0 140 47.5t55 118.5v72q0 12 -9 16.5t-20 -0.5q-63 -28 -168 -28 q-191 0 -298.5 120t-107.5 318zM442 981q0 -156 111 -156q60 0 90.5 41t30.5 115v12q0 71 -27 113.5t-84 42.5q-59 0 -90 -43.5t-31 -112.5v-12z" />
<glyph unicode=":" horiz-adv-x="569" d="M86 225q0 83 58.5 140t140.5 57t140 -57t58 -140t-57.5 -138.5t-140.5 -55.5t-141 56t-58 138zM86 786q0 83 58.5 140t140.5 57t140 -57t58 -140t-58 -139.5t-140 -56.5t-140.5 56.5t-58.5 139.5z" />
<glyph unicode=";" horiz-adv-x="569" d="M81 -219q-4 20 9 37q40 53 61 91.5t21 74.5q0 40 -9.5 65t-33.5 53q-43 59 -43 123q0 81 57 139t142 58t141.5 -58t56.5 -139q0 -126 -81 -253.5t-195 -213.5q-18 -14 -43 -17t-35 3l-29 12q-15 5 -19 25zM86 786q0 83 58.5 140t140.5 57t140 -57t58 -140t-58 -139.5 t-140 -56.5t-140.5 56.5t-58.5 139.5z" />
<glyph unicode="&#x3c;" horiz-adv-x="1226" d="M102 670v106q0 15 10 29t25 20l940 349q17 7 32 -4t15 -31v-172q0 -19 -9.5 -34.5t-27.5 -19.5l-509 -174q-13 -3 -13 -16t13 -16l509 -175q18 -3 27.5 -17.5t9.5 -33.5v-172q0 -20 -15 -31.5t-32 -5.5l-940 349q-15 6 -25 20t-10 29z" />
<glyph unicode="=" horiz-adv-x="1173" d="M102 457v182q0 15 12 27t29 12h889q15 0 27 -12t12 -27v-186q0 -15 -12 -26t-27 -11h-889q-17 0 -29 12.5t-12 28.5zM102 809v184q0 15 12 26t29 11h889q15 0 27 -11t12 -26v-186q0 -15 -12 -27t-27 -12h-889q-17 0 -29 12.5t-12 28.5z" />
<glyph unicode="&#x3e;" horiz-adv-x="1226" d="M102 309v172q0 18 10 33t27 18l510 175q15 4 15 16t-15 16l-510 174q-17 4 -27 20t-10 34v172q0 20 15.5 31t34.5 4l938 -349q34 -12 34 -49v-106q0 -37 -34 -49l-938 -349q-19 -6 -34.5 5.5t-15.5 31.5z" />
<glyph unicode="?" horiz-adv-x="1048" d="M63.5 1286.5q2.5 17.5 14.5 26.5q108 87 206 123.5t214 36.5q227 0 368.5 -122.5t141.5 -320.5v-8q0 -97 -25.5 -163.5t-70.5 -108.5t-126 -86q-135 -69 -135 -142v-2q0 -15 -13 -26t-28 -11h-272q-18 0 -28.5 11.5t-10.5 29.5v4q0 39 6.5 73.5t13.5 58.5t26 50 t29.5 39.5t38.5 35.5t39.5 30t45.5 31q77 45 102 71t25 76v8q0 51 -35.5 77t-91.5 26q-60 0 -104 -15.5t-93 -58.5q-13 -11 -30 -10t-29 16l-172 221q-9 12 -6.5 29.5zM281 184q0 83 58 139t140 56q81 0 139 -56.5t58 -138.5t-58 -138t-139 -56q-83 0 -140.5 55.5 t-57.5 138.5z" />
<glyph unicode="@" horiz-adv-x="2414" d="M113 262q0 153 50.5 302.5t139 276t212.5 235t267.5 184t309 118.5t331.5 43q145 0 275 -26.5t242.5 -83t193.5 -138t127.5 -198t46.5 -256.5q0 -117 -46 -230.5t-123 -203t-174 -158.5t-204 -106t-207 -37q-80 0 -133.5 20.5t-89.5 73.5q-14 24 -37 4q-109 -98 -245 -98 q-173 0 -281.5 131t-108.5 338v104q0 110 34 201t90.5 149.5t127 90.5t146.5 32q75 0 124 -20.5t115 -67.5q16 -13 25 4l29 41q15 27 45 27h241q16 0 27.5 -11t11.5 -28v-713q0 -48 31.5 -64t73.5 -1q107 37 185 116.5t115.5 181.5t37.5 216q0 132 -52 239.5t-144 177.5 t-218 108t-274 38q-147 0 -289.5 -34t-266.5 -95.5t-230 -152t-181 -198.5t-117.5 -239.5t-42.5 -271.5q0 -131 56 -238t151 -175t218 -105t259 -37q122 0 254 29.5t234 80.5q13 6 30.5 1t24.5 -21l29 -70q6 -15 0.5 -30t-19.5 -23q-94 -52 -250 -89.5t-301 -37.5 q-139 0 -266 25.5t-239 81t-194 135.5t-129.5 196t-47.5 256zM1026 463q0 -82 39 -125t113 -43q49 0 86 18q32 16 32 58v266q0 42 -32 61q-49 17 -86 17q-74 0 -113 -42.5t-39 -125.5v-84z" />
<glyph unicode="A" horiz-adv-x="1306" d="M-2 47l577 1366q17 33 50 33h57q36 0 49 -33l578 -1366q3 -7 3 -13q0 -12 -8 -20q-12 -14 -28 -14h-311q-38 0 -50 31l-26 71q-17 33 -45 33h-379q-32 0 -45 -33l-27 -71q-15 -31 -49 -31h-313q-15 0 -27 14q-8 10 -8 21q0 6 2 12zM551 436q-1 -3 -1 -7q0 -5 2 -9 q4 -8 13 -8h176q10 0 14 8q2 5 2 9q0 3 -1 7l-88 221q-4 11 -15 11q-10 0 -14 -11z" />
<glyph unicode="B" horiz-adv-x="1292" d="M123 39v1368q0 15 10.5 27t28.5 12h538q93 0 172 -35t130 -91.5t79.5 -126.5t28.5 -142v-17q0 -93 -53 -176q-11 -15 -8 -30.5t18 -24.5q78 -57 125 -145t47 -185v-14q0 -190 -122.5 -320.5t-299.5 -138.5h-655q-17 0 -28 11.5t-11 27.5zM502 365q0 -9 6.5 -17t15.5 -8 h181q64 0 97.5 30t33.5 85v16q0 20 -3 35.5t-14 35.5t-38 31t-68 11h-189q-9 0 -15.5 -8t-6.5 -19v-192zM502 887q0 -11 6.5 -19t15.5 -8h113q44 3 69 36.5t25 82.5v14q0 51 -29.5 82t-76.5 31h-101q-17 0 -22 -23v-196z" />
<glyph unicode="C" horiz-adv-x="1280" d="M74 662v118q0 201 89 358t245 242.5t352 85.5q254 0 440 -149q15 -12 15 -32q0 -15 -9 -25l-170 -222q-11 -14 -28 -15t-31 11q-43 38 -101 60t-116 22q-146 0 -224.5 -90t-78.5 -246v-118q0 -155 78.5 -243.5t224.5 -88.5q123 0 215 80q13 12 29 11.5t26 -13.5l176 -228 q9 -10 9 -24v-6q-2 -18 -15 -27q-182 -143 -440 -143q-200 0 -356 85.5t-243 241t-87 355.5z" />
<glyph unicode="D" horiz-adv-x="1413" d="M123 39v1368q0 15 12 27t27 12h485q309 0 500.5 -185t191.5 -483v-114q0 -135 -40 -247.5t-107.5 -188.5t-157.5 -128.5t-187.5 -76t-199.5 -23.5h-485q-15 0 -27 12t-12 27zM502 365q0 -9 6.5 -16t15.5 -7h123q143 0 227 87t84 235v114q0 153 -84.5 240.5t-226.5 87.5 h-123q-9 0 -15.5 -8t-6.5 -17v-716z" />
<glyph unicode="E" horiz-adv-x="1222" d="M123 39v1368q0 15 12 27t27 12h938q17 0 29 -12t12 -27v-264q0 -15 -12 -26t-29 -11h-576q-9 0 -15.5 -8t-6.5 -17v-186q0 -9 6.5 -16t15.5 -7h422q17 0 29 -12t12 -29v-229q0 -15 -12 -27t-29 -12h-422q-9 0 -15.5 -7.5t-6.5 -18.5v-172q0 -9 6.5 -16t15.5 -7h576 q17 0 29 -12t12 -27v-264q0 -15 -12 -27t-29 -12h-938q-15 0 -27 12t-12 27z" />
<glyph unicode="F" horiz-adv-x="1193" d="M123 39v1368q0 15 12 27t27 12h940q18 0 28.5 -11.5t10.5 -27.5v-264q0 -16 -10.5 -26.5t-28.5 -10.5h-578q-9 0 -15.5 -8t-6.5 -17v-270q0 -11 6.5 -19t15.5 -8h422q17 0 29 -10.5t12 -25.5v-230q0 -19 -12 -31t-29 -12h-422q-9 0 -15.5 -6.5t-6.5 -15.5v-414 q0 -15 -12.5 -27t-30.5 -12h-297q-15 0 -27 12t-12 27z" />
<glyph unicode="G" horiz-adv-x="1466" d="M74 662v118q0 201 89.5 358t246 242.5t352.5 85.5q244 0 430 -145q15 -10 18 -26.5t-8 -28.5l-172 -224q-13 -17 -28 -17q-14 0 -29 13q-97 78 -211 78q-137 0 -221 -91.5t-84 -244.5v-118q0 -155 78.5 -243.5t216.5 -88.5q99 0 192 61q27 16 27 51v25q0 9 -7.5 17 t-17.5 8h-155q-17 0 -29 10.5t-12 25.5v201q0 17 12 28t29 11h520q17 0 28 -11t11 -28v-690q0 -16 -11 -27.5t-28 -11.5h-41q-29 0 -49 20l-103 101q-18 18 -39 0q-153 -141 -387 -141q-133 0 -247.5 50t-196 138.5t-128 216t-46.5 277.5z" />
<glyph unicode="H" horiz-adv-x="1517" d="M123 39v1368q0 15 12 27t29 12h299q15 0 27 -12t12 -27v-512q0 -9 7 -16t17 -7h467q9 0 16 7t7 16v512q0 15 12.5 27t30.5 12h297q15 0 27 -12t12 -27v-1368q0 -15 -12 -27t-27 -12h-297q-18 0 -30.5 12t-12.5 27v498q0 10 -7 18t-16 8h-467q-10 0 -17 -7.5t-7 -18.5 v-498q0 -15 -12 -27t-27 -12h-299q-17 0 -29 12t-12 27z" />
<glyph unicode="I" horiz-adv-x="624" d="M123 39v1368q0 15 12 27t27 12h301q15 0 27 -12t12 -27v-1368q0 -15 -12 -27t-27 -12h-301q-15 0 -27 12t-12 27z" />
<glyph unicode="J" horiz-adv-x="806" d="M22 60q-2 5 -2 10q0 11 7 24l120 213q17 29 50 19q24 -7 47 -7q36 0 61 27.5t25 56.5v1004q0 15 12 27t27 12h301q15 0 27 -12t12 -27v-1016q0 -73 -25.5 -143t-73 -127.5t-124 -93t-169.5 -35.5q-146 0 -274 47q-16 6 -21 21z" />
<glyph unicode="K" horiz-adv-x="1368" d="M123 39v1368q0 15 12 27t27 12h297q15 0 27 -12t12 -27v-510q0 -10 6.5 -17.5t17.5 -7.5h6q106 0 190 75t128 188.5t47 240.5v31q0 17 12 28t29 11h311q17 0 28 -12t9 -29v-43q-7 -200 -88.5 -365t-220.5 -272q-18 -18 -8 -39l372 -627q4 -8 4 -17q1 -10 -5 -22 q-10 -20 -33 -20h-349q-21 0 -32 20l-287 531q-11 22 -39 18q-25 -2 -68 -2h-6q-10 0 -17 -7.5t-7 -18.5v-502q0 -15 -12 -27t-27 -12h-297q-15 0 -27 12t-12 27z" />
<glyph unicode="L" horiz-adv-x="1097" d="M123 39v1368q0 15 12 27t29 12h299q15 0 27 -12t12 -27v-1042q0 -9 7 -16t17 -7h482q16 0 26 -11.5t10 -27.5v-264q0 -16 -10 -27.5t-26 -11.5h-844q-17 0 -29 12t-12 27z" />
<glyph unicode="M" horiz-adv-x="1605" d="M66 43l161 1368q1 15 13 25t26 10h27q21 0 35 -19l463 -632q3 -7 12 -7t12 7l461 632q19 19 37 19h26q14 0 26 -10t13 -25l162 -1368q1 -17 -11.5 -30t-29.5 -13h-291q-17 0 -27 10t-12 25l-53 586q-1 13 -13.5 16t-19.5 -8l-249 -322q-14 -18 -31 -18t-31 18l-250 322 q-7 11 -19.5 8t-13.5 -16l-53 -586q-1 -15 -12.5 -25t-26.5 -10h-291q-17 0 -29 13t-11 30z" />
<glyph unicode="N" horiz-adv-x="1456" d="M123 39v1368q0 15 12 27t29 12h37q23 0 37 -14l690 -664q6 -7 17 -4t11 14v629q0 16 10.5 27.5t28.5 11.5h297q17 0 29 -12t12 -27v-1368q0 -15 -12 -27t-29 -12h-41q-28 0 -43 18l-678 668q-8 8 -18 4.5t-10 -16.5v-635q0 -16 -11 -27.5t-28 -11.5h-299q-17 0 -29 12 t-12 27z" />
<glyph unicode="O" horiz-adv-x="1536" d="M74 664v118q0 198 88.5 354t246.5 243t359 87t359 -87t246.5 -243t88.5 -354v-118q0 -200 -88.5 -356.5t-246.5 -242t-359 -85.5t-359 85.5t-246.5 242t-88.5 356.5zM457 664q0 -161 82.5 -247.5t228.5 -86.5t228.5 86.5t82.5 247.5v118q0 159 -82.5 246.5t-228.5 87.5 t-228.5 -87.5t-82.5 -246.5v-118z" />
<glyph unicode="P" horiz-adv-x="1294" d="M123 39v1368q0 16 11 27.5t28 11.5h663q83 0 161.5 -38.5t136.5 -102t93 -151t35 -179.5v-14q0 -204 -126.5 -345t-327.5 -141h-273q-9 0 -17.5 -6.5t-8.5 -15.5v-414q0 -18 -10.5 -28.5t-28.5 -10.5h-297q-17 0 -28 11t-11 28zM498 809q0 -11 8 -19t18 -8h158 q65 0 104 42t39 114v14q0 70 -38 112t-103 42h-160q-9 0 -17.5 -8.5t-8.5 -18.5v-270z" />
<glyph unicode="Q" horiz-adv-x="1536" d="M74 664v118q0 198 88.5 354t246.5 243t359 87t359 -87t246.5 -243t88.5 -354v-118q0 -229 -115.5 -400t-310.5 -244q-29 -10 -18 -38q65 -142 248 -160q15 -1 26 -13.5t11 -27.5v-260q0 -16 -11 -28.5t-28 -12.5h-3q-222 0 -385 127q-164 128 -225 344q-3 16 -16.5 29 t-34.5 16q-238 50 -382 230.5t-144 437.5zM457 664q0 -161 82.5 -247.5t228.5 -86.5t228.5 86.5t82.5 247.5v118q0 159 -82.5 246.5t-228.5 87.5t-228.5 -87.5t-82.5 -246.5v-118z" />
<glyph unicode="R" horiz-adv-x="1343" d="M123 39v1368q0 15 12 27t29 12h655q110 0 208.5 -64.5t158 -174t59.5 -232.5v-14q0 -139 -66 -250.5t-175 -173.5q-24 -10 -17 -35q27 -73 92 -124t150 -61q16 -2 26.5 -13t10.5 -28v-253q0 -16 -11 -28.5t-28 -12.5q-230 0 -395.5 134.5t-208.5 348.5q-2 10 -12 18.5 t-21 8.5h-64q-10 0 -17 -8t-7 -19v-426q0 -17 -11.5 -28t-27.5 -11h-299q-17 0 -29 11t-12 28zM502 805q0 -12 6.5 -19.5t17.5 -7.5h164q66 0 105 43.5t39 116.5v14q0 70 -37.5 112t-100.5 42h-170q-10 0 -17 -8t-7 -19v-274z" />
<glyph unicode="S" horiz-adv-x="1243" d="M75 182v6q0 14 7 23l180 238q8 11 25.5 12.5t29.5 -8.5q131 -111 275 -111q102 0 145 29.5t43 70.5v7q0 29 -12.5 48t-52 34t-71 22.5t-110.5 22.5q-13 3 -20 4q-8 2 -26 5q-31 6 -48 9.5t-51.5 13.5t-56 19.5t-53.5 27.5t-52.5 38.5t-43.5 51t-36.5 66t-22.5 83.5 t-9 103v9q0 210 145.5 335t384.5 125q223 0 418 -153q13 -10 15 -25.5t-7 -27.5l-178 -234q-11 -14 -29.5 -15t-32.5 11q-48 42 -92 59t-98 17q-66 0 -103.5 -25t-37.5 -69v-3q0 -52 58.5 -78.5t211.5 -52.5q203 -33 303.5 -136.5t100.5 -268.5v-8q0 -149 -77.5 -258 t-209 -164t-299.5 -55q-124 0 -258 46.5t-240 127.5q-13 10 -15 28z" />
<glyph unicode="T" horiz-adv-x="1163" d="M29 1143v264q0 16 11 27.5t28 11.5h1028q15 0 27 -12t12 -27v-264q0 -15 -12 -27t-27 -12h-301q-9 0 -17 -7.5t-8 -17.5v-1040q0 -17 -12 -28t-29 -11h-297q-17 0 -28 11t-11 28v1040q0 10 -8.5 17.5t-17.5 7.5h-299q-17 0 -28 11.5t-11 27.5z" />
<glyph unicode="U" horiz-adv-x="1456" d="M113 573v834q0 15 12 27t29 12h299q17 0 28 -11.5t11 -27.5v-834q0 -111 63.5 -177t171.5 -66q110 0 174 66t64 177v834q0 15 12 27t27 12h301q15 0 26.5 -12t11.5 -27v-834q0 -171 -80 -307t-220.5 -211t-315.5 -75q-174 0 -314.5 75t-220 211t-79.5 307z" />
<glyph unicode="V" horiz-adv-x="1327" d="M6 1399q-2 6 -2 12q0 10 6 20q10 15 27 15h317q39 0 49 -33l246 -770q3 -10 17 -10q11 0 14 10l246 770q5 14 18.5 23.5t28.5 9.5h317q17 0 27 -15q6 -9 6 -20q0 -6 -2 -12l-512 -1366q-6 -15 -20 -24t-29 -9h-193q-15 0 -30 10t-19 23z" />
<glyph unicode="W" horiz-adv-x="2062" d="M4 1401q-2 6 -2 12q0 10 6 19q10 14 27 14h317q17 0 30.5 -11t18.5 -28l213 -766q3 -12 15 -14t18 10l350 786q11 23 33 23h6q22 0 33 -23l348 -786q3 -9 16 -9t17 13l213 766q5 17 18.5 28t30.5 11h316q18 0 28 -14q6 -8 7 -18q0 -6 -3 -13l-450 -1364q-10 -37 -51 -37 h-160q-35 0 -49 31l-303 669q-3 9 -15 9q-11 0 -14 -9l-303 -669q-14 -31 -49 -31h-160q-41 0 -51 37z" />
<glyph unicode="X" horiz-adv-x="1521" d="M38 19q-4 8 -4 16q0 10 7 18l477 674q13 19 13 38t-13 38l-416 590q-12 17 -2.5 35t31.5 18h365q30 0 43 -23l200 -303q12 -12 23 -12q13 0 22 12l201 303q16 23 43 23h365q23 0 32 -18t-2 -35l-417 -590q-13 -19 -13 -38t13 -38l477 -674q7 -8 7 -18q0 -8 -4 -16 q-10 -19 -30 -19h-373q-27 0 -43 23l-258 389q-7 10 -20 10q-12 0 -19 -10l-260 -389q-13 -23 -43 -23h-372q-20 0 -30 19z" />
<glyph unicode="Y" horiz-adv-x="1445" d="M6 1395q-4 9 -4 17q0 9 4 18q10 16 33 16h334q31 0 45 -27l291 -561q5 -8 14 -8h2q7 0 12 8l291 561q14 27 45 27h336q22 0 31 -16q5 -8 5 -16q0 -9 -5 -19l-518 -932q-11 -19 -11 -41v-369q0 -23 -15 -38t-38 -15h-270q-23 0 -38 15t-15 38v369q0 22 -11 41z" />
<glyph unicode="Z" horiz-adv-x="1226" d="M45 39v22q0 28 16 60l500 946q6 12 -1.5 24.5t-20.5 12.5h-392q-15 0 -26.5 12t-11.5 27v264q0 15 11.5 27t26.5 12h969q17 0 29 -12t12 -27v-10q0 -26 -12 -47l-516 -973q-6 -11 1 -24t21 -13h471q17 0 29 -12t12 -29v-260q0 -17 -12 -28t-29 -11h-1038q-16 0 -27.5 11 t-11.5 28z" />
<glyph unicode="[" horiz-adv-x="778" d="M150 -279v2005q0 17 12 28t28 11h465q17 0 29 -12t12 -27v-247q0 -17 -12 -29t-29 -12h-118q-9 0 -18 -8t-9 -17v-1380q0 -9 9 -17t18 -8h118q17 0 29 -11.5t12 -25.5v-250q0 -17 -12 -28.5t-29 -11.5h-465q-16 0 -28 11t-12 29z" />
<glyph unicode="\" horiz-adv-x="1120" d="M29 1712q-8 22 3.5 37.5t35.5 15.5h247q44 0 60 -39l717 -1994q6 -21 -4.5 -36t-34.5 -15h-248q-45 0 -60 38z" />
<glyph unicode="]" horiz-adv-x="778" d="M82 -29q0 14 12 25.5t29 11.5h119q10 0 18 8t8 17v1380q0 9 -8 17t-18 8h-119q-17 0 -29 12t-12 29v247q0 15 12 27t29 12h465q16 0 28.5 -11t12.5 -28v-2005q0 -18 -12.5 -29t-28.5 -11h-465q-17 0 -29 11.5t-12 28.5v250z" />
<glyph unicode="^" horiz-adv-x="1157" d="M66 92l411 844q14 35 49 35h105q15 0 29 -10t20 -25l410 -844q7 -18 -3.5 -33.5t-29.5 -15.5h-174q-35 0 -54 37l-233 500q-5 12 -18 12q-12 0 -17 -12l-233 -500q-18 -37 -52 -37h-174q-20 0 -32.5 15.5t-3.5 33.5z" />
<glyph unicode="_" horiz-adv-x="1228" d="M-39 -197q0 15 12 27t27 12h1229q17 0 30 -12t13 -27v-198q0 -15 -13 -27t-30 -12h-1229q-15 0 -27 12t-12 27v198z" />
<glyph unicode="`" horiz-adv-x="409" d="M-61.5 1325q0.5 23 20.5 35l182 98q17 9 37.5 8t32.5 -12l250 -217q15 -12 13 -32.5t-19 -30.5l-123 -68q-13 -6 -33 -5.5t-33 9.5l-309 182q-19 10 -18.5 33z" />
<glyph unicode="a" d="M55 453v104q0 110 34 201t90 149.5t127 90.5t147 32q75 0 124 -20t113 -66q18 -11 27 2l28 41q15 27 46 27h241q16 0 27.5 -11t11.5 -28v-936q0 -15 -12 -27t-27 -12h-299q-17 0 -29 12t-12 27v10q0 10 -8 14t-20 -4q-57 -39 -107 -57t-113 -18q-173 0 -281 131t-108 338 zM422 463q0 -82 38.5 -125t110.5 -43q27 0 52 5.5t47 24t22 46.5v266q0 42 -35.5 60t-85.5 18q-72 0 -110.5 -42.5t-38.5 -125.5v-84z" />
<glyph unicode="b" d="M90 39v1368q0 17 12 28t29 11h297q16 0 27.5 -11t11.5 -28v-420q0 -10 10 -15t19 1q88 57 194 57q74 0 147 -33.5t133 -93t97 -150.5t37 -196v-104q0 -116 -35.5 -208.5t-94.5 -147.5t-130 -84t-148 -29q-123 0 -225 88q-8 6 -16 4t-13 -10l-28 -43q-13 -23 -37 -23h-246 q-17 0 -29 12t-12 27zM467 371q0 -40 36 -58t85 -18q72 0 110.5 43t38.5 125v84q0 83 -38.5 125.5t-110.5 42.5q-29 0 -53 -5t-46 -23.5t-22 -49.5v-266z" />
<glyph unicode="c" horiz-adv-x="905" d="M55 451v112q0 131 70.5 240.5t192.5 173t266 63.5q146 0 280 -73q16 -9 20 -26q1 -5 1 -10q0 -11 -6 -20l-119 -198q-8 -12 -22.5 -16.5t-28.5 1.5q-69 25 -125 25q-70 0 -114 -44.5t-44 -117.5v-106q0 -72 44.5 -118t113.5 -46q50 0 121 26q13 5 29.5 1t23.5 -17 l112 -201q9 -13 5 -30t-17 -23q-127 -74 -274 -74q-144 0 -266 63.5t-192.5 173.5t-70.5 241z" />
<glyph unicode="d" d="M55 453v104q0 110 34 201t90 149.5t127 90.5t147 32q116 0 211 -65q8 -6 18 -2t10 16v428q0 17 11.5 28t27.5 11h301q16 0 27.5 -11t11.5 -28v-1368q0 -15 -12 -27t-27 -12h-250q-23 0 -39 23l-28 45q-4 7 -12.5 7.5t-14.5 -5.5q-110 -86 -242 -86q-173 0 -282 131 t-109 338zM422 463q0 -82 38.5 -125t110.5 -43q27 0 52 5.5t47 24t22 46.5v266q0 42 -35.5 60t-85.5 18q-72 0 -110.5 -42.5t-38.5 -125.5v-84z" />
<glyph unicode="e" horiz-adv-x="1107" d="M55 453v108q0 209 141.5 344t358.5 135q214 0 356 -134.5t142 -344.5v-133q0 -17 -12 -29t-29 -12h-547q-11 0 -18 -9t-1 -22q14 -31 55 -52t93 -21q42 0 71.5 14.5t61.5 44.5q7 9 23 10.5t26 -6.5l215 -153q17 -12 18.5 -30.5t-12.5 -33.5q-156 -156 -395 -156 q-150 0 -276 63.5t-198.5 174t-72.5 242.5zM434 647q-1 -3 -1 -6q0 -7 6 -13q8 -8 18 -7h194q10 -1 18 7q6 5 6 14q0 3 -1 7q-24 82 -115 82q-99 0 -125 -84z" />
<glyph unicode="f" horiz-adv-x="825" d="M12 825v150q0 17 12 28t31 11h86q12 0 19.5 7.5t7.5 18.5v119q0 156 90.5 232.5t276.5 76.5q158 0 286 -61q14 -7 21 -21q2 -6 2 -14q0 -9 -4 -20l-103 -183q-6 -12 -20.5 -17.5t-28.5 -0.5q-37 12 -74 12q-29 0 -48 -11.5t-19 -33.5v-78q0 -11 6.5 -18.5t15.5 -7.5h211 q16 0 27.5 -11t11.5 -28v-150q0 -18 -12 -30.5t-27 -12.5h-211q-9 0 -15.5 -6.5t-6.5 -15.5v-721q0 -15 -12.5 -27t-30.5 -12h-297q-15 0 -27 12t-12 27v721q0 9 -7.5 15.5t-19.5 6.5h-86q-19 0 -31 12t-12 31z" />
<glyph unicode="g" d="M55 453v104q0 110 34 201t90 149.5t127 90.5t147 32q75 0 124 -20.5t115 -67.5q15 -9 25 4l28 43q19 25 46 25h241q16 0 27.5 -11t11.5 -28v-1002q0 -208 -157 -337.5t-398 -129.5q-166 0 -295 74q-13 7 -16.5 23.5t2.5 31.5l108 179q7 13 24 17.5t30 -3.5 q41 -16 118 -16q95 0 150 45.5t55 126.5v84q0 10 -8 13.5t-18 -3.5q-66 -49 -113.5 -71.5t-108.5 -22.5q-173 0 -281 131t-108 338zM422 463q0 -82 38.5 -125t110.5 -43q27 0 52 5.5t47 24t22 46.5v266q0 42 -35.5 60t-85.5 18q-72 0 -110.5 -42.5t-38.5 -125.5v-84z" />
<glyph unicode="h" horiz-adv-x="1134" d="M90 39v1368q0 17 12 28t29 11h297q18 0 28.5 -10.5t10.5 -28.5v-426q0 -11 11 -15t20 5q75 59 198 59q164 0 260.5 -106.5t96.5 -290.5v-594q0 -15 -12 -27t-27 -12h-299q-17 0 -29 12t-12 27v575q0 88 -105 88q-47 0 -74.5 -22.5t-27.5 -63.5v-577q0 -16 -10.5 -27.5 t-28.5 -11.5h-297q-17 0 -29 12t-12 27z" />
<glyph unicode="i" horiz-adv-x="557" d="M90 39v936q0 17 11.5 28t27.5 11h297q17 0 29 -11t12 -28v-936q0 -15 -12 -27t-29 -12h-297q-15 0 -27 12t-12 27zM92 1282q0 77 55 130.5t132 53.5t131.5 -53.5t54.5 -130.5t-54.5 -129.5t-131.5 -52.5t-132 52.5t-55 129.5z" />
<glyph unicode="j" horiz-adv-x="557" d="M-218 -413q-2 7 -2 14q0 10 5 20l106 191q6 11 19.5 16t26.5 2h65q43 0 65.5 25t22.5 57v1063q0 17 11.5 28t27.5 11h299q16 0 27.5 -11t11.5 -28v-1059q0 -105 -44 -194t-134.5 -146t-210.5 -57q-150 0 -273 45q-17 6 -23 23zM92 1282q0 77 55 130.5t132 53.5 t131.5 -53.5t54.5 -130.5t-54.5 -129.5t-131.5 -52.5t-132 52.5t-55 129.5z" />
<glyph unicode="k" horiz-adv-x="1118" d="M90 39v1368q0 18 10.5 28.5t28.5 10.5h297q17 0 29 -11t12 -28v-729q0 -14 10 -22.5t23 -2.5q75 31 113 106.5t40 180.5v37q1 19 14 28t25 9h312q18 0 28.5 -11.5t9.5 -29.5l-6 -51q-36 -251 -200 -402q-18 -15 -5 -31l269 -428q7 -11 7 -21q1 -10 -5 -20 q-12 -20 -37 -20h-334q-9 0 -20 7t-15 16l-170 327q-10 17 -32 17q-4 3 -5 2q-9 0 -15.5 -8t-6.5 -17v-305q0 -15 -12 -27t-29 -12h-297q-18 0 -28.5 11.5t-10.5 27.5z" />
<glyph unicode="l" horiz-adv-x="557" d="M90 39v1368q0 17 12 28t29 11h297q16 0 27.5 -11t11.5 -28v-1368q0 -15 -12 -27t-27 -12h-297q-17 0 -29 12t-12 27z" />
<glyph unicode="m" horiz-adv-x="1716" d="M90 39v936q0 17 11.5 28t27.5 11h248q25 0 37 -23l28 -43q5 -8 14 -9t17 5q95 86 219 86q89 0 164.5 -34.5t120.5 -96.5q14 -17 24 0q109 131 277 131q163 0 259.5 -107.5t96.5 -291.5v-592q0 -15 -12 -27t-27 -12h-301q-17 0 -28 11.5t-11 27.5v575q0 88 -104 88 q-45 0 -73.5 -23t-28.5 -63v-577q0 -16 -11 -27.5t-28 -11.5h-297q-15 0 -27 12t-12 27v575q0 88 -103 88q-104 0 -104 -86v-577q0 -15 -12 -27t-29 -12h-297q-15 0 -27 12t-12 27z" />
<glyph unicode="n" horiz-adv-x="1134" d="M90 39v936q0 17 12 28t29 11h246q22 0 37 -21l28 -41q12 -16 31 -4q100 82 229 82q163 0 257 -106.5t94 -290.5v-594q0 -15 -12.5 -27t-30.5 -12h-297q-15 0 -27 12t-12 27v575q0 88 -105 88q-46 0 -74 -23.5t-28 -62.5v-577q0 -15 -12 -27t-27 -12h-297q-17 0 -29 12 t-12 27z" />
<glyph unicode="o" horiz-adv-x="1163" d="M55 451v112q0 132 69.5 241.5t191 172.5t266.5 63q144 0 265 -63t191 -172.5t70 -241.5v-112q0 -133 -70 -243t-190.5 -172.5t-265.5 -62.5t-266 62.5t-191 172.5t-70 243zM424 451q0 -74 44 -121t114 -47q69 0 113 47t44 121v112q0 74 -44 121t-113 47q-70 0 -114 -47 t-44 -121v-112z" />
<glyph unicode="p" d="M90 -395v1370q0 17 11.5 28t27.5 11h248q17 0 35 -21l26 -37q13 -17 33 -4q106 78 219 78q74 0 147 -33.5t133 -93t97 -150.5t37 -196v-104q0 -116 -35.5 -208.5t-94.5 -147.5t-130 -84t-148 -29q-109 0 -200 57q-9 6 -19 1.5t-10 -13.5v-424q0 -15 -12 -27t-29 -12h-297 q-15 0 -27 12t-12 27zM467 371q0 -40 36 -58t85 -18q72 0 110.5 43t38.5 125v84q0 83 -38.5 125.5t-110.5 42.5q-29 0 -53 -5t-46 -23.5t-22 -49.5v-266z" />
<glyph unicode="q" d="M55 453v104q0 110 34 201t90 149.5t127 90.5t147 32q78 0 129.5 -20.5t109.5 -67.5q13 -13 25 4l28 43q19 25 46 25h237q19 0 31 -11t12 -28v-1370q0 -15 -12.5 -27t-30.5 -12h-297q-15 0 -27 12t-12 27v446q0 9 -8 12.5t-18 -4.5q-57 -38 -107.5 -56.5t-114.5 -18.5 q-173 0 -281 131t-108 338zM422 463q0 -82 38.5 -125t110.5 -43q27 0 52 5.5t47 24t22 46.5v266q0 42 -35.5 60t-85.5 18q-72 0 -110.5 -42.5t-38.5 -125.5v-84z" />
<glyph unicode="r" horiz-adv-x="868" d="M90 39v936q0 17 12 28t29 11h246q22 0 37 -21l26 -41q5 -6 14 -7t15 5q90 78 213 78q101 0 184 -57q20 -15 20 -32q0 -10 -7 -21l-131 -213q-12 -19 -33 -19q-11 0 -25 6q-38 15 -86 15q-23 0 -44.5 -3.5t-43.5 -12t-35.5 -27t-13.5 -43.5v-582q0 -15 -12 -27t-27 -12 h-297q-17 0 -29 12t-12 27z" />
<glyph unicode="s" horiz-adv-x="897" d="M59 135v6q0 13 7 23l143 188q9 12 26 13.5t29 -7.5q90 -73 174 -73q33 0 51.5 11t18.5 26v2q0 11 -6.5 18.5t-31.5 16.5t-69 16q-52 6 -93 15.5t-89.5 31.5t-81 53.5t-54.5 84.5t-22 122v8q0 151 115.5 249.5t288.5 98.5q172 0 317 -123q28 -25 6 -53l-139 -184 q-10 -13 -27 -14t-32 10q-63 47 -109 47q-22 0 -35.5 -10.5t-13.5 -28.5v-4q0 -25 32 -38t101 -19q48 -6 86 -14.5t82.5 -29t74 -50t49.5 -79t20 -114.5v-8q0 -157 -117 -255t-303 -98q-214 0 -385 136q-11 9 -13 26z" />
<glyph unicode="t" horiz-adv-x="831" d="M-2 825v150q0 17 11 28t28 11h88q10 0 17.5 7.5t7.5 18.5v224q0 17 11.5 29t26.5 12h301q15 0 27 -12t12 -29v-224q0 -12 7 -19t18 -7h209q17 0 27 -11t10 -28v-150q0 -19 -10 -31t-27 -12h-209q-10 0 -17.5 -6.5t-7.5 -15.5v-420q0 -21 20.5 -33t41.5 -12q36 0 67 10 q15 6 30.5 1t23.5 -17l112 -189q7 -11 7 -22q0 -6 -2 -12q-5 -16 -23 -23q-146 -59 -289 -59q-366 0 -366 307v469q0 9 -8 15.5t-17 6.5h-88q-17 0 -28 12t-11 31z" />
<glyph unicode="u" horiz-adv-x="1128" d="M82 387v588q0 17 11.5 28t27.5 11h301q17 0 28 -11t11 -28v-578q0 -88 104 -88q97 0 97 84v582q0 17 11.5 28t26.5 11h297q19 0 31 -11t12 -28v-936q0 -15 -12.5 -27t-30.5 -12h-243q-22 0 -39 20l-31 41q-12 15 -25 2q-93 -81 -229 -81q-160 0 -254 108.5t-94 296.5z " />
<glyph unicode="v" horiz-adv-x="1157" d="M25 965q-2 7 -2 13q1 11 7 21q10 15 29 15h285q18 0 33.5 -10t19.5 -27l166 -541q3 -12 15 -12h2q11 0 14 12l166 541q4 17 19.5 27t33.5 10h285q18 0 30 -16q7 -10 8 -20q0 -6 -3 -13l-355 -928q-6 -17 -20.5 -27t-30.5 -10h-297q-38 0 -51 37z" />
<glyph unicode="w" horiz-adv-x="1568" d="M43 971q-1 4 -1 7q0 13 8 23q10 13 28 13h293q21 0 35.5 -12t17.5 -31l92 -529q3 -12 15 -13.5t16 9.5l180 463q5 14 19.5 23.5t31.5 9.5h13q38 0 53 -33l178 -463q4 -11 16 -9.5t15 13.5l92 529q5 19 19.5 31t35.5 12h291q17 0 27 -13q8 -10 9 -23q0 -4 -1 -7l-234 -930 q-3 -18 -18 -29.5t-33 -11.5h-311q-35 0 -51 37l-76 201q-5 10 -19 10q-13 0 -18 -10l-76 -201q-13 -37 -51 -37h-309q-19 0 -33.5 11.5t-17.5 29.5z" />
<glyph unicode="x" horiz-adv-x="1161" d="M18 18q-3 7 -3 13q0 11 8 20l352 465q10 17 0 31l-326 416q-13 15 -5.5 33t28.5 18h317q31 0 47 -25l127 -172q5 -8 19 -8q11 0 16 8l127 172q16 25 47 25h318q21 0 28 -18t-6 -33l-326 -416q-10 -14 0 -31l353 -465q8 -10 8 -20q-1 -6 -3 -13q-8 -18 -28 -18h-321 q-32 0 -50 25l-147 211q-5 8 -16 8q-14 0 -19 -8l-145 -211q-21 -25 -51 -25h-322q-20 0 -27 18z" />
<glyph unicode="y" horiz-adv-x="1179" d="M25 963q-3 7 -3 14q0 9 6 19q9 18 29 18h289q35 0 49 -33l193 -479q3 -10 16 -10q11 0 14 10l179 479q17 33 49 33h276q20 0 30 -14q5 -9 5 -20q0 -7 -2 -15l-567 -1366q-16 -33 -51 -33h-258q-20 0 -31.5 17t-3.5 34l176 434q9 22 0 41z" />
<glyph unicode="z" horiz-adv-x="970" d="M20 39v8q0 17 13 39l375 621q9 15 2.5 26.5t-25.5 11.5h-264q-15 0 -27 12t-12 27v191q0 17 11.5 28t27.5 11h784q16 0 27.5 -11t11.5 -28v-8q0 -19 -14 -43l-367 -617q-8 -15 -0.5 -27t23.5 -12h305q17 0 28 -11t11 -28v-190q0 -16 -11 -27.5t-28 -11.5h-832 q-15 0 -27 12t-12 27z" />
<glyph unicode="{" horiz-adv-x="770" d="M125 725q0 17 12 29q42 40 76.5 100.5t34.5 130.5v528q0 197 162 285q16 8 28 2l211 -80q20 -6 26.5 -24t-7.5 -37q-56 -78 -56 -211v-463q0 -78 -35 -140t-81 -102q-8 -6 -8 -18t10 -18q114 -104 114 -244v-463q0 -135 56 -213q14 -13 7.5 -34t-26.5 -27l-198 -78 q-22 -9 -41 2q-162 96 -162 284v529q0 117 -111 233q-12 12 -12 29z" />
<glyph unicode="|" horiz-adv-x="729" d="M287 -279v2005q0 16 10.5 27.5t28.5 11.5h84q17 0 29 -12t12 -27v-2005q0 -17 -12 -28.5t-29 -11.5h-84q-16 0 -27.5 11t-11.5 29z" />
<glyph unicode="}" horiz-adv-x="770" d="M94.5 1693q6.5 21 26.5 27l198 78q21 9 43 -2q160 -95 160 -285v-526q0 -122 113 -235q11 -10 11 -28t-11 -28q-44 -42 -78.5 -102t-34.5 -129v-531q0 -196 -162 -284q-16 -8 -28 -2l-211 80q-19 7 -26 24.5t7 36.5q58 81 58 211v465q0 78 35 139t81 100q7 7 6.5 19.5 t-10.5 19.5q-112 102 -112 244v461q0 132 -58 213q-14 13 -7.5 34z" />
<glyph unicode="~" horiz-adv-x="1157" d="M70 471q-21 47 8 72q26 29 50 50t62.5 45.5t90 38t110.5 13.5q34 0 63.5 -4.5t56.5 -14t42.5 -16t41 -20t32.5 -17.5q76 -47 151 -47q88 0 176 84q17 15 44.5 11t39.5 -25l49 -78q9 -17 7.5 -38t-13.5 -36q-32 -32 -56.5 -53t-67.5 -49t-95.5 -42.5t-111.5 -14.5 q-33 0 -62.5 4t-56.5 14t-42 16t-42.5 21t-34.5 18q-35 18 -50 25t-43.5 15t-56.5 8q-86 0 -161 -70q-15 -14 -42.5 -9t-39.5 25z" />
<glyph unicode="&#xa1;" horiz-adv-x="659" d="M131 831q0 83 58.5 139t140.5 56q80 0 138 -56.5t58 -138.5t-57.5 -138t-138.5 -56q-83 0 -141 56t-58 138zM143 -395v884q0 15 12 27t29 12h293q17 0 29 -12t12 -27v-884q0 -16 -11 -27.5t-28 -11.5h-297q-16 0 -27.5 10.5t-11.5 28.5z" />
<glyph unicode="&#xa2;" horiz-adv-x="915" d="M55 451v112q0 182 131.5 316t327.5 157v144q0 16 11 27.5t28 11.5h84q17 0 29 -12t12 -27v-148q95 -17 186 -65q16 -9 19.5 -26t-4.5 -30l-119 -198q-8 -12 -22.5 -16.5t-28.5 1.5q-69 25 -125 25q-70 0 -114 -44.5t-44 -117.5v-106q0 -72 44.5 -118t113.5 -46 q50 0 121 26q13 5 29.5 1t23.5 -17l112 -201q9 -13 5 -30t-17 -23q-87 -50 -180 -65v-164q0 -17 -12 -29t-29 -12h-84q-16 0 -27.5 11.5t-11.5 29.5v159q-197 23 -328 157t-131 317z" />
<glyph unicode="&#xa3;" horiz-adv-x="1097" d="M70 633v168q0 17 12 28t29 11h43h2h3h3t3.5 0.5t3.5 1.5t3 2.5t2.5 3.5t2.5 5t1 6.5v8.5l-10 111q-17 212 120.5 348.5t370.5 136.5q160 0 306 -67q13 -6 18 -20.5t0 -28.5l-82 -211q-4 -15 -21 -22t-32 -1q-70 25 -129 25q-80 0 -127 -44.5t-43 -125.5l8 -105 q2 -11 9.5 -17.5t17.5 -6.5h139q19 0 31 -11t12 -28v-168q0 -17 -12 -28t-31 -11h-115q-26 0 -26 -25q6 -51 -5 -103.5t-28 -86.5q-6 -12 1.5 -24.5t20.5 -12.5h451q17 0 28 -12t11 -31v-260q0 -17 -11 -28t-28 -11h-868q-15 0 -26 11t-11 28v186q0 29 18 47q87 87 74 256 l-6 41q0 10 -7 17.5t-16 7.5h-69q-17 0 -29 11t-12 28z" />
<glyph unicode="&#xa5;" horiz-adv-x="1454" d="M10 1395q-9 18 0.5 34.5t32.5 16.5h334q31 0 45 -27l291 -561q5 -8 14 -8h2q7 0 12 8l291 561q17 27 45 27h336q22 0 32 -17t-1 -34l-404 -723h58q15 0 27 -12t12 -27v-88q0 -15 -12 -26t-27 -11h-148l-24 -45q-11 -19 -11 -41v-53h183q15 0 27 -12t12 -27v-86 q0 -15 -12 -27t-27 -12h-183v-152q0 -23 -15 -38t-38 -15h-270q-23 0 -38 15t-15 38v152h-183q-17 0 -29 12.5t-12 28.5v84q0 15 12 27t29 12h183v53q0 22 -11 41l-24 45h-148q-17 0 -29 12.5t-12 28.5v84q0 15 12 27t29 12h56z" />
<glyph unicode="&#xa6;" horiz-adv-x="729" d="M287 -279v859q0 16 10.5 27t28.5 11h84q17 0 29 -11.5t12 -26.5v-859q0 -17 -12 -28.5t-29 -11.5h-84q-16 0 -27.5 11t-11.5 29zM287 868v858q0 16 10.5 27.5t28.5 11.5h84q17 0 29 -12t12 -27v-858q0 -17 -12 -29t-29 -12h-84q-16 0 -27.5 11.5t-11.5 29.5z" />
<glyph unicode="&#xa7;" horiz-adv-x="1277" d="M122.5 -213q-1.5 17 6.5 27l170 223q8 10 23 11t26 -9q58 -47 127.5 -70.5t130.5 -23.5q98 0 141.5 30t43.5 70v8q0 19 -6 32.5t-19.5 23t-29 15.5t-41.5 11.5t-49.5 9.5t-60.5 10.5t-67 12.5q-81 17 -134.5 33.5t-101.5 42.5t-74.5 60t-42 83.5t-15.5 116.5v8 q0 152 104 238q5 5 5.5 12t-5.5 12q-90 90 -90 246v8q0 198 136 321.5t357 123.5q207 0 392 -146q11 -8 12 -22.5t-8 -26.5l-164 -217q-11 -14 -26.5 -16.5t-31.5 10.5q-82 71 -174 71q-133 0 -133 -96v-6q0 -48 52.5 -71t199.5 -54q88 -18 150 -41t115.5 -59t80.5 -91.5 t27 -129.5v-9q0 -145 -107 -227q-6 -6 -6 -14t6 -13q117 -87 117 -243v-9q0 -211 -154 -337.5t-399 -126.5q-118 0 -245.5 43t-225.5 118q-11 10 -12.5 27zM510 578q0 -64 29 -91t108 -45q25 -6 98 -18q12 -3 21.5 3t13.5 15q8 19 8 50v4q0 56 -22 78t-92 40q-10 2 -121 25 q-25 6 -37 -18q-6 -15 -6 -37v-6z" />
<glyph unicode="&#xa8;" horiz-adv-x="409" d="M-147 1282q0 62 43 106t104 44q62 0 106 -44t44 -106q0 -61 -44 -105t-106 -44q-61 0 -104 43.5t-43 105.5zM258 1282q0 62 43.5 106t106.5 44q61 0 104 -44t43 -106t-43 -105.5t-104 -43.5q-63 0 -106.5 43.5t-43.5 105.5z" />
<glyph unicode="&#xa9;" horiz-adv-x="1548" d="M123 725q0 141 49.5 263t136 207.5t207.5 134t260 48.5q138 0 258 -48.5t206 -134t135.5 -207.5t49.5 -263t-49.5 -263t-135.5 -206.5t-206 -133t-258 -48.5q-139 0 -260 48t-207.5 133t-136 207t-49.5 263zM188 725q0 -128 44.5 -237.5t122.5 -185.5t187 -119.5 t234 -43.5q124 0 232 43.5t185.5 119.5t122 185.5t44.5 237.5t-44.5 237.5t-122 186.5t-185.5 120.5t-232 43.5q-125 0 -234 -43.5t-187 -120.5t-122.5 -186.5t-44.5 -237.5zM334 690v72q0 198 132 322t337 124q152 0 280 -90q21 -12 4 -37l-110 -141q-25 -20 -43 -2 q-51 45 -131 45q-101 0 -158 -60t-57 -161v-72q0 -101 56.5 -160t158.5 -59q75 0 129 45q27 16 39 -2l119 -145q6 -6 4.5 -17.5t-9.5 -19.5q-116 -84 -282 -84q-211 0 -340 122t-129 320z" />
<glyph unicode="&#xaa;" horiz-adv-x="964" d="M74 997v84q0 88 27 161.5t71.5 120t100.5 72t116 25.5q61 0 101.5 -17.5t91.5 -56.5q6 -4 12 -1.5t8 8.5l25 32q9 21 32 21h195q12 0 20.5 -9t8.5 -22v-747q0 -12 -8.5 -22.5t-20.5 -10.5h-238q-13 0 -23.5 10.5t-10.5 22.5v10q0 7 -7 10t-14 -4q-48 -31 -87.5 -46 t-90.5 -15q-138 0 -223.5 104t-85.5 270zM365 1006q0 -65 31 -99.5t91 -34.5q43 0 68 15q27 12 27 45v213q0 34 -27 49q-32 14 -68 14q-60 0 -91 -34t-31 -99v-69z" />
<glyph unicode="&#xab;" horiz-adv-x="980" d="M82 512q0 11 6 20l227 318q10 16 29 16h145q13 0 16.5 -9t-1.5 -17l-176 -314q-4 -6 -4 -14t4 -14l176 -314q5 -8 1.5 -17t-16.5 -9h-145q-19 0 -29 16l-227 318q-6 9 -6 20zM475 512q0 11 6 20l228 318q10 16 28 16h144q12 0 16 -9t-2 -17l-176 -314q-4 -6 -4 -14t4 -14 l176 -314q6 -8 2 -17t-16 -9h-144q-18 0 -28 16l-228 318q-6 9 -6 20z" />
<glyph unicode="&#xac;" horiz-adv-x="1173" d="M102 807v186q0 14 12 25.5t29 11.5h887q17 0 29 -11.5t12 -25.5v-538q0 -15 -12 -27t-29 -12h-201q-15 0 -26.5 12t-11.5 27v290q0 9 -7.5 16t-19.5 7h-621q-17 0 -29 12t-12 27z" />
<glyph unicode="&#xad;" horiz-adv-x="790" d="M86 408v198q0 15 12 27t27 12h539q17 0 29 -12t12 -27v-198q0 -15 -12 -27t-29 -12h-539q-15 0 -27 12t-12 27z" />
<glyph unicode="&#xae;" horiz-adv-x="1042" d="M82 1040q0 193 125 317t315 124q189 0 314 -124.5t125 -316.5t-125 -316t-314 -124q-190 0 -315 124t-125 316zM143 1040q0 -166 107.5 -272t271.5 -106q163 0 270 106t107 272t-107.5 272.5t-269.5 106.5q-164 0 -271.5 -106.5t-107.5 -272.5zM328 784v527q0 10 12 10 h250q64 0 113 -53t49 -121v-8q0 -102 -86 -154q-7 -7 -7 -12q9 -34 37 -58t66 -28q6 -3 6 -13v-98q-2 -8 -10 -8q-88 0 -151.5 52.5t-78.5 135.5q-4 7 -8 7h-49q-4 0 -4 -7v-172q0 -10 -12 -10h-115q-12 0 -12 10zM467 1069q2 -2 4 -2h72q27 0 44 17t17 44v9q0 28 -16 46.5 t-43 18.5h-74q-4 0 -4 -8v-125z" />
<glyph unicode="&#xaf;" horiz-adv-x="819" d="M82 1192v151q0 18 11.5 29.5t29.5 11.5h579q15 0 27 -12t12 -29v-151q0 -15 -12 -27t-27 -12h-579q-18 0 -29.5 11.5t-11.5 27.5z" />
<glyph unicode="&#xb0;" horiz-adv-x="536" d="M31 1245q0 98 67.5 161.5t169.5 63.5t170 -63.5t68 -161.5q0 -97 -68 -161t-170 -64q-101 0 -169 64t-68 161zM180 1245q0 -42 23 -66t65 -24t65 24t23 66q0 43 -22.5 66.5t-65.5 23.5t-65.5 -23.5t-22.5 -66.5z" />
<glyph unicode="&#xb1;" horiz-adv-x="1173" d="M102 223v185q0 15 12 26.5t27 11.5h889q17 0 29 -11.5t12 -26.5v-183q0 -16 -12 -28.5t-29 -12.5h-889q-15 0 -27 12t-12 27zM102 838v182q0 15 12 27t29 12h287q10 0 18.5 7t8.5 17v213q0 17 12 29t27 12h184q15 0 27 -12t12 -29v-213q0 -10 8 -17t18 -7h287 q15 0 27 -12t12 -27v-184q0 -15 -12 -27t-27 -12h-287q-9 0 -17.5 -7t-8.5 -16v-215q0 -15 -12 -27t-27 -12h-184q-15 0 -27 12t-12 27v215q0 9 -9 16t-18 7h-287q-17 0 -29 12.5t-12 28.5z" />
<glyph unicode="&#xb2;" horiz-adv-x="753" d="M72 825v117q0 23 18 45l240 297q47 60 62.5 87.5t15.5 53.5v9q0 42 -29.5 67t-79.5 25t-102 -19q-15 -7 -31.5 -2t-22.5 21l-53 139q-6 14 1.5 28.5t21.5 20.5q105 51 211 51q169 0 263.5 -78.5t94.5 -224.5v-22q0 -66 -34.5 -129.5t-110.5 -151.5l-76 -88 q-10 -12 -5 -27.5t23 -15.5h146q17 0 27 -11.5t10 -29.5v-162q0 -18 -10 -29.5t-27 -11.5h-512q-17 0 -29 12t-12 29z" />
<glyph unicode="&#xb3;" horiz-adv-x="737" d="M76 870l53 138q5 14 19 20t32 0q47 -14 99 -14t82 29t30 71v10q0 44 -34 71.5t-87 27.5q-38 0 -65 -6q-12 -3 -24.5 2t-18.5 16l-19 29q-16 22 4 45l129 161q9 10 3 25.5t-21 15.5h-111q-15 0 -26.5 12t-11.5 27v164q0 15 11.5 27t26.5 12h457q17 0 29 -12t12 -27v-129 q0 -21 -14 -35l-144 -153q79 -30 130 -103t51 -168v-20q0 -141 -106.5 -237.5t-264.5 -96.5q-99 0 -199 49q-15 7 -21 21t-1 28z" />
<glyph unicode="&#xb4;" horiz-adv-x="819" d="M143.5 1204.5q-1.5 20.5 12.5 32.5l250 217q12 11 32 12t37 -8l182 -98q20 -12 20.5 -35t-18.5 -33l-309 -182q-12 -9 -32 -9.5t-33 5.5l-123 68q-17 10 -18.5 30.5z" />
<glyph unicode="&#xb5;" horiz-adv-x="1128" d="M92 -395v1370q0 17 11.5 28t27.5 11h301q17 0 28 -11t11 -28v-600q0 -66 98 -66q93 0 93 68v598q0 17 11.5 28t26.5 11h297q19 0 31 -11t12 -28v-936q0 -15 -12.5 -27t-30.5 -12h-243q-22 0 -41 23l-29 38q-5 6 -13 7t-14 -5q-54 -51 -127 -51q-9 0 -19.5 1t-14.5 1 q-11 0 -18 -7t-7 -17v-385q0 -15 -12.5 -27t-30.5 -12h-297q-15 0 -27 12t-12 27z" />
<glyph unicode="&#xb6;" horiz-adv-x="1652" d="M18 936v27q0 133 70.5 244t192.5 175t266 64h989q15 0 27 -12t12 -27v-264q0 -15 -12 -27t-27 -12h-59q-11 0 -18 -7t-7 -18v-1040q0 -17 -12 -28t-29 -11h-297q-18 0 -28.5 10.5t-10.5 28.5v1040q0 10 -8.5 17.5t-17.5 7.5h-105q-10 0 -17 -7t-7 -18v-1040 q0 -17 -12 -28t-29 -11h-297q-18 0 -28.5 10.5t-10.5 28.5v412q0 11 -8.5 18.5t-18.5 7.5q-213 9 -355.5 137.5t-142.5 321.5zM387 934q0 -70 35 -104.5t94 -34.5q10 0 18.5 7t8.5 17v260q0 10 -8.5 17.5t-18.5 7.5q-59 0 -94 -34.5t-35 -104.5v-31z" />
<glyph unicode="&#xb7;" horiz-adv-x="569" d="M86 729q0 83 58.5 140t140.5 57t140 -57t58 -140t-57.5 -138.5t-140.5 -55.5t-141 56t-58 138z" />
<glyph unicode="&#xb8;" horiz-adv-x="819" d="M178 -430l21 57q4 13 22 20t33 1q44 -17 92 -17q59 0 90 20.5t31 47.5v18q0 24 -31 43t-90 19q-56 0 -100 -21q-9 -5 -20 -1.5t-15 12.5l-8 10q-11 15 -2 31l112 190h156l-33 -55q-7 -12 -3 -22.5t16 -12.5q95 -12 146.5 -62.5t51.5 -128.5v-24q0 -96 -81.5 -155.5 t-209.5 -59.5q-72 0 -157 37q-14 8 -20.5 23t-0.5 30z" />
<glyph unicode="&#xb9;" horiz-adv-x="575" d="M98 1579l90 158q10 16 33 16h174q15 0 26 -12t11 -27v-889q0 -17 -11 -29t-26 -12h-186q-15 0 -27 12t-12 29v668q0 12 -7 19.5t-16 7.5h-14q-21 0 -34 20.5t-1 38.5z" />
<glyph unicode="&#xba;" horiz-adv-x="987" d="M74 1004v69q0 160 122 270.5t300 110.5q174 0 295.5 -111t121.5 -270v-69q0 -159 -121.5 -270t-295.5 -111q-178 0 -300 110.5t-122 270.5zM367 1004q0 -60 36 -96t93 -36q54 0 88 36t34 96v71q0 59 -34 96t-88 37q-57 0 -93 -37t-36 -96v-71z" />
<glyph unicode="&#xbb;" horiz-adv-x="980" d="M84 167q-4 9 2 17l176 314q4 6 4 14t-4 14l-176 314q-6 8 -2 17t16 9h146q18 0 28 -16l228 -318q6 -9 6 -20t-6 -20l-228 -318q-10 -16 -28 -16h-146q-12 0 -16 9zM475.5 167q-3.5 9 1.5 17l178 314q4 6 4 14t-4 14l-178 314q-5 8 -1.5 17t16.5 9h145q19 0 29 -16 l227 -318q6 -9 6 -20t-6 -20l-227 -318q-10 -16 -29 -16h-145q-13 0 -16.5 9z" />
<glyph unicode="&#xbc;" horiz-adv-x="1548" d="M55 1272l90 158q10 16 33 16h174q15 0 26 -12t11 -27v-889q0 -17 -11 -29t-26 -12h-186q-15 0 -27 12t-12 29v668q0 12 -7 19t-16 7h-14q-21 0 -34 21t-1 39zM285 53l612 1354q12 39 55 39h162q24 0 34.5 -15t4.5 -36l-612 -1356q-6 -18 -21.5 -28.5t-34.5 -10.5h-161 q-24 0 -35.5 15.5t-3.5 37.5zM815 223v92q0 26 19 58l333 579q11 17 33 17h170q17 0 29 -12t12 -27v-512q0 -11 7.5 -19t17.5 -8h16q17 0 28 -11.5t11 -27.5v-129q0 -17 -11 -28t-28 -11h-16q-10 0 -17.5 -7.5t-7.5 -18.5v-117q0 -17 -12 -29t-29 -12h-182q-15 0 -27 12 t-12 29v117q0 11 -7.5 18.5t-19.5 7.5h-266q-17 0 -29 11t-12 28zM1083 422q-6 -12 0.5 -21.5t18.5 -9.5h20q12 0 19.5 8t7.5 19v63q0 15 -12.5 16.5t-18.5 -10.5z" />
<glyph unicode="&#xbd;" horiz-adv-x="1642" d="M55 1272l90 158q10 16 33 16h174q15 0 26 -12t11 -27v-889q0 -17 -11 -29t-26 -12h-186q-15 0 -27 12t-12 29v668q0 12 -7 19t-16 7h-14q-21 0 -34 21t-1 39zM285 53l612 1354q12 39 55 39h162q24 0 34.5 -15t4.5 -36l-612 -1356q-6 -18 -21.5 -28.5t-34.5 -10.5h-161 q-24 0 -34.5 15.5t-4.5 37.5zM983 41v117q0 27 18 45l240 297q78 92 78 133v16q0 42 -29.5 67t-79.5 25q-56 0 -102 -16q-15 -6 -32 -0.5t-23 20.5l-52 136q-12 33 19 47q109 53 215 53q167 0 262.5 -83.5t95.5 -231.5v-21q0 -63 -38.5 -125.5t-108.5 -142.5l-74 -90 q-11 -12 -5 -27.5t24 -15.5h143q17 0 28 -12t11 -29v-162q0 -17 -11 -29t-28 -12h-510q-17 0 -29 12t-12 29z" />
<glyph unicode="&#xbe;" horiz-adv-x="1697" d="M57 563l54 137q5 14 19 20.5t32 0.5q47 -14 98 -14q52 0 82.5 29t30.5 71v10q0 44 -34 71t-87 27q-39 0 -66 -6q-12 -3 -24.5 2.5t-18.5 16.5l-18 28q-16 22 4 45l129 162q9 11 3 26t-21 15h-111q-15 0 -27 12t-12 27v164q0 15 12 27t27 12h457q17 0 29 -12t12 -27v-129 q0 -20 -15 -35l-143 -153q79 -30 129.5 -103t50.5 -168v-20q0 -141 -106 -237.5t-264 -96.5q-99 0 -199 49q-15 7 -21.5 21t-1.5 28zM463 53l610 1354q12 39 57 39h160q24 0 35.5 -15t3.5 -36l-610 -1356q-16 -39 -57 -39h-160q-25 0 -36.5 15.5t-2.5 37.5zM965 223v92 q0 28 18 58l334 579q11 17 33 17h170q17 0 29 -12t12 -27v-512q0 -11 7 -19t17 -8h17q17 0 27.5 -11.5t10.5 -27.5v-129q0 -17 -10.5 -28t-27.5 -11h-17q-10 0 -17 -7.5t-7 -18.5v-117q0 -17 -12 -29t-29 -12h-183q-15 0 -27 12t-12 29v117q0 11 -7 18.5t-19 7.5h-266 q-17 0 -29 11t-12 28zM1233 400.5q6 -9.5 18 -9.5h21q12 0 19 8t7 19v63q0 15 -12 16.5t-18 -10.5l-35 -65q-6 -12 0 -21.5z" />
<glyph unicode="&#xbf;" horiz-adv-x="1040" d="M37 -4q0 98 25.5 164t70 108t125.5 86q135 69 135 142v2q0 15 13 26t28 11h275q17 0 28 -12t11 -29v-5q0 -45 -6.5 -82t-22.5 -67.5t-29.5 -51t-43 -44.5t-46 -36t-53.5 -36q-42 -26 -58.5 -36.5t-36.5 -29t-26 -36.5t-6 -45v-9q0 -51 35.5 -76.5t91.5 -25.5q60 0 104 16 t92 58q13 11 31.5 10t30.5 -16l170 -222q10 -13 7.5 -29t-13.5 -26q-110 -87 -208.5 -123.5t-213.5 -36.5q-227 0 -368.5 122.5t-141.5 320.5v8zM369 831q0 83 58 139t140 56q81 0 139 -56.5t58 -138.5t-58 -138t-139 -56q-83 0 -140.5 55.5t-57.5 138.5z" />
<glyph unicode="&#xc0;" horiz-adv-x="1306" d="M-2 47l577 1366q17 33 50 33h57q36 0 49 -33l578 -1366q7 -18 -5 -32.5t-28 -14.5h-311q-38 0 -50 31l-26 71q-17 33 -45 33h-379q-32 0 -45 -33l-27 -71q-15 -31 -49 -31h-313q-16 0 -27.5 14.5t-5.5 32.5zM385 1757q1 23 21 35l182 98q17 9 37 8t32 -12l250 -217 q15 -12 13 -32.5t-19 -30.5l-123 -68q-13 -6 -32.5 -5.5t-32.5 9.5l-310 182q-19 10 -18 33zM551 436q-3 -8 1 -16t13 -8h176q10 0 14 8t1 16l-88 221q-4 11 -15 11q-10 0 -14 -11z" />
<glyph unicode="&#xc1;" horiz-adv-x="1306" d="M-2 47l577 1366q17 33 50 33h57q36 0 49 -33l578 -1366q7 -18 -5 -32.5t-28 -14.5h-311q-38 0 -50 31l-26 71q-17 33 -45 33h-379q-32 0 -45 -33l-27 -71q-15 -31 -49 -31h-313q-16 0 -27.5 14.5t-5.5 32.5zM384.5 1636.5q-1.5 20.5 12.5 32.5l250 217q12 11 32.5 12 t37.5 -8l182 -98q20 -12 20.5 -35t-18.5 -33l-309 -182q-12 -9 -32.5 -9.5t-33.5 5.5l-123 68q-17 10 -18.5 30.5zM551 436q-3 -8 1 -16t13 -8h176q10 0 14 8t1 16l-88 221q-4 11 -15 11q-10 0 -14 -11z" />
<glyph unicode="&#xc2;" horiz-adv-x="1306" d="M-2 47l577 1366q17 33 50 33h57q36 0 49 -33l578 -1366q7 -18 -5 -32.5t-28 -14.5h-311q-38 0 -50 31l-26 71q-17 33 -45 33h-379q-32 0 -45 -33l-27 -71q-15 -31 -49 -31h-313q-16 0 -27.5 14.5t-5.5 32.5zM318.5 1637.5q-1.5 20.5 15.5 31.5l301 215q9 6 18 6 q10 0 19 -6l301 -215q17 -11 15.5 -31.5t-17.5 -29.5l-103 -60q-15 -12 -39 0l-163 90q-4 2 -13 2q-8 0 -12 -2l-164 -90q-24 -12 -39 0l-102 60q-16 9 -17.5 29.5zM551 436q-3 -8 1 -16t13 -8h176q10 0 14 8t1 16l-88 221q-4 11 -15 11q-10 0 -14 -11z" />
<glyph unicode="&#xc3;" horiz-adv-x="1306" d="M-2 47l577 1366q17 33 50 33h57q36 0 49 -33l578 -1366q7 -18 -5 -32.5t-28 -14.5h-311q-38 0 -50 31l-26 71q-17 33 -45 33h-379q-32 0 -45 -33l-27 -71q-15 -31 -49 -31h-313q-16 0 -27.5 14.5t-5.5 32.5zM317.5 1743q1.5 13 10.5 20q87 92 200 92q70 0 144 -36 q5 -2 17.5 -8t18.5 -8.5t16 -6t19.5 -5t20.5 -1.5q46 0 100 35q10 7 26 3.5t23 -16.5l70 -110q6 -10 4.5 -24t-10.5 -21q-36 -40 -91 -70.5t-122 -30.5q-33 0 -62.5 6.5t-41 11.5t-39.5 19q-56 29 -93 29q-46 0 -90 -27q-10 -6 -25 -2t-22 17l-69 110q-6 10 -4.5 23z M551 436q-3 -8 1 -16t13 -8h176q10 0 14 8t1 16l-88 221q-4 11 -15 11q-10 0 -14 -11z" />
<glyph unicode="&#xc4;" horiz-adv-x="1306" d="M-2 47l577 1366q17 33 50 33h57q36 0 49 -33l578 -1366q7 -18 -5 -32.5t-28 -14.5h-311q-38 0 -50 31l-26 71q-17 33 -45 33h-379q-32 0 -45 -33l-27 -71q-15 -31 -49 -31h-313q-16 0 -27.5 14.5t-5.5 32.5zM301 1714q0 62 43.5 106t104.5 44t105 -44t44 -106t-44 -105.5 t-105 -43.5t-104.5 43.5t-43.5 105.5zM551 436q-3 -8 1 -16t13 -8h176q10 0 14 8t1 16l-88 221q-4 11 -15 11q-10 0 -14 -11zM707 1714q0 62 43 106t106 44q61 0 104.5 -44t43.5 -106t-43.5 -105.5t-104.5 -43.5q-63 0 -106 43.5t-43 105.5z" />
<glyph unicode="&#xc5;" horiz-adv-x="1306" d="M-2 47l577 1366q17 33 50 33h57q36 0 49 -33l578 -1366q7 -18 -5 -32.5t-28 -14.5h-311q-38 0 -50 31l-26 71q-17 33 -45 33h-379q-32 0 -45 -33l-27 -71q-15 -31 -49 -31h-313q-16 0 -27.5 14.5t-5.5 32.5zM451 1714q0 83 58 138t144 55q88 0 145.5 -55t57.5 -138 t-57.5 -138.5t-145.5 -55.5q-86 0 -144 55.5t-58 138.5zM551 436q-3 -8 1 -16t13 -8h176q10 0 14 8t1 16l-88 221q-4 11 -15 11q-10 0 -14 -11zM573 1714q0 -40 21 -61t59 -21t59 21t21 61q0 38 -21 60t-59 22t-59 -22t-21 -60z" />
<glyph unicode="&#xc6;" horiz-adv-x="1662" d="M0 47l578 1366q16 33 49 33h913q18 0 29.5 -11.5t11.5 -27.5v-264q0 -15 -11.5 -26t-29.5 -11h-653q-9 0 -13 -8t0 -17l80 -186q4 -9 15 -16t20 -7h385q17 0 29 -12t12 -29v-229q0 -15 -12 -27t-29 -12h-256q-11 0 -14.5 -7t2.5 -19l72 -172q12 -23 34 -23h328 q18 0 29.5 -11.5t11.5 -27.5v-264q0 -16 -11.5 -27.5t-29.5 -11.5h-573q-37 0 -49 31l-27 71q-6 15 -18.5 24t-26.5 9h-379q-32 0 -45 -33l-27 -71q-15 -31 -49 -31h-311q-18 0 -30 14.5t-5 32.5zM553 436q-3 -8 1 -16t13 -8h176q10 0 15 8t2 16l-88 221q-4 11 -17 11 q-10 0 -14 -11z" />
<glyph unicode="&#xc7;" horiz-adv-x="1280" d="M74 662v118q0 201 89 358t245 242.5t352 85.5q254 0 440 -149q14 -11 15 -28.5t-9 -28.5l-170 -222q-11 -14 -28 -15t-31 11q-43 38 -101 60t-116 22q-146 0 -224.5 -90t-78.5 -246v-118q0 -155 78.5 -243.5t224.5 -88.5q123 0 215 80q13 12 29 11.5t26 -13.5l176 -228 q11 -12 9 -29.5t-15 -27.5q-169 -132 -397 -141l-21 -37q-7 -12 -3 -22.5t16 -12.5q95 -12 146.5 -62.5t51.5 -128.5v-24q0 -96 -81.5 -155.5t-209.5 -59.5q-72 0 -157 37q-14 8 -20.5 23t-0.5 30l21 57q4 13 22 20t33 1q44 -17 92 -17q59 0 90 20.5t31 47.5v18q0 24 -31 43 t-90 19q-56 0 -100 -21q-9 -5 -20 -1.5t-15 12.5l-8 10q-11 15 -2 31l104 178q-261 32 -419 215.5t-158 458.5z" />
<glyph unicode="&#xc8;" horiz-adv-x="1222" d="M123 39v1368q0 15 12 27t27 12h938q17 0 29 -12t12 -27v-264q0 -15 -12 -26t-29 -11h-576q-9 0 -15.5 -8t-6.5 -17v-186q0 -9 6.5 -16t15.5 -7h422q17 0 29 -12t12 -29v-229q0 -15 -12 -27t-29 -12h-422q-9 0 -15.5 -7.5t-6.5 -18.5v-172q0 -9 6.5 -16t15.5 -7h576 q17 0 29 -12t12 -27v-264q0 -15 -12 -27t-29 -12h-938q-15 0 -27 12t-12 27zM380.5 1757q0.5 23 20.5 35l183 98q17 9 37 8t32 -12l250 -217q15 -12 13 -32.5t-19 -30.5l-123 -68q-13 -6 -32.5 -5.5t-32.5 9.5l-310 182q-19 10 -18.5 33z" />
<glyph unicode="&#xc9;" horiz-adv-x="1222" d="M123 39v1368q0 15 12 27t27 12h938q17 0 29 -12t12 -27v-264q0 -15 -12 -26t-29 -11h-576q-9 0 -15.5 -8t-6.5 -17v-186q0 -9 6.5 -16t15.5 -7h422q17 0 29 -12t12 -29v-229q0 -15 -12 -27t-29 -12h-422q-9 0 -15.5 -7.5t-6.5 -18.5v-172q0 -9 6.5 -16t15.5 -7h576 q17 0 29 -12t12 -27v-264q0 -15 -12 -27t-29 -12h-938q-15 0 -27 12t-12 27zM370.5 1636.5q-1.5 20.5 12.5 32.5l250 217q12 11 32 12t37 -8l183 -98q20 -12 20.5 -35t-18.5 -33l-309 -182q-12 -9 -32.5 -9.5t-33.5 5.5l-123 68q-17 10 -18.5 30.5z" />
<glyph unicode="&#xca;" horiz-adv-x="1222" d="M123 39v1368q0 15 12 27t27 12h938q17 0 29 -12t12 -27v-264q0 -15 -12 -26t-29 -11h-576q-9 0 -15.5 -8t-6.5 -17v-186q0 -9 6.5 -16t15.5 -7h422q17 0 29 -12t12 -29v-229q0 -15 -12 -27t-29 -12h-422q-9 0 -15.5 -7.5t-6.5 -18.5v-172q0 -9 6.5 -16t15.5 -7h576 q17 0 29 -12t12 -27v-264q0 -15 -12 -27t-29 -12h-938q-15 0 -27 12t-12 27zM304 1637.5q-2 20.5 15 31.5l302 215q9 6 18 6t18 -6l301 -215q17 -11 15.5 -31.5t-17.5 -29.5l-102 -60q-15 -12 -39 0l-164 90q-4 2 -12 2t-12 -2l-164 -90q-24 -12 -39 0l-102 60 q-16 9 -18 29.5z" />
<glyph unicode="&#xcb;" horiz-adv-x="1222" d="M123 39v1368q0 15 12 27t27 12h938q17 0 29 -12t12 -27v-264q0 -15 -12 -26t-29 -11h-576q-9 0 -15.5 -8t-6.5 -17v-186q0 -9 6.5 -16t15.5 -7h422q17 0 29 -12t12 -29v-229q0 -15 -12 -27t-29 -12h-422q-9 0 -15.5 -7.5t-6.5 -18.5v-172q0 -9 6.5 -16t15.5 -7h576 q17 0 29 -12t12 -27v-264q0 -15 -12 -27t-29 -12h-938q-15 0 -27 12t-12 27zM297 1714q0 62 43 106t104 44q62 0 106 -44t44 -106q0 -61 -44 -105t-106 -44q-61 0 -104 43.5t-43 105.5zM702 1714q0 62 43.5 106t106.5 44q61 0 104 -44t43 -106t-43 -105.5t-104 -43.5 q-63 0 -106.5 43.5t-43.5 105.5z" />
<glyph unicode="&#xcc;" horiz-adv-x="624" d="M42.5 1757q0.5 23 20.5 35l183 98q17 9 37 8t32 -12l250 -217q15 -12 13 -32.5t-19 -30.5l-123 -68q-13 -6 -32.5 -5.5t-32.5 9.5l-310 182q-19 10 -18.5 33zM123 39v1368q0 15 12 27t27 12h301q15 0 27 -12t12 -27v-1368q0 -15 -12 -27t-27 -12h-301q-15 0 -27 12 t-12 27z" />
<glyph unicode="&#xcd;" horiz-adv-x="624" d="M42.5 1636.5q-1.5 20.5 12.5 32.5l250 217q12 11 32.5 12t37.5 -8l182 -98q20 -12 20.5 -35t-18.5 -33l-309 -182q-12 -9 -32.5 -9.5t-33.5 5.5l-123 68q-17 10 -18.5 30.5zM123 39v1368q0 15 12 27t27 12h301q15 0 27 -12t12 -27v-1368q0 -15 -12 -27t-27 -12h-301 q-15 0 -27 12t-12 27z" />
<glyph unicode="&#xce;" horiz-adv-x="624" d="M-23.5 1637.5q-1.5 20.5 15.5 31.5l301 215q9 6 18 6q10 0 19 -6l301 -215q17 -11 15.5 -31.5t-17.5 -29.5l-103 -60q-15 -12 -39 0l-163 90q-4 2 -13 2q-8 0 -12 -2l-164 -90q-24 -12 -39 0l-102 60q-16 9 -17.5 29.5zM123 39v1368q0 15 12 27t27 12h301q15 0 27 -12 t12 -27v-1368q0 -15 -12 -27t-27 -12h-301q-15 0 -27 12t-12 27z" />
<glyph unicode="&#xcf;" horiz-adv-x="624" d="M-41 1714q0 62 43 106t104 44q62 0 106 -44t44 -106q0 -61 -44 -105t-106 -44q-61 0 -104 43.5t-43 105.5zM123 39v1368q0 15 12 27t27 12h301q15 0 27 -12t12 -27v-1368q0 -15 -12 -27t-27 -12h-301q-15 0 -27 12t-12 27zM365 1714q0 62 43 106t106 44q61 0 104.5 -44 t43.5 -106t-43.5 -105.5t-104.5 -43.5q-63 0 -106 43.5t-43 105.5z" />
<glyph unicode="&#xd0;" horiz-adv-x="1413" d="M29 651v127q0 17 12 29t29 12h28q10 0 17.5 7t7.5 16v565q0 15 12 27t27 12h485q309 0 500.5 -185t191.5 -483v-114q0 -135 -40 -247.5t-107.5 -188.5t-157.5 -128.5t-187.5 -76t-199.5 -23.5h-485q-15 0 -27 12t-12 27v549q0 10 -7 17t-18 7h-28q-17 0 -29 12t-12 27z M502 365q0 -9 6.5 -16t15.5 -7h123q143 0 227 87t84 235v114q0 153 -84.5 240.5t-226.5 87.5h-123q-9 0 -15.5 -8t-6.5 -17v-239q0 -9 6.5 -16t15.5 -7h33q15 0 27 -12t12 -29v-127q0 -15 -12 -27t-27 -12h-33q-9 0 -15.5 -7t-6.5 -17v-223z" />
<glyph unicode="&#xd1;" horiz-adv-x="1456" d="M123 39v1368q0 15 12 27t29 12h37q23 0 37 -14l690 -664q6 -7 17 -4t11 14v629q0 16 10.5 27.5t28.5 11.5h297q17 0 29 -12t12 -27v-1368q0 -15 -12 -27t-29 -12h-41q-28 0 -43 18l-678 668q-8 8 -18 4.5t-10 -16.5v-635q0 -16 -11 -27.5t-28 -11.5h-299q-17 0 -29 12 t-12 27zM407.5 1743q1.5 13 10.5 20q87 92 200 92q70 0 144 -36q5 -2 17.5 -8t18.5 -8.5t16 -6t19.5 -5t20.5 -1.5q46 0 100 35q10 7 26.5 3.5t23.5 -16.5l69 -110q6 -10 4.5 -24t-10.5 -21q-36 -40 -91 -70.5t-122 -30.5q-33 0 -62.5 6.5t-41 11.5t-39.5 19q-56 29 -93 29 q-46 0 -90 -27q-10 -6 -25 -2t-22 17l-69 110q-6 10 -4.5 23z" />
<glyph unicode="&#xd2;" horiz-adv-x="1536" d="M74 664v118q0 198 88.5 354t246.5 243t359 87t359 -87t246.5 -243t88.5 -354v-118q0 -200 -88.5 -356.5t-246.5 -242t-359 -85.5t-359 85.5t-246.5 242t-88.5 356.5zM457 664q0 -161 82.5 -247.5t228.5 -86.5t228.5 86.5t82.5 247.5v118q0 159 -82.5 246.5t-228.5 87.5 t-228.5 -87.5t-82.5 -246.5v-118zM497.5 1757q0.5 23 20.5 35l182 98q17 9 37.5 8t32.5 -12l250 -217q15 -12 13 -32.5t-19 -30.5l-123 -68q-13 -6 -33 -5.5t-33 9.5l-309 182q-19 10 -18.5 33z" />
<glyph unicode="&#xd3;" horiz-adv-x="1536" d="M74 664v118q0 198 88.5 354t246.5 243t359 87t359 -87t246.5 -243t88.5 -354v-118q0 -200 -88.5 -356.5t-246.5 -242t-359 -85.5t-359 85.5t-246.5 242t-88.5 356.5zM457 664q0 -161 82.5 -247.5t228.5 -86.5t228.5 86.5t82.5 247.5v118q0 159 -82.5 246.5t-228.5 87.5 t-228.5 -87.5t-82.5 -246.5v-118zM499.5 1636.5q-1.5 20.5 12.5 32.5l250 217q12 11 32 12t37 -8l183 -98q20 -12 20.5 -35t-18.5 -33l-309 -182q-12 -9 -32.5 -9.5t-33.5 5.5l-123 68q-17 10 -18.5 30.5z" />
<glyph unicode="&#xd4;" horiz-adv-x="1536" d="M74 664v118q0 198 88.5 354t246.5 243t359 87t359 -87t246.5 -243t88.5 -354v-118q0 -200 -88.5 -356.5t-246.5 -242t-359 -85.5t-359 85.5t-246.5 242t-88.5 356.5zM433.5 1637.5q-1.5 20.5 15.5 31.5l301 215q9 6 18 6t18 -6l301 -215q17 -11 15.5 -31.5t-17.5 -29.5 l-102 -60q-15 -12 -39 0l-164 90q-4 2 -12 2t-12 -2l-164 -90q-24 -12 -39 0l-102 60q-16 9 -17.5 29.5zM457 664q0 -161 82.5 -247.5t228.5 -86.5t228.5 86.5t82.5 247.5v118q0 159 -82.5 246.5t-228.5 87.5t-228.5 -87.5t-82.5 -246.5v-118z" />
<glyph unicode="&#xd5;" horiz-adv-x="1536" d="M74 664v118q0 198 88.5 354t246.5 243t359 87t359 -87t246.5 -243t88.5 -354v-118q0 -200 -88.5 -356.5t-246.5 -242t-359 -85.5t-359 85.5t-246.5 242t-88.5 356.5zM431.5 1743q1.5 13 10.5 20q87 92 201 92q69 0 143 -36q4 -2 17.5 -8t19 -8.5t16 -6t20 -5t20.5 -1.5 q46 0 100 35q10 7 26 3.5t23 -16.5l70 -110q6 -10 4.5 -24t-10.5 -21q-36 -40 -91 -70.5t-122 -30.5q-33 0 -62.5 6.5t-42 12t-39.5 18.5q-56 29 -92 29q-46 0 -90 -27q-10 -6 -25 -2t-22 17l-70 110q-6 10 -4.5 23zM457 664q0 -161 82.5 -247.5t228.5 -86.5t228.5 86.5 t82.5 247.5v118q0 159 -82.5 246.5t-228.5 87.5t-228.5 -87.5t-82.5 -246.5v-118z" />
<glyph unicode="&#xd6;" horiz-adv-x="1536" d="M74 664v118q0 198 88.5 354t246.5 243t359 87t359 -87t246.5 -243t88.5 -354v-118q0 -200 -88.5 -356.5t-246.5 -242t-359 -85.5t-359 85.5t-246.5 242t-88.5 356.5zM416 1714q0 62 43 106t104 44t105.5 -44t44.5 -106q0 -61 -44 -105t-106 -44q-61 0 -104 43.5 t-43 105.5zM457 664q0 -161 82.5 -247.5t228.5 -86.5t228.5 86.5t82.5 247.5v118q0 159 -82.5 246.5t-228.5 87.5t-228.5 -87.5t-82.5 -246.5v-118zM821 1714q0 62 43.5 106t106.5 44q61 0 104 -44t43 -106t-43 -105.5t-104 -43.5q-63 0 -106.5 43.5t-43.5 105.5z" />
<glyph unicode="&#xd7;" horiz-adv-x="1005" d="M52.5 442.5q0.5 16.5 10.5 26.5l238 238q6 6 6 16.5t-6 17.5l-235 238q-12 10 -13 27.5t8 27.5l132 131q12 11 28.5 10.5t28.5 -12.5l235 -237q17 -14 37 2l234 235q12 11 28.5 11t28.5 -11l129 -131q10 -12 10 -28t-10 -25l-235 -236q-16 -20 -2 -34l237 -240 q10 -9 10 -25t-10 -28l-129 -131q-12 -9 -28.5 -9t-28.5 9l-236 237q-6 7 -17.5 6.5t-17.5 -8.5l-235 -235q-13 -11 -30 -10.5t-30 10.5l-129 129q-9 12 -8.5 28.5z" />
<glyph unicode="&#xd8;" horiz-adv-x="1536" d="M74 664v118q0 198 88.5 354t246.5 243t359 87q95 0 188 -22l29 65q16 39 57 39h168q25 0 36.5 -15.5t2.5 -35.5l-69 -151q134 -92 208 -237.5t74 -326.5v-118q0 -200 -88.5 -356.5t-246.5 -242t-359 -85.5q-97 0 -193 22l-28 -65q-19 -39 -58 -39h-170q-24 0 -35 15.5 t-3 37.5l67 151q-129 91 -201.5 236.5t-72.5 325.5zM457 664q0 -127 51 -209l299 659q-6 0 -19.5 1t-19.5 1q-146 0 -228.5 -87.5t-82.5 -246.5v-118zM725 332q14 -2 43 -2q146 0 228.5 86.5t82.5 247.5v118q0 128 -57 213z" />
<glyph unicode="&#xd9;" horiz-adv-x="1456" d="M113 573v834q0 15 12 27t29 12h299q17 0 28 -11.5t11 -27.5v-834q0 -111 63.5 -177t171.5 -66q110 0 174 66t64 177v834q0 15 12 27t27 12h301q15 0 26.5 -12t11.5 -27v-834q0 -171 -80 -307t-220.5 -211t-315.5 -75q-174 0 -314.5 75t-220 211t-79.5 307zM460.5 1757 q0.5 23 20.5 35l183 98q17 9 37 8t32 -12l250 -217q15 -12 13 -32.5t-19 -30.5l-123 -68q-13 -6 -33 -5.5t-33 9.5l-309 182q-19 10 -18.5 33z" />
<glyph unicode="&#xda;" horiz-adv-x="1456" d="M113 573v834q0 15 12 27t29 12h299q17 0 28 -11.5t11 -27.5v-834q0 -111 63.5 -177t171.5 -66q110 0 174 66t64 177v834q0 15 12 27t27 12h301q15 0 26.5 -12t11.5 -27v-834q0 -171 -80 -307t-220.5 -211t-315.5 -75q-174 0 -314.5 75t-220 211t-79.5 307zM460.5 1636.5 q-1.5 20.5 12.5 32.5l250 217q12 11 32.5 12t37.5 -8l182 -98q20 -12 20.5 -35t-18.5 -33l-309 -182q-12 -9 -32.5 -9.5t-33.5 5.5l-123 68q-17 10 -18.5 30.5z" />
<glyph unicode="&#xdb;" horiz-adv-x="1456" d="M113 573v834q0 15 12 27t29 12h299q17 0 28 -11.5t11 -27.5v-834q0 -111 63.5 -177t171.5 -66q110 0 174 66t64 177v834q0 15 12 27t27 12h301q15 0 26.5 -12t11.5 -27v-834q0 -171 -80 -307t-220.5 -211t-315.5 -75q-174 0 -314.5 75t-220 211t-79.5 307zM392.5 1637.5 q-1.5 20.5 15.5 31.5l301 215q9 6 18 6t18 -6l302 -215q17 -11 15 -31.5t-18 -29.5l-102 -60q-15 -12 -39 0l-164 90q-4 2 -12 2t-12 -2l-164 -90q-24 -12 -39 0l-102 60q-16 9 -17.5 29.5z" />
<glyph unicode="&#xdc;" horiz-adv-x="1456" d="M113 573v834q0 15 12 27t29 12h299q17 0 28 -11.5t11 -27.5v-834q0 -111 63.5 -177t171.5 -66q110 0 174 66t64 177v834q0 15 12 27t27 12h301q15 0 26.5 -12t11.5 -27v-834q0 -171 -80 -307t-220.5 -211t-315.5 -75q-174 0 -314.5 75t-220 211t-79.5 307zM377 1714 q0 62 43 106t104 44q62 0 106 -44t44 -106q0 -61 -44 -105t-106 -44q-61 0 -104 43.5t-43 105.5zM782 1714q0 62 43.5 106t106.5 44q61 0 104 -44t43 -106t-43 -105.5t-104 -43.5q-63 0 -106.5 43.5t-43.5 105.5z" />
<glyph unicode="&#xdd;" horiz-adv-x="1445" d="M6 1395q-9 18 0.5 34.5t32.5 16.5h334q31 0 45 -27l291 -561q5 -8 14 -8h2q7 0 12 8l291 561q14 27 45 27h336q22 0 31.5 -16t-0.5 -35l-518 -932q-11 -19 -11 -41v-369q0 -23 -15 -38t-38 -15h-270q-23 0 -38 15t-15 38v369q0 22 -11 41zM454.5 1636.5 q-1.5 20.5 12.5 32.5l250 217q12 11 32 12t37 -8l183 -98q20 -12 20.5 -35t-18.5 -33l-309 -182q-12 -9 -32.5 -9.5t-33.5 5.5l-123 68q-17 10 -18.5 30.5z" />
<glyph unicode="&#xde;" horiz-adv-x="1269" d="M123 39v1368q0 17 11 28t28 11h297q18 0 28.5 -10.5t10.5 -28.5v-156q0 -11 8 -18.5t18 -7.5h301q83 0 161.5 -38.5t136.5 -102t93 -151t35 -179.5v-15q0 -204 -126.5 -344.5t-327.5 -140.5h-273q-9 0 -17.5 -7t-8.5 -16v-192q0 -18 -10.5 -28.5t-28.5 -10.5h-297 q-17 0 -28 11t-11 28zM498 588q0 -11 8 -19t18 -8h158q65 0 104 42t39 114v14q0 70 -38 111t-103 41h-160q-9 0 -17.5 -7.5t-8.5 -17.5v-270z" />
<glyph unicode="&#xdf;" horiz-adv-x="1212" d="M90 39v973q0 172 138.5 288.5t344.5 116.5h39q110 0 202.5 -33t151.5 -88.5t91.5 -124.5t32.5 -143v-16q0 -117 -95 -219q-7 -7 -7 -17t7 -16q76 -53 119 -134.5t43 -176.5v-15q0 -128 -62.5 -228.5t-165 -153t-224.5 -52.5h-115q-16 0 -27.5 11t-11.5 28v213 q0 18 11.5 28.5t27.5 10.5h31q61 0 96 40.5t35 98.5v16q0 125 -123 125h-39q-16 0 -27.5 10.5t-11.5 28.5v187q0 17 11.5 28t27.5 11h10q52 0 80.5 32.5t28.5 85.5v15q0 52 -31 88.5t-80 36.5h-16q-46 0 -79.5 -36t-33.5 -93v-926q0 -16 -11 -27.5t-28 -11.5h-301 q-17 0 -28 11.5t-11 27.5z" />
<glyph unicode="&#xe0;" d="M55 453v104q0 110 34 201t90 149.5t127 90.5t147 32q75 0 124 -20t113 -66q18 -11 27 2l28 41q15 27 46 27h241q16 0 27.5 -11t11.5 -28v-936q0 -15 -12 -27t-27 -12h-299q-17 0 -29 12t-12 27v10q0 10 -8 14t-20 -4q-57 -39 -107 -57t-113 -18q-173 0 -281 131t-108 338 zM331.5 1325q0.5 23 20.5 35l183 98q17 9 37 8t32 -12l250 -217q15 -12 13 -32.5t-19 -30.5l-123 -68q-13 -6 -33 -5.5t-33 9.5l-309 182q-19 10 -18.5 33zM422 463q0 -82 38.5 -125t110.5 -43q27 0 52 5.5t47 24t22 46.5v266q0 42 -35.5 60t-85.5 18q-72 0 -110.5 -42.5 t-38.5 -125.5v-84z" />
<glyph unicode="&#xe1;" d="M55 453v104q0 110 34 201t90 149.5t127 90.5t147 32q75 0 124 -20t113 -66q18 -11 27 2l28 41q15 27 46 27h241q16 0 27.5 -11t11.5 -28v-936q0 -15 -12 -27t-27 -12h-299q-17 0 -29 12t-12 27v10q0 10 -8 14t-20 -4q-57 -39 -107 -57t-113 -18q-173 0 -281 131t-108 338 zM356.5 1204.5q-1.5 20.5 12.5 32.5l249 217q12 11 32.5 12t37.5 -8l182 -98q20 -12 20.5 -35t-18.5 -33l-309 -182q-12 -9 -32 -9.5t-33 5.5l-123 68q-17 10 -18.5 30.5zM422 463q0 -82 38.5 -125t110.5 -43q27 0 52 5.5t47 24t22 46.5v266q0 42 -35.5 60t-85.5 18 q-72 0 -110.5 -42.5t-38.5 -125.5v-84z" />
<glyph unicode="&#xe2;" d="M55 453v104q0 110 34 201t90 149.5t127 90.5t147 32q75 0 124 -20t113 -66q18 -11 27 2l28 41q15 27 46 27h241q16 0 27.5 -11t11.5 -28v-936q0 -15 -12 -27t-27 -12h-299q-17 0 -29 12t-12 27v10q0 10 -8 14t-20 -4q-57 -39 -107 -57t-113 -18q-173 0 -281 131t-108 338 zM281.5 1205.5q-1.5 20.5 15.5 31.5l301 215q9 6 18 6q10 0 19 -6l301 -215q17 -11 15.5 -31.5t-17.5 -29.5l-103 -60q-15 -12 -38 0l-164 90q-4 2 -13 2q-8 0 -12 -2l-164 -90q-24 -12 -39 0l-102 60q-16 9 -17.5 29.5zM422 463q0 -82 38.5 -125t110.5 -43q27 0 52 5.5 t47 24t22 46.5v266q0 42 -35.5 60t-85.5 18q-72 0 -110.5 -42.5t-38.5 -125.5v-84z" />
<glyph unicode="&#xe3;" d="M55 453v104q0 110 34 201t90 149.5t127 90.5t147 32q75 0 124 -20t113 -66q18 -11 27 2l28 41q15 27 46 27h241q16 0 27.5 -11t11.5 -28v-936q0 -15 -12 -27t-27 -12h-299q-17 0 -29 12t-12 27v10q0 10 -8 14t-20 -4q-57 -39 -107 -57t-113 -18q-173 0 -281 131t-108 338 zM300.5 1311q1.5 13 10.5 20q87 92 201 92q33 0 63.5 -7t41.5 -12t38 -18q4 -2 13 -6t13 -6t12 -5t13 -4.5t12.5 -3.5t14.5 -2.5t15 -0.5q46 0 100 35q10 7 26 3.5t23 -16.5l70 -110q6 -10 4.5 -24t-10.5 -21q-36 -40 -91 -70.5t-122 -30.5q-33 0 -62.5 6.5t-42 12 t-39.5 18.5q-56 29 -92 29q-46 0 -90 -27q-10 -6 -25 -2t-22 17l-70 110q-6 10 -4.5 23zM422 463q0 -82 38.5 -125t110.5 -43q27 0 52 5.5t47 24t22 46.5v266q0 42 -35.5 60t-85.5 18q-72 0 -110.5 -42.5t-38.5 -125.5v-84z" />
<glyph unicode="&#xe4;" d="M55 453v104q0 110 34 201t90 149.5t127 90.5t147 32q75 0 124 -20t113 -66q18 -11 27 2l28 41q15 27 46 27h241q16 0 27.5 -11t11.5 -28v-936q0 -15 -12 -27t-27 -12h-299q-17 0 -29 12t-12 27v10q0 10 -8 14t-20 -4q-57 -39 -107 -57t-113 -18q-173 0 -281 131t-108 338 zM283 1282q0 62 43 106t104 44q62 0 106 -44t44 -106q0 -61 -44 -105t-106 -44q-61 0 -104 43.5t-43 105.5zM422 463q0 -82 38.5 -125t110.5 -43q27 0 52 5.5t47 24t22 46.5v266q0 42 -35.5 60t-85.5 18q-72 0 -110.5 -42.5t-38.5 -125.5v-84zM688 1282q0 62 43.5 106 t106.5 44q61 0 104 -44t43 -106t-43 -105.5t-104 -43.5q-63 0 -106.5 43.5t-43.5 105.5z" />
<glyph unicode="&#xe5;" d="M55 453v104q0 110 34 201t90 149.5t127 90.5t147 32q75 0 124 -20t113 -66q18 -11 27 2l28 41q15 27 46 27h241q16 0 27.5 -11t11.5 -28v-936q0 -15 -12 -27t-27 -12h-299q-17 0 -29 12t-12 27v10q0 10 -8 14t-20 -4q-57 -39 -107 -57t-113 -18q-173 0 -281 131t-108 338 zM422 463q0 -82 38.5 -125t110.5 -43q27 0 52 5.5t47 24t22 46.5v266q0 42 -35.5 60t-85.5 18q-72 0 -110.5 -42.5t-38.5 -125.5v-84zM451 1282q0 83 58 138t144 55q88 0 145.5 -55t57.5 -138t-58 -139t-145 -56q-86 0 -144 56t-58 139zM573 1282q0 -40 21 -61t59 -21t59 21 t21 61q0 38 -21 60t-59 22t-59 -22t-21 -60z" />
<glyph unicode="&#xe6;" horiz-adv-x="1693" d="M63 307v8q0 82 33 143t92 95.5t131.5 51t159.5 16.5h127q27 0 27 26v8q0 25 -29 43.5t-74 18.5q-109 0 -202 -70q-12 -9 -28.5 -7.5t-25.5 13.5l-145 189q-10 14 -9 29t13 26q79 64 194 101.5t230 37.5q163 0 279 -61l2 2q20 -13 39 0l2 -2q117 65 262 65 q214 0 355.5 -134.5t141.5 -344.5v-133q0 -17 -12 -29t-29 -12h-546q-11 0 -18 -9t-1 -22q14 -31 55 -52t93 -21q42 0 71.5 14.5t61.5 44.5q7 9 23 10.5t26 -6.5l215 -153q17 -12 18.5 -30.5t-12.5 -33.5q-156 -156 -395 -156q-87 0 -170 25v-2q-14 4 -41 4h-4h-246 q-30 0 -43 23l-25 38q-5 8 -12.5 9.5t-15.5 -4.5q-58 -49 -111 -65.5t-127 -16.5q-151 0 -240.5 89.5t-89.5 233.5zM432 338q0 -43 76 -43q52 0 88.5 16t36.5 49v5q0 8 -8 15t-19 7h-67q-107 0 -107 -43v-6zM1020 647q-3 -11 4.5 -18.5t17.5 -7.5h195q10 0 18 7.5t5 20.5 q-24 82 -115 82q-99 0 -125 -84z" />
<glyph unicode="&#xe7;" horiz-adv-x="905" d="M55 451v112q0 131 70.5 240.5t192.5 173t266 63.5q146 0 280 -73q16 -9 19.5 -26t-4.5 -30l-119 -198q-8 -12 -22.5 -16.5t-28.5 1.5q-69 25 -125 25q-70 0 -114 -44.5t-44 -117.5v-106q0 -72 44.5 -118t113.5 -46q50 0 121 26q13 5 29.5 1t23.5 -17l112 -201 q9 -13 5 -30t-17 -23q-114 -66 -237 -72l-17 -30q-7 -12 -3.5 -22.5t15.5 -12.5q95 -12 147 -62.5t52 -128.5v-24q0 -96 -81.5 -155.5t-209.5 -59.5q-72 0 -157 37q-14 8 -20.5 23t-0.5 30l21 57q4 13 22 20t33 1q44 -17 92 -17q59 0 90 20.5t31 47.5v18q0 24 -31 43t-90 19 q-56 0 -100 -21q-9 -5 -20 -1.5t-15 12.5l-8 10q-11 15 -2 31l102 174q-180 34 -298 164.5t-118 302.5z" />
<glyph unicode="&#xe8;" horiz-adv-x="1107" d="M55 453v108q0 209 141.5 344t358.5 135q214 0 356 -134.5t142 -344.5v-133q0 -17 -12 -29t-29 -12h-547q-11 0 -18 -9t-1 -22q14 -31 55 -52t93 -21q42 0 71.5 14.5t61.5 44.5q7 9 23 10.5t26 -6.5l215 -153q17 -12 18.5 -30.5t-12.5 -33.5q-156 -156 -395 -156 q-150 0 -276 63.5t-198.5 174t-72.5 242.5zM321.5 1325q0.5 23 20.5 35l182 98q17 9 37.5 8t32.5 -12l250 -217q15 -12 13 -32.5t-19 -30.5l-123 -68q-13 -6 -33 -5.5t-33 9.5l-309 182q-19 10 -18.5 33zM434 647q-3 -11 5 -18.5t18 -7.5h194q10 0 18 7.5t5 20.5 q-24 82 -115 82q-99 0 -125 -84z" />
<glyph unicode="&#xe9;" horiz-adv-x="1107" d="M55 453v108q0 209 141.5 344t358.5 135q214 0 356 -134.5t142 -344.5v-133q0 -17 -12 -29t-29 -12h-547q-11 0 -18 -9t-1 -22q14 -31 55 -52t93 -21q42 0 71.5 14.5t61.5 44.5q7 9 23 10.5t26 -6.5l215 -153q17 -12 18.5 -30.5t-12.5 -33.5q-156 -156 -395 -156 q-150 0 -276 63.5t-198.5 174t-72.5 242.5zM307 1204.5q-2 20.5 12 32.5l250 217q12 11 32.5 12t37.5 -8l182 -98q20 -12 20.5 -35t-18.5 -33l-309 -182q-12 -9 -32 -9.5t-33 5.5l-123 68q-17 10 -19 30.5zM434 647q-3 -11 5 -18.5t18 -7.5h194q10 0 18 7.5t5 20.5 q-24 82 -115 82q-99 0 -125 -84z" />
<glyph unicode="&#xea;" horiz-adv-x="1107" d="M55 453v108q0 209 141.5 344t358.5 135q214 0 356 -134.5t142 -344.5v-133q0 -17 -12 -29t-29 -12h-547q-11 0 -18 -9t-1 -22q14 -31 55 -52t93 -21q42 0 71.5 14.5t61.5 44.5q7 9 23 10.5t26 -6.5l215 -153q17 -12 18.5 -30.5t-12.5 -33.5q-156 -156 -395 -156 q-150 0 -276 63.5t-198.5 174t-72.5 242.5zM246.5 1205.5q-1.5 20.5 15.5 31.5l301 215q9 6 19 6q9 0 18 -6l301 -215q17 -11 15.5 -31.5t-17.5 -29.5l-102 -60q-15 -12 -39 0l-164 90q-4 2 -12 2q-9 0 -13 -2l-163 -90q-24 -12 -39 0l-103 60q-16 9 -17.5 29.5zM434 647 q-3 -11 5 -18.5t18 -7.5h194q10 0 18 7.5t5 20.5q-24 82 -115 82q-99 0 -125 -84z" />
<glyph unicode="&#xeb;" horiz-adv-x="1107" d="M55 453v108q0 209 141.5 344t358.5 135q214 0 356 -134.5t142 -344.5v-133q0 -17 -12 -29t-29 -12h-547q-11 0 -18 -9t-1 -22q14 -31 55 -52t93 -21q42 0 71.5 14.5t61.5 44.5q7 9 23 10.5t26 -6.5l215 -153q17 -12 18.5 -30.5t-12.5 -33.5q-156 -156 -395 -156 q-150 0 -276 63.5t-198.5 174t-72.5 242.5zM221 1282q0 62 43.5 106t104.5 44t105 -44t44 -106t-44 -105.5t-105 -43.5t-104.5 43.5t-43.5 105.5zM434 647q-3 -11 5 -18.5t18 -7.5h194q10 0 18 7.5t5 20.5q-24 82 -115 82q-99 0 -125 -84zM627 1282q0 62 43 106t106 44 q61 0 104.5 -44t43.5 -106t-43.5 -105.5t-104.5 -43.5q-63 0 -106 43.5t-43 105.5z" />
<glyph unicode="&#xec;" horiz-adv-x="557" d="M10.5 1325q0.5 23 20.5 35l182 98q17 9 37.5 8t32.5 -12l249 -217q15 -12 13 -32.5t-19 -30.5l-123 -68q-13 -6 -32.5 -5.5t-32.5 9.5l-309 182q-19 10 -18.5 33zM90 39v936q0 17 11.5 28t27.5 11h297q19 0 31 -11t12 -28v-936q0 -15 -12 -27t-29 -12h-299q-15 0 -27 12 t-12 27z" />
<glyph unicode="&#xed;" horiz-adv-x="557" d="M10.5 1204.5q-1.5 20.5 12.5 32.5l249 217q12 11 32.5 12t37.5 -8l182 -98q20 -12 20.5 -35t-18.5 -33l-309 -182q-12 -9 -32 -9.5t-33 5.5l-123 68q-17 10 -18.5 30.5zM90 39v936q0 17 11.5 28t27.5 11h297q19 0 31 -11t12 -28v-936q0 -15 -12 -27t-29 -12h-299 q-15 0 -27 12t-12 27z" />
<glyph unicode="&#xee;" horiz-adv-x="557" d="M-56.5 1205.5q-1.5 20.5 15.5 31.5l301 215q9 6 19 6q9 0 18 -6l301 -215q17 -11 15.5 -31.5t-17.5 -29.5l-102 -60q-15 -12 -39 0l-164 90q-4 2 -12 2q-9 0 -13 -2l-164 -90q-24 -12 -39 0l-102 60q-16 9 -17.5 29.5zM90 39v936q0 17 11.5 28t27.5 11h297q19 0 31 -11 t12 -28v-936q0 -15 -12 -27t-29 -12h-299q-15 0 -27 12t-12 27z" />
<glyph unicode="&#xef;" horiz-adv-x="557" d="M-74 1282q0 62 43.5 106t104.5 44t105 -44t44 -106t-43.5 -105.5t-105.5 -43.5q-61 0 -104.5 43.5t-43.5 105.5zM90 39v936q0 17 11.5 28t27.5 11h297q19 0 31 -11t12 -28v-936q0 -15 -12 -27t-29 -12h-299q-15 0 -27 12t-12 27zM332 1282q0 62 43 106t106 44 q61 0 104.5 -44t43.5 -106t-43.5 -105.5t-104.5 -43.5q-63 0 -106 43.5t-43 105.5z" />
<glyph unicode="&#xf0;" horiz-adv-x="1165" d="M57 453v112q0 110 36.5 202t96.5 151t135 91.5t154 32.5q120 0 197 -38q6 -5 12 0.5t2 11.5q-22 45 -69 96q-13 17 -35 6l-80 -39q-18 -7 -33.5 -1t-21.5 20l-39 84q-7 15 -1 31t21 24l8 4q8 3 8 10.5t-8 12.5q-9 6 -28.5 13t-22.5 9q-17 8 -21 27.5t9 34.5l139 182 q10 12 27 15t30 -3q117 -65 191 -127q18 -15 43 -4l57 27q20 9 37 3.5t25 -20.5l39 -84q6 -14 0.5 -27.5t-19.5 -21.5l-18 -8q-10 -4 -11.5 -14t5.5 -17q186 -266 186 -686v-110q0 -202 -152.5 -341t-373.5 -139q-108 0 -205.5 37.5t-167.5 101t-111 153t-41 188.5zM426 451 q0 -73 43.5 -119.5t112.5 -46.5q70 0 113.5 46t43.5 120v114q0 74 -43.5 120t-113.5 46q-69 0 -112.5 -46.5t-43.5 -119.5v-114z" />
<glyph unicode="&#xf1;" horiz-adv-x="1134" d="M90 39v936q0 17 12 28t29 11h246q22 0 37 -21l28 -41q12 -16 31 -4q100 82 229 82q163 0 257 -106.5t94 -290.5v-594q0 -15 -12.5 -27t-30.5 -12h-297q-15 0 -27 12t-12 27v575q0 88 -105 88q-46 0 -74 -23.5t-28 -62.5v-577q0 -15 -12 -27t-27 -12h-297q-17 0 -29 12 t-12 27zM249.5 1311q1.5 13 10.5 20q87 92 201 92q33 0 63.5 -7t41.5 -12t38 -18q4 -2 14.5 -7t15 -7t14 -5.5t15.5 -4.5l15 -2.5t18 -1.5q47 0 101 35q10 7 26 3.5t23 -16.5l69 -110q6 -10 4.5 -24t-10.5 -21q-36 -40 -91 -70.5t-122 -30.5q-33 0 -62.5 6.5t-41 11.5 t-39.5 19q-56 29 -92 29q-46 0 -90 -27q-10 -6 -25 -2t-22 17l-70 110q-6 10 -4.5 23z" />
<glyph unicode="&#xf2;" horiz-adv-x="1163" d="M55 451v112q0 132 69.5 241.5t191 172.5t266.5 63q144 0 265 -63t191 -172.5t70 -241.5v-112q0 -133 -70 -243t-190.5 -172.5t-265.5 -62.5t-266 62.5t-191 172.5t-70 243zM313.5 1325q0.5 23 20.5 35l182 98q17 9 37.5 8t32.5 -12l250 -217q15 -12 12.5 -32t-19.5 -31 l-122 -68q-13 -6 -33 -5.5t-33 9.5l-309 182q-19 10 -18.5 33zM424 451q0 -74 44 -121t114 -47q69 0 113 47t44 121v112q0 74 -44 121t-113 47q-70 0 -114 -47t-44 -121v-112z" />
<glyph unicode="&#xf3;" horiz-adv-x="1163" d="M55 451v112q0 132 69.5 241.5t191 172.5t266.5 63q144 0 265 -63t191 -172.5t70 -241.5v-112q0 -133 -70 -243t-190.5 -172.5t-265.5 -62.5t-266 62.5t-191 172.5t-70 243zM313.5 1204.5q-1.5 20.5 12.5 32.5l249 217q12 11 32.5 12t37.5 -8l182 -98q20 -12 20.5 -35 t-18.5 -33l-309 -182q-12 -9 -32 -9.5t-33 5.5l-123 68q-17 10 -18.5 30.5zM424 451q0 -74 44 -121t114 -47q69 0 113 47t44 121v112q0 74 -44 121t-113 47q-70 0 -114 -47t-44 -121v-112z" />
<glyph unicode="&#xf4;" horiz-adv-x="1163" d="M55 451v112q0 132 69.5 241.5t191 172.5t266.5 63q144 0 265 -63t191 -172.5t70 -241.5v-112q0 -133 -70 -243t-190.5 -172.5t-265.5 -62.5t-266 62.5t-191 172.5t-70 243zM246.5 1205.5q-1.5 20.5 15.5 31.5l301 215q9 6 19 6q9 0 18 -6l301 -215q17 -11 15.5 -31.5 t-17.5 -29.5l-102 -60q-15 -12 -39 0l-164 90q-4 2 -12 2q-9 0 -13 -2l-163 -90q-24 -12 -39 0l-103 60q-16 9 -17.5 29.5zM424 451q0 -74 44 -121t114 -47q69 0 113 47t44 121v112q0 74 -44 121t-113 47q-70 0 -114 -47t-44 -121v-112z" />
<glyph unicode="&#xf5;" horiz-adv-x="1163" d="M55 451v112q0 132 69.5 241.5t191 172.5t266.5 63q144 0 265 -63t191 -172.5t70 -241.5v-112q0 -133 -70 -243t-190.5 -172.5t-265.5 -62.5t-266 62.5t-191 172.5t-70 243zM245.5 1311q1.5 13 10.5 20q87 92 201 92q33 0 63.5 -7t41.5 -12t38 -18q4 -2 14.5 -7t15 -7 t14 -5.5t15.5 -4.5l15 -2.5t18 -1.5q47 0 101 35q10 7 26 3.5t23 -16.5l69 -110q6 -10 4.5 -24t-10.5 -21q-36 -40 -91 -70.5t-122 -30.5q-33 0 -62.5 6.5t-41 11.5t-39.5 19q-56 29 -92 29q-46 0 -90 -27q-10 -6 -25.5 -2t-22.5 17l-69 110q-6 10 -4.5 23zM424 451 q0 -74 44 -121t114 -47q69 0 113 47t44 121v112q0 74 -44 121t-113 47q-70 0 -114 -47t-44 -121v-112z" />
<glyph unicode="&#xf6;" horiz-adv-x="1163" d="M55 451v112q0 132 69.5 241.5t191 172.5t266.5 63q144 0 265 -63t191 -172.5t70 -241.5v-112q0 -133 -70 -243t-190.5 -172.5t-265.5 -62.5t-266 62.5t-191 172.5t-70 243zM229 1282q0 62 43.5 106t104.5 44t105 -44t44 -106t-44 -105.5t-105 -43.5t-104.5 43.5 t-43.5 105.5zM424 451q0 -74 44 -121t114 -47q69 0 113 47t44 121v112q0 74 -44 121t-113 47q-70 0 -114 -47t-44 -121v-112zM635 1282q0 62 43 106t106 44q61 0 104.5 -44t43.5 -106t-43.5 -105.5t-104.5 -43.5q-63 0 -106 43.5t-43 105.5z" />
<glyph unicode="&#xf7;" horiz-adv-x="1173" d="M102 633v182q0 15 12 27t29 12h889q15 0 27 -12t12 -27v-184q0 -15 -12 -27t-27 -12h-889q-17 0 -29 12.5t-12 28.5zM440 403q0 61 43 104.5t105 43.5q61 0 104 -43t43 -105q0 -61 -42.5 -104t-104.5 -43t-105 43t-43 104zM440 1040q0 62 43 105t105 43q61 0 104 -43 t43 -105t-42.5 -104.5t-104.5 -42.5t-105 43t-43 104z" />
<glyph unicode="&#xf8;" horiz-adv-x="1163" d="M55 451v112q0 132 69.5 241.5t191 172.5t266.5 63q34 0 100 -8l20 45q16 39 58 39h170q24 0 34.5 -15t4.5 -36l-58 -129q92 -66 144.5 -163t52.5 -210v-112q0 -133 -70 -243t-190.5 -172.5t-265.5 -62.5q-27 0 -101 9l-20 -45q-16 -39 -58 -39h-170q-25 0 -36 15.5 t-2 37.5l55 125q-91 66 -143 163t-52 212zM424 451q0 -74 44 -121t114 -47q69 0 113 47t44 121v112q0 74 -44 121t-113 47q-70 0 -114 -47t-44 -121v-112z" />
<glyph unicode="&#xf9;" horiz-adv-x="1128" d="M82 387v588q0 17 11.5 28t27.5 11h301q17 0 28 -11t11 -28v-578q0 -88 104 -88q97 0 97 84v582q0 17 11.5 28t26.5 11h297q19 0 31 -11t12 -28v-936q0 -15 -12.5 -27t-30.5 -12h-243q-22 0 -39 20l-31 41q-12 15 -25 2q-93 -81 -229 -81q-160 0 -254 108.5t-94 296.5z M301 1325q1 23 21 35l182 98q17 9 37 8t32 -12l250 -217q15 -12 13 -32.5t-19 -30.5l-123 -68q-13 -6 -32.5 -5.5t-32.5 9.5l-310 182q-19 10 -18 33z" />
<glyph unicode="&#xfa;" horiz-adv-x="1128" d="M82 387v588q0 17 11.5 28t27.5 11h301q17 0 28 -11t11 -28v-578q0 -88 104 -88q97 0 97 84v582q0 17 11.5 28t26.5 11h297q19 0 31 -11t12 -28v-936q0 -15 -12.5 -27t-30.5 -12h-243q-22 0 -39 20l-31 41q-12 15 -25 2q-93 -81 -229 -81q-160 0 -254 108.5t-94 296.5z M303 1204.5q-2 20.5 12 32.5l250 217q12 11 32.5 12t37.5 -8l182 -98q20 -12 20.5 -35t-18.5 -33l-309 -182q-12 -9 -32.5 -9.5t-33.5 5.5l-122 68q-17 10 -19 30.5z" />
<glyph unicode="&#xfb;" horiz-adv-x="1128" d="M82 387v588q0 17 11.5 28t27.5 11h301q17 0 28 -11t11 -28v-578q0 -88 104 -88q97 0 97 84v582q0 17 11.5 28t26.5 11h297q19 0 31 -11t12 -28v-936q0 -15 -12.5 -27t-30.5 -12h-243q-22 0 -39 20l-31 41q-12 15 -25 2q-93 -81 -229 -81q-160 0 -254 108.5t-94 296.5z M232.5 1205.5q-1.5 20.5 15.5 31.5l301 215q9 6 18 6q10 0 19 -6l301 -215q17 -11 15.5 -31.5t-17.5 -29.5l-103 -60q-15 -12 -39 0l-163 90q-4 2 -13 2q-8 0 -12 -2l-164 -90q-24 -12 -39 0l-102 60q-16 9 -17.5 29.5z" />
<glyph unicode="&#xfc;" horiz-adv-x="1128" d="M82 387v588q0 17 11.5 28t27.5 11h301q17 0 28 -11t11 -28v-578q0 -88 104 -88q97 0 97 84v582q0 17 11.5 28t26.5 11h297q19 0 31 -11t12 -28v-936q0 -15 -12.5 -27t-30.5 -12h-243q-22 0 -39 20l-31 41q-12 15 -25 2q-93 -81 -229 -81q-160 0 -254 108.5t-94 296.5z M219 1282q0 62 43.5 106t104.5 44t105 -44t44 -106t-44 -105.5t-105 -43.5t-104.5 43.5t-43.5 105.5zM625 1282q0 62 43 106t106 44q61 0 104.5 -44t43.5 -106t-43.5 -105.5t-104.5 -43.5q-63 0 -106 43.5t-43 105.5z" />
<glyph unicode="&#xfd;" horiz-adv-x="1179" d="M25 963q-7 16 2.5 33.5t29.5 17.5h289q35 0 49 -33l193 -479q3 -10 16 -10q11 0 14 10l179 479q17 33 49 33h276q20 0 29.5 -14.5t3.5 -34.5l-567 -1366q-16 -33 -51 -33h-258q-20 0 -31.5 17t-3.5 34l176 434q9 22 0 41zM311.5 1204.5q-1.5 20.5 12.5 32.5l249 217 q12 11 32.5 12t37.5 -8l182 -98q20 -12 20.5 -35t-18.5 -33l-309 -182q-12 -9 -32 -9.5t-33 5.5l-123 68q-17 10 -18.5 30.5z" />
<glyph unicode="&#xfe;" d="M90 -395v1802q0 17 12 28t29 11h297q16 0 27.5 -11t11.5 -28v-420q0 -10 10 -15t19 1q92 57 194 57q74 0 147 -33.5t133 -93t97 -150.5t37 -196v-104q0 -116 -35.5 -208.5t-94.5 -147.5t-130 -84t-148 -29q-109 0 -200 57q-9 5 -19 -0.5t-10 -15.5v-420q0 -15 -12 -27 t-29 -12h-297q-15 0 -27 12t-12 27zM467 371q0 -40 36 -58t85 -18q72 0 110.5 43t38.5 125v84q0 83 -38.5 125.5t-110.5 42.5q-29 0 -53 -5t-46 -23.5t-22 -49.5v-266z" />
<glyph unicode="&#xff;" horiz-adv-x="1179" d="M25 963q-7 16 2.5 33.5t29.5 17.5h289q35 0 49 -33l193 -479q3 -10 16 -10q11 0 14 10l179 479q17 33 49 33h276q20 0 29.5 -14.5t3.5 -34.5l-567 -1366q-16 -33 -51 -33h-258q-20 0 -31.5 17t-3.5 34l176 434q9 22 0 41zM227 1282q0 62 43.5 106t104.5 44t105 -44 t44 -106t-44 -105.5t-105 -43.5t-104.5 43.5t-43.5 105.5zM633 1282q0 62 43 106t106 44q61 0 104.5 -44t43.5 -106t-43.5 -105.5t-104.5 -43.5q-63 0 -106 43.5t-43 105.5z" />
<glyph unicode="&#x152;" horiz-adv-x="2179" d="M74 664v118q0 198 88.5 354t246.5 243t359 87q139 0 276 -45q11 -7 21.5 -2.5t13.5 15.5v-21q2 13 13.5 23t25.5 10h938q17 0 29 -12t12 -27v-264q0 -15 -12 -26t-29 -11h-575q-9 0 -16 -8t-7 -17v-186q0 -9 7 -16t16 -7h422q17 0 29 -12t12 -29v-229q0 -15 -12 -27 t-29 -12h-422q-9 0 -16 -8t-7 -18v-172q0 -9 7 -16t16 -7h575q17 0 29 -12t12 -27v-264q0 -15 -12 -27t-29 -12h-938q-15 0 -26 9.5t-13 23.5v-21q-3 10 -13.5 14t-21.5 -1q-147 -45 -276 -45q-201 0 -359 85.5t-246.5 242t-88.5 356.5zM457 664q0 -161 82.5 -247.5 t228.5 -86.5t228.5 86.5t82.5 247.5v118q0 159 -82.5 246.5t-228.5 87.5t-228.5 -87.5t-82.5 -246.5v-118z" />
<glyph unicode="&#x153;" horiz-adv-x="1789" d="M55 451v112q0 132 69.5 241.5t191 172.5t266.5 63q172 0 311 -90q20 -12 41 0q129 90 303 90q214 0 356 -134.5t142 -344.5v-133q0 -17 -12 -29t-29 -12h-547q-11 0 -18 -9t-1 -22q14 -31 55 -52t93 -21q42 0 71.5 14.5t61.5 44.5q7 9 23 10.5t26 -6.5l215 -153 q17 -12 18.5 -30.5t-12.5 -33.5q-156 -156 -395 -156q-191 0 -336 99q-21 12 -41 0h-2q-143 -99 -323 -99q-145 0 -266 62.5t-191 172.5t-70 243zM424 451q0 -74 44 -121t114 -47q63 0 105 39t50 104v27v108v27q-8 65 -50 104t-105 39q-70 0 -114 -47t-44 -121v-112z M1116 647q-3 -11 5 -18.5t18 -7.5h194q10 0 18 7.5t5 20.5q-24 82 -115 82q-99 0 -125 -84z" />
<glyph unicode="&#x178;" horiz-adv-x="1445" d="M6 1395q-9 18 0.5 34.5t32.5 16.5h334q31 0 45 -27l291 -561q5 -8 14 -8h2q7 0 12 8l291 561q14 27 45 27h336q22 0 31.5 -16t-0.5 -35l-518 -932q-11 -19 -11 -41v-369q0 -23 -15 -38t-38 -15h-270q-23 0 -38 15t-15 38v369q0 22 -11 41zM371 1714q0 62 43 106t104 44 q62 0 106 -44t44 -106q0 -61 -44 -105t-106 -44q-61 0 -104 43.5t-43 105.5zM776 1714q0 62 43.5 106t106.5 44q61 0 104 -44t43 -106t-43 -105.5t-104 -43.5q-63 0 -106.5 43.5t-43.5 105.5z" />
<glyph unicode="&#x2c6;" horiz-adv-x="819" d="M74.5 1205.5q-1.5 20.5 15.5 31.5l301 215q9 6 19 6q9 0 18 -6l301 -215q17 -11 15.5 -31.5t-17.5 -29.5l-102 -60q-15 -12 -39 0l-164 90q-4 2 -12 2q-9 0 -13 -2l-164 -90q-23 -12 -38 0l-103 60q-16 9 -17.5 29.5z" />
<glyph unicode="&#x2dc;" horiz-adv-x="819" d="M75.5 1311q1.5 13 10.5 20q87 92 201 92q33 0 63.5 -7t41.5 -12t38 -18q4 -2 14.5 -7t15 -7t14 -5.5t15.5 -4.5l15 -2.5t18 -1.5q47 0 101 35q10 7 26 3.5t23 -16.5l69 -110q6 -10 4.5 -24t-10.5 -21q-36 -40 -91 -70.5t-122 -30.5q-33 0 -62.5 6.5t-41 11.5t-39.5 19 q-56 29 -92 29q-46 0 -90 -27q-10 -6 -25 -2t-22 17l-70 110q-6 10 -4.5 23z" />
<glyph unicode="&#x2000;" horiz-adv-x="953" />
<glyph unicode="&#x2001;" horiz-adv-x="1907" />
<glyph unicode="&#x2002;" horiz-adv-x="953" />
<glyph unicode="&#x2003;" horiz-adv-x="1907" />
<glyph unicode="&#x2004;" horiz-adv-x="635" />
<glyph unicode="&#x2005;" horiz-adv-x="476" />
<glyph unicode="&#x2006;" horiz-adv-x="317" />
<glyph unicode="&#x2007;" horiz-adv-x="317" />
<glyph unicode="&#x2008;" horiz-adv-x="238" />
<glyph unicode="&#x2009;" horiz-adv-x="381" />
<glyph unicode="&#x200a;" horiz-adv-x="105" />
<glyph unicode="&#x2010;" horiz-adv-x="790" d="M86 408v198q0 15 12 27t27 12h539q17 0 29 -12t12 -27v-198q0 -15 -12 -27t-29 -12h-539q-15 0 -27 12t-12 27z" />
<glyph unicode="&#x2011;" horiz-adv-x="790" d="M86 408v198q0 15 12 27t27 12h539q17 0 29 -12t12 -27v-198q0 -15 -12 -27t-29 -12h-539q-15 0 -27 12t-12 27z" />
<glyph unicode="&#x2012;" horiz-adv-x="790" d="M86 408v198q0 15 12 27t27 12h539q17 0 29 -12t12 -27v-198q0 -15 -12 -27t-29 -12h-539q-15 0 -27 12t-12 27z" />
<glyph unicode="&#x2013;" horiz-adv-x="995" d="M86 408v198q0 15 12 27t27 12h743q17 0 29 -12t12 -27v-198q0 -15 -12 -27t-29 -12h-743q-15 0 -27 12t-12 27z" />
<glyph unicode="&#x2014;" horiz-adv-x="1642" d="M41 408v198q0 15 12 27t27 12h1481q17 0 29 -12t12 -27v-198q0 -15 -12 -27t-29 -12h-1481q-15 0 -27 12t-12 27z" />
<glyph unicode="&#x2018;" horiz-adv-x="446" d="M82 1102q0 107 67.5 214t163.5 177q26 23 64 12l24 -10q14 -5 17.5 -21t-8.5 -30q-66 -83 -66 -139q0 -58 35 -99q37 -49 37 -104q0 -67 -48.5 -116.5t-119.5 -49.5t-118.5 49.5t-47.5 116.5z" />
<glyph unicode="&#x2019;" horiz-adv-x="446" d="M79 923q-3 17 7 29q66 82 66 140q0 60 -35 98q-35 46 -35 104q0 69 47 116.5t119 47.5q71 0 118.5 -48.5t47.5 -115.5q0 -107 -67.5 -213.5t-162.5 -177.5q-14 -11 -34.5 -14t-28.5 2l-27 10q-12 5 -15 22z" />
<glyph unicode="&#x201a;" horiz-adv-x="436" d="M27.5 -204q-3.5 16 7.5 30q67 84 67 139q0 35 -7.5 55.5t-28.5 42.5q-37 53 -37 105q0 67 48.5 115.5t119.5 48.5q72 0 118.5 -48t46.5 -116q0 -107 -67 -213.5t-162 -177.5q-34 -26 -65 -13l-25 11q-12 5 -15.5 21z" />
<glyph unicode="&#x201c;" horiz-adv-x="862" d="M82 1102q0 107 67.5 214t163.5 177q26 23 64 12l24 -10q14 -5 17.5 -21t-8.5 -30q-66 -83 -66 -139q0 -58 35 -99q37 -53 37 -104q0 -67 -48.5 -116.5t-119.5 -49.5t-118.5 49.5t-47.5 116.5zM496 1102q0 107 67.5 214t163.5 177q13 12 35 14.5t29 -2.5l24 -10 q14 -5 17 -21t-9 -30q-63 -79 -63 -139t33 -99q36 -48 36 -104q0 -68 -47 -117t-118 -49t-119.5 49.5t-48.5 116.5z" />
<glyph unicode="&#x201d;" horiz-adv-x="862" d="M79 923q-3 17 7 29q66 82 66 140q0 60 -35 98q-35 50 -35 104q0 69 47 116.5t119 47.5q71 0 118.5 -48.5t47.5 -115.5q0 -107 -67.5 -213.5t-162.5 -177.5q-14 -11 -34.5 -14t-28.5 2l-27 10q-12 5 -15 22zM493 923q-3 17 9 29q63 82 63 140q0 59 -33 98q-36 44 -36 104 q0 68 48 116t118 48q72 0 119.5 -48.5t47.5 -115.5q0 -107 -68 -213.5t-163 -177.5q-14 -11 -34.5 -14t-28.5 2l-25 10q-14 5 -17 22z" />
<glyph unicode="&#x201e;" horiz-adv-x="854" d="M27.5 -204q-3.5 16 7.5 30q67 84 67 139q0 35 -7.5 55.5t-28.5 42.5q-37 53 -37 105q0 67 48.5 115.5t119.5 48.5q72 0 118.5 -48t46.5 -116q0 -107 -67 -213.5t-162 -177.5q-34 -26 -65 -13l-25 11q-12 5 -15.5 21zM442.5 -204q-3.5 16 6.5 30q67 80 67 139 q0 34 -7.5 54.5t-25.5 43.5q-39 48 -39 105q0 67 48.5 115.5t119.5 48.5t119.5 -48.5t48.5 -115.5q0 -107 -68.5 -213.5t-164.5 -177.5q-14 -12 -35 -15.5t-29 2.5l-26 11q-11 5 -14.5 21z" />
<glyph unicode="&#x2022;" horiz-adv-x="1144" d="M180 729q0 163 116 276t277 113q160 0 276 -113t116 -276q0 -161 -116 -274t-276 -113q-161 0 -277 112.5t-116 274.5z" />
<glyph unicode="&#x2026;" horiz-adv-x="1708" d="M86 184q0 83 58.5 140t140.5 57t140 -57t58 -140t-57.5 -138.5t-140.5 -55.5t-141 56t-58 138zM655 184q0 83 58.5 140t140.5 57t140.5 -57t58.5 -140q0 -82 -58 -138t-141 -56t-141 56t-58 138zM1225 184q0 83 58 140t140 57t140.5 -57t58.5 -140q0 -82 -58 -138 t-141 -56t-140.5 55.5t-57.5 138.5z" />
<glyph unicode="&#x202f;" horiz-adv-x="381" />
<glyph unicode="&#x2039;" horiz-adv-x="589" d="M82 512q0 11 6 20l227 318q10 16 29 16h145q13 0 16.5 -9t-1.5 -17l-176 -314q-4 -6 -4 -14t4 -14l176 -314q5 -8 1.5 -17t-16.5 -9h-145q-19 0 -29 16l-227 318q-6 9 -6 20z" />
<glyph unicode="&#x203a;" horiz-adv-x="589" d="M84 167q-4 9 2 17l176 314q4 6 4 14t-4 14l-176 314q-6 8 -2 17t16 9h146q18 0 28 -16l228 -318q6 -9 6 -20t-6 -20l-228 -318q-10 -16 -28 -16h-146q-12 0 -16 9z" />
<glyph unicode="&#x205f;" horiz-adv-x="476" />
<glyph unicode="&#x20ac;" horiz-adv-x="1263" d="M-16 535v81q0 16 12 28.5t29 12.5h49v5v118v15h-49q-17 0 -29 12.5t-12 28.5v84q0 15 12 26.5t29 11.5h69q54 231 234.5 369.5t431.5 138.5q254 0 440 -149q14 -11 15 -28.5t-9 -28.5l-170 -222q-11 -14 -28 -15t-31 11q-43 38 -101 60t-116 22q-96 0 -165 -41.5 t-103 -116.5h274q15 0 27 -11.5t12 -26.5v-86q0 -15 -12 -27t-27 -12h-309v-15v-118v-5h309q15 0 27 -13t12 -28v-86q0 -15 -12 -25.5t-27 -10.5h-279q71 -164 273 -164q123 0 215 80q13 12 29 11.5t26 -13.5l176 -228q11 -12 9 -29.5t-15 -27.5q-182 -143 -440 -143 t-438.5 139t-231.5 375h-65q-17 0 -29 12.5t-12 28.5z" />
<glyph unicode="&#x2122;" horiz-adv-x="1695" d="M82 1206v219q0 21 20 21h582q8 0 14.5 -6t6.5 -15v-219q0 -8 -7 -15t-14 -7h-131q-12 0 -12 -13v-516q0 -20 -21 -20h-258q-18 0 -18 20v516q0 13 -13 13h-129q-20 0 -20 22zM729 655l90 775q3 16 21 16h102q3 0 8.5 -2.5t5.5 -3.5l193 -275q4 -4 6 -4q6 2 8 4l189 275 q6 6 20 6h101q13 0 16 -16l94 -775q1 -9 -5 -14.5t-15 -5.5h-246q-16 0 -19 16l-22 240q0 6 -6 7.5t-10 -3.5l-91 -88q-7 -10 -14 -10q-9 0 -16 10l-90 88q-4 5 -10 3.5t-7 -7.5l-20 -240q-3 -16 -21 -16h-241q-8 0 -15 6t-6 14z" />
<glyph unicode="&#x25fc;" horiz-adv-x="1013" d="M0 0v1014h1014v-1014h-1014z" />
</font>
</defs>
</svg>
