<?xml version="1.0" standalone="no"?>
<!DOCTYPE svg PUBLIC "-//W3C//DTD SVG 1.1//EN" "http://www.w3.org/Graphics/SVG/1.1/DTD/svg11.dtd" >
<svg xmlns="http://www.w3.org/2000/svg" xmlns:xlink="http://www.w3.org/1999/xlink" version="1.1">
<metadata></metadata>
<defs>
<font id="brooklyn_samuelsno5_bold" horiz-adv-x="1148" >
<font-face units-per-em="2048" ascent="1556" descent="-492" />
<missing-glyph horiz-adv-x="409" />
<glyph unicode="&#xfb01;" horiz-adv-x="1165" d="M16 848v131q0 15 11 25t26 10h94q10 0 17.5 7.5t7.5 16.5v49q0 76 25.5 141.5t77.5 119.5t141 85t205 31q189 0 356 -98q12 -5 18 -19t-2 -30l-88 -158q-6 -11 -19.5 -16t-25.5 0q-117 57 -215 57q-73 0 -109 -34t-36 -93v-35q0 -9 6.5 -16.5t15.5 -7.5h508q15 0 26 -10 t11 -25v-944q0 -14 -11 -24.5t-26 -10.5h-256q-14 0 -24.5 11t-10.5 24v753q0 9 -7 16t-17 7h-193q-9 0 -15.5 -7t-6.5 -16v-753q0 -14 -11 -24.5t-26 -10.5h-256q-13 0 -24 11t-11 24v753q0 9 -7.5 16t-17.5 7h-94q-15 0 -26 11t-11 26z" />
<glyph unicode="&#xfb02;" horiz-adv-x="1189" d="M16 848v131q0 15 11 25t26 10h94q10 0 17.5 7.5t7.5 16.5v88q0 146 86.5 220.5t251.5 74.5q115 0 223 -55q9 -5 20 0.5t11 17.5v27q0 15 11 25t26 10h256q14 0 24.5 -10t10.5 -25v-1376q0 -13 -11 -24t-24 -11h-256q-15 0 -26 10.5t-11 24.5v1079q0 20 -19 31 q-43 24 -118 24q-53 0 -90 -22.5t-37 -59.5v-49q0 -9 6.5 -16.5t15.5 -7.5h133q14 0 24.5 -10t10.5 -25v-131q0 -15 -10.5 -26t-24.5 -11h-133q-9 0 -15.5 -7t-6.5 -16v-753q0 -14 -11 -24.5t-26 -10.5h-256q-13 0 -24 11t-11 24v753q0 9 -7.5 16t-17.5 7h-94q-15 0 -26 11 t-11 26z" />
<glyph unicode="&#xfb03;" horiz-adv-x="1792" d="M16 848v131q0 15 11 25t26 10h94q10 0 17.5 7.5t7.5 16.5v131q0 295 344 295q148 0 248 -51q12 -5 18.5 -19t-0.5 -28l-80 -162q-5 -11 -18 -16.5t-25 -1.5q-38 14 -75 14q-36 0 -60 -16.5t-24 -48.5v-97q0 -9 6.5 -16.5t15.5 -7.5h252q10 0 17.5 7.5t7.5 16.5v49 q0 76 25.5 141.5t77 119.5t140.5 85t205 31q190 0 357 -98q12 -5 18 -19t-2 -30l-88 -158q-6 -11 -19.5 -16t-25.5 0q-117 57 -215 57q-73 0 -109.5 -34t-36.5 -93v-35q0 -9 7 -16.5t16 -7.5h508q15 0 26 -10t11 -25v-944q0 -14 -11 -24.5t-26 -10.5h-256q-13 0 -24 11 t-11 24v753q0 9 -7.5 16t-17.5 7h-192q-9 0 -16 -7t-7 -16v-753q0 -14 -10.5 -24.5t-25.5 -10.5h-256q-14 0 -24.5 11t-10.5 24v753q0 9 -7.5 16t-17.5 7h-252q-9 0 -15.5 -7t-6.5 -16v-753q0 -14 -11 -24.5t-26 -10.5h-256q-13 0 -24 11t-11 24v753q0 9 -7.5 16t-17.5 7 h-94q-15 0 -26 11t-11 26z" />
<glyph unicode="&#xfb04;" horiz-adv-x="1816" d="M16 848v131q0 15 11 25t26 10h94q10 0 17.5 7.5t7.5 16.5v131q0 295 344 295q148 0 248 -51q12 -5 18.5 -19t-0.5 -28l-80 -162q-5 -11 -18 -16.5t-25 -1.5q-38 14 -75 14q-36 0 -60 -16.5t-24 -48.5v-97q0 -9 6.5 -16.5t15.5 -7.5h252q10 0 17.5 7.5t7.5 16.5v88 q0 146 86.5 220.5t251.5 74.5q115 0 223 -55q9 -5 20 0.5t11 17.5v27q0 15 10.5 25t25.5 10h256q14 0 24.5 -10t10.5 -25v-1376q0 -13 -11 -24t-24 -11h-256q-15 0 -25.5 10.5t-10.5 24.5v1079q0 20 -19 31q-44 24 -119 24q-53 0 -90 -22.5t-37 -59.5v-49q0 -9 7 -16.5 t16 -7.5h133q14 0 24.5 -10t10.5 -25v-131q0 -15 -10.5 -26t-24.5 -11h-133q-9 0 -16 -7t-7 -16v-753q0 -14 -10.5 -24.5t-25.5 -10.5h-256q-14 0 -24.5 11t-10.5 24v753q0 9 -7.5 16t-17.5 7h-252q-9 0 -15.5 -7t-6.5 -16v-753q0 -14 -11 -24.5t-26 -10.5h-256 q-13 0 -24 11t-11 24v753q0 9 -7.5 16t-17.5 7h-94q-15 0 -26 11t-11 26z" />
<glyph horiz-adv-x="0" />
<glyph horiz-adv-x="682" />
<glyph unicode=" "  horiz-adv-x="409" />
<glyph unicode="&#x09;" horiz-adv-x="409" />
<glyph unicode="&#xa0;" horiz-adv-x="409" />
<glyph unicode="!" horiz-adv-x="626" d="M137 164q0 73 51.5 123.5t124.5 50.5t124.5 -50.5t51.5 -123.5t-51.5 -123.5t-124.5 -50.5t-124.5 50.5t-51.5 123.5zM150 1411q0 14 9.5 24.5t24.5 10.5h256q14 0 24.5 -10t10.5 -25l-2 -911q0 -14 -11 -24.5t-26 -10.5h-248q-15 0 -25.5 10.5t-10.5 24.5z" />
<glyph unicode="&#x22;" horiz-adv-x="804" d="M61 1309q0 65 44.5 106t107.5 41t106 -41t43 -106q0 -24 -22 -97l-86 -251q-9 -27 -35 -27h-14q-23 0 -35 27l-84 251q-2 6 -8.5 24t-9 25.5t-5 21.5t-2.5 26zM444 1309q0 65 43.5 106t106.5 41t106 -41t43 -106q0 -24 -22 -97l-84 -251q-12 -27 -35 -27h-14 q-26 0 -35 27l-86 251q-23 67 -23 97z" />
<glyph unicode="#" horiz-adv-x="1275" d="M102 365v157q0 14 11 24.5t26 10.5h125q9 0 17 7t8 16v288q0 7 -8.5 13t-16.5 6h-125q-15 0 -26 11.5t-11 25.5v157q0 14 11 24.5t26 10.5h125q9 0 17 7t8 16v209q0 15 10.5 25.5t24.5 10.5h159q14 0 24.5 -10.5t10.5 -25.5v-209q0 -9 6.5 -16t14.5 -7h200q8 0 14.5 7 t6.5 16v209q0 15 10.5 25.5t24.5 10.5h159q14 0 24.5 -10.5t10.5 -25.5v-209q0 -9 8 -16t17 -7h125q13 0 24 -11t11 -24v-159q0 -14 -11 -24.5t-24 -10.5h-125q-9 0 -17 -6t-8 -13v-288q0 -9 8 -16t17 -7h125q13 0 24 -10.5t11 -24.5v-160q0 -13 -10.5 -23.5t-24.5 -10.5 h-125q-9 0 -17 -7t-8 -16v-207q0 -14 -10.5 -24.5t-24.5 -10.5h-159q-13 0 -24 10.5t-11 24.5v207q0 8 -7 15.5t-14 7.5h-200q-7 0 -14 -7.5t-7 -15.5v-207q0 -14 -11 -24.5t-24 -10.5h-159q-14 0 -24.5 10.5t-10.5 24.5v207q0 9 -8 16t-17 7h-125q-15 0 -26 11.5t-11 25.5z M518 580q0 -9 6.5 -16t14.5 -7h200q8 0 14.5 7t6.5 16v284q0 8 -7 15.5t-14 7.5h-200q-7 0 -14 -7.5t-7 -15.5v-284z" />
<glyph unicode="$" horiz-adv-x="1214" d="M76.5 172.5q-1.5 16.5 7.5 26.5l154 202q8 9 23 11.5t26 -6.5q57 -49 137.5 -81t153.5 -32q117 0 171 38t54 99v8q0 20 -3.5 36t-15.5 29.5t-21.5 23.5t-33.5 20t-39 16t-52 15.5t-57.5 14t-68.5 15.5q-126 29 -178 51q-202 88 -214 327q-1 16 -1 32v8q0 179 114.5 295.5 t307.5 138.5v271q0 14 9.5 24t24.5 10h78q15 0 26 -10t11 -24v-269q178 -17 336 -139q11 -9 13 -23t-7 -26l-151 -199q-9 -13 -25.5 -15t-28.5 9q-92 80 -200 80q-84 0 -129 -31t-45 -90v-6q0 -64 61 -97t221 -63q205 -38 306.5 -139t101.5 -270v-9q0 -187 -123 -308 t-330 -148v-271q0 -15 -11 -25.5t-26 -10.5h-78q-14 0 -24 9.5t-10 26.5v265q-120 6 -240.5 51t-210.5 114q-12 9 -13.5 25.5z" />
<glyph unicode="%" horiz-adv-x="1875" d="M82 1090v6q0 156 110.5 259t272.5 103t272.5 -103t110.5 -259v-6q0 -158 -109.5 -261.5t-273.5 -103.5t-273.5 103.5t-109.5 261.5zM305 1090q0 -78 42.5 -120t117.5 -42t117.5 42t42.5 120v6q0 76 -43 117.5t-117 41.5q-75 0 -117.5 -41.5t-42.5 -117.5v-6zM330.5 20 q-10.5 20 1.5 39l901 1346q27 41 80 41h200q24 0 35 -20.5t-2 -39.5l-901 -1345q-27 -41 -80 -41h-200q-24 0 -34.5 20zM1028 352v6q0 156 110.5 259.5t272.5 103.5t272.5 -103.5t110.5 -259.5v-6q0 -157 -109.5 -260.5t-273.5 -103.5t-273.5 103.5t-109.5 260.5zM1251 352 q0 -78 42.5 -120t117.5 -42t117.5 42t42.5 120v6q0 76 -43 118t-117 42q-75 0 -117.5 -42t-42.5 -118v-6z" />
<glyph unicode="&#x26;" horiz-adv-x="1449" d="M184 406v38q0 201 178 316q13 9 14 22t-11 25q-86 95 -86 231v19q0 177 128.5 293t333.5 116h19q205 0 334 -116t129 -293v-19q0 -82 -34 -153t-90 -119t-124.5 -77.5t-140.5 -35.5l-127 -14q-80 -9 -132.5 -58t-52.5 -112v-25q0 -71 63.5 -116t155.5 -45h35 q57 0 113.5 19.5t91.5 51.5q8 6 7.5 19t-11.5 20l-86 51q-14 9 -16 27.5t8 28.5l116 131q8 9 21 11.5t24 -3.5l490 -283q14 -8 17 -24.5t-9 -28.5l-119 -133q-8 -8 -22 -9t-25 5l-102 57q-30 18 -49 -12q-74 -102 -201 -166.5t-276 -64.5h-35q-149 0 -270.5 56.5t-190 154 t-68.5 215.5zM594 1012q0 -61 42.5 -102.5t106.5 -41.5h15q64 0 106.5 41.5t42.5 102.5v16q0 67 -42 108.5t-107 41.5h-15q-65 0 -107 -41.5t-42 -108.5v-16z" />
<glyph unicode="'" horiz-adv-x="421" d="M61 1309q0 65 43.5 106t106.5 41t106 -41t43 -106q0 -24 -22 -97l-84 -251q-12 -27 -35 -27h-14q-26 0 -35 27l-86 251q-23 67 -23 97z" />
<glyph unicode="(" horiz-adv-x="755" d="M143 723q0 304 69.5 552.5t227.5 496.5q6 10 18.5 14.5t24.5 -0.5l187 -70q17 -6 21.5 -20t-3.5 -29q-123 -237 -174 -435.5t-51 -508.5q0 -213 26.5 -377t72 -286.5t128.5 -280.5q7 -13 2.5 -29t-20.5 -22l-185 -70q-10 -5 -24 -0.5t-21 14.5q-159 250 -229 499t-70 552 z" />
<glyph unicode=")" horiz-adv-x="755" d="M63.5 -250q-4.5 16 2.5 29q83 158 128.5 280.5t72 286.5t26.5 377q0 310 -51 508.5t-174 435.5q-8 15 -3.5 29t21.5 20l186 70q12 5 24.5 0.5t18.5 -14.5q158 -248 227.5 -496.5t69.5 -552.5q0 -303 -70 -552t-229 -499q-7 -10 -21 -14.5t-24 0.5l-184 70q-16 6 -20.5 22 z" />
<glyph unicode="*" horiz-adv-x="931" d="M67.5 1060.5q3.5 16.5 16.5 22.5l172 91q9 4 9 14t-9 14l-172 88q-11 6 -15 21.5t3 27.5l67 115q6 12 21.5 16.5t27.5 -2.5l162 -108q10 -6 18.5 -1.5t8.5 15.5l-10 197q0 14 10.5 24.5t25.5 10.5h132q13 0 23.5 -10.5t10.5 -24.5l-8 -197q0 -11 9 -15.5t18 1.5l160 106 q10 8 27 4t24 -16l65 -113q8 -13 3.5 -28.5t-17.5 -22.5l-170 -90q-9 -5 -10 -14.5t8 -14.5l174 -88q11 -7 14 -22t-4 -27l-65 -114q-8 -14 -21.5 -18t-27.5 3l-162 105q-9 6 -18 1.5t-9 -16.5l10 -190q1 -15 -9.5 -26t-24.5 -11h-132q-15 0 -25.5 11t-10.5 26l10 190 q0 12 -11 16.5t-20 -1.5l-158 -103q-10 -6 -27 -2.5t-24 15.5l-65 114q-8 10 -4.5 26.5z" />
<glyph unicode="+" horiz-adv-x="1173" d="M102 645v158q0 14 11 24.5t26 10.5h310q9 0 16.5 6.5t7.5 15.5v311q0 15 10.5 26t24.5 11h160q14 0 24 -11t10 -26v-311q0 -9 8 -15.5t17 -6.5h309q14 0 24.5 -11t10.5 -24v-160q0 -13 -10.5 -24t-24.5 -11h-309q-9 0 -17 -6.5t-8 -15.5v-312q0 -14 -10 -24t-24 -10h-160 q-14 0 -24.5 10.5t-10.5 23.5v312q0 9 -7.5 15.5t-16.5 6.5h-310q-15 0 -26 11.5t-11 25.5z" />
<glyph unicode="," horiz-adv-x="536" d="M88 -225.5q-4 17.5 8 32.5q72 93 72 152q0 61 -37 107q-39 51 -39 110q0 72 50.5 123t125.5 51t125.5 -51t50.5 -123q0 -112 -70.5 -226t-172.5 -194q-16 -13 -37.5 -16t-30.5 2l-27 10q-14 5 -18 22.5z" />
<glyph unicode="-" horiz-adv-x="761" d="M82 422v172q0 14 11 24.5t24 10.5h526q15 0 26 -10.5t11 -24.5v-172q0 -14 -11 -24.5t-26 -10.5h-526q-13 0 -24 10.5t-11 24.5z" />
<glyph unicode="." horiz-adv-x="536" d="M92 164q0 73 51.5 123.5t124.5 50.5t124.5 -50.5t51.5 -123.5t-51.5 -123.5t-124.5 -50.5t-124.5 50.5t-51.5 123.5z" />
<glyph unicode="/" horiz-adv-x="989" d="M-16 -272l721 2003q12 34 51 34h215q21 0 31 -14t4 -33l-721 -2003q-12 -34 -52 -34h-215q-21 0 -30.5 14t-3.5 33z" />
<glyph unicode="0" horiz-adv-x="1134" d="M92 465v516q0 224 130.5 354.5t344.5 130.5t344.5 -130.5t130.5 -354.5v-516q0 -223 -131 -354t-344 -131t-344 131t-131 354zM420 473q0 -106 30.5 -162.5t116.5 -56.5t117 56.5t31 162.5v504q0 36 -2 61.5t-10.5 56.5t-24 50.5t-44 33t-67.5 13.5q-40 0 -68.5 -13.5 t-43.5 -32.5t-23 -51t-10 -56.5t-2 -61.5v-504z" />
<glyph unicode="1" horiz-adv-x="636" d="M59 1214l129 216q10 16 31 16h240q15 0 25 -10t10 -25v-1376q0 -13 -11 -24t-24 -11h-258q-13 0 -24 11t-11 24v1102q0 10 -7 17t-16 7h-53q-18 0 -29.5 17t-1.5 36z" />
<glyph unicode="2" horiz-adv-x="1017" d="M61 35v151q0 27 17 50l414 499q122 151 122 234v24q0 85 -58 137t-153 52q-108 0 -186 -37q-12 -5 -27.5 -0.5t-21.5 18.5l-70 176q-6 14 -0.5 27.5t17.5 19.5q151 80 321 80q235 0 371.5 -120.5t136.5 -327.5v-35q0 -91 -56 -189t-151 -210l-235 -273q-6 -6 -2 -16 t14 -10h365q14 0 24 -10t10 -25v-215q0 -14 -10.5 -24.5t-23.5 -10.5h-783q-14 0 -24.5 11t-10.5 24z" />
<glyph unicode="3" horiz-adv-x="976" d="M65.5 72.5q-4.5 13.5 0.5 25.5l71 183q5 13 20.5 18t32.5 -2q70 -33 164 -33q100 0 166 58.5t66 146.5v18q0 92 -65.5 151.5t-166.5 59.5q-69 0 -121 -14q-26 -7 -40 14l-25 41q-13 22 2 41l264 342q8 10 3 24.5t-19 14.5h-273q-15 0 -25.5 10.5t-10.5 24.5v215 q0 15 10.5 25t25.5 10h699q14 0 24.5 -10t10.5 -25v-149q0 -28 -25 -56l-225 -270q-8 -9 -4.5 -21.5t16.5 -15.5q131 -38 202.5 -145t71.5 -258v-35q0 -205 -153.5 -343t-382.5 -138q-154 0 -297 73q-12 6 -16.5 19.5z" />
<glyph unicode="4" horiz-adv-x="1087" d="M41 352v162q0 24 10 39l524 868q16 25 48 25h245q15 0 25 -10t10 -25v-829q0 -9 8 -16t17 -7h76q15 0 25.5 -11t10.5 -26v-170q0 -15 -10.5 -26t-25.5 -11h-76q-9 0 -17 -6.5t-8 -15.5v-258q0 -14 -10 -24.5t-25 -10.5h-258q-15 0 -25 10.5t-10 24.5v258q0 9 -7.5 15.5 t-16.5 6.5h-475q-15 0 -25 11t-10 26zM375 582q-4 -7 0.5 -15t13.5 -8h162q9 0 16.5 7t7.5 16v290q0 11 -11 14t-17 -7z" />
<glyph unicode="5" horiz-adv-x="1007" d="M85.5 72.5q-4.5 13.5 0.5 25.5l72 183q5 14 20 19.5t29 -1.5q75 -35 168 -35q99 0 165 60t66 149v19q0 92 -63.5 149t-167.5 57q-112 0 -193 -51q-15 -9 -34 1t-19 30v733q0 15 11 25t26 10h676q15 0 26 -10t11 -25v-215q0 -14 -11 -24.5t-26 -10.5h-377q-11 0 -18 -7 t-7 -17v-170q0 -11 7.5 -18t19.5 -7h31q200 0 319 -119t119 -323v-37q0 -133 -71 -244t-194.5 -175t-271.5 -64q-154 0 -297 73q-12 6 -16.5 19.5z" />
<glyph unicode="6" horiz-adv-x="1114" d="M92 436v549q0 209 149.5 345t379.5 136q152 0 297 -71q12 -6 17.5 -19.5t0.5 -25.5l-72 -181q-5 -13 -19 -19.5t-28 -0.5q-84 33 -172 33q-99 0 -162 -58.5t-63 -146.5v-111q0 -12 8.5 -15t17.5 3q82 51 199 51q188 0 298 -119t110 -315v-35q0 -194 -140.5 -325 t-351.5 -131t-340 127t-129 329zM410 444q0 -86 39 -138t112 -52q74 0 117 52.5t43 137.5v19q0 86 -38.5 138t-111.5 52q-75 0 -118 -50.5t-43 -139.5v-19z" />
<glyph unicode="7" horiz-adv-x="903" d="M41 1196v215q0 15 11 25t26 10h780q14 0 24.5 -10t10.5 -25v-137q0 -43 -14 -78l-420 -1165q-4 -13 -16.5 -22t-26.5 -9h-295q-14 0 -22.5 13t-2.5 26l426 1089q5 11 -1.5 22t-20.5 11h-422q-15 0 -26 10.5t-11 24.5z" />
<glyph unicode="8" horiz-adv-x="1138" d="M82 406v36q0 179 149 299q16 13 0 29q-114 108 -114 264v19q0 175 125 294t327 119t327.5 -119t125.5 -294v-19q0 -154 -113 -264q-16 -16 0 -29q148 -122 148 -299v-36q0 -85 -34.5 -163t-96.5 -137.5t-155 -95t-202 -35.5t-201.5 35.5t-154.5 95t-96.5 137.5t-34.5 163 zM420 426q0 -77 40 -126.5t109 -49.5t108.5 49.5t39.5 126.5v45q0 69 -40.5 117.5t-107.5 48.5q-68 0 -108.5 -48.5t-40.5 -117.5v-45zM432 1012q0 -63 37.5 -107.5t99.5 -44.5q61 0 98.5 44.5t37.5 107.5v16q0 76 -36 120t-100 44t-100.5 -44t-36.5 -120v-16z" />
<glyph unicode="9" horiz-adv-x="1114" d="M61 975v35q0 194 140.5 325t351.5 131t340 -127t129 -329v-549q0 -209 -149 -345t-379 -136q-152 0 -297 71q-12 6 -17.5 19.5t-1.5 25.5l72 180q5 13 19 20t28 1q84 -33 172 -33q99 0 162 58.5t63 146.5v111q0 12 -8.5 15t-17.5 -3q-82 -51 -199 -51q-188 0 -298 119 t-110 315zM393 983q0 -86 38.5 -138t111.5 -52q75 0 118.5 50.5t43.5 139.5v18q0 86 -39.5 138.5t-112.5 52.5q-74 0 -117 -53t-43 -138v-18z" />
<glyph unicode=":" horiz-adv-x="536" d="M92 229q0 73 51.5 123.5t124.5 50.5t124.5 -50.5t51.5 -123.5t-51.5 -123.5t-124.5 -50.5t-124.5 50.5t-51.5 123.5zM92 786q0 73 52 124t124 51t124 -51t52 -124t-51.5 -123.5t-124.5 -50.5t-124.5 50.5t-51.5 123.5z" />
<glyph unicode=";" horiz-adv-x="536" d="M86 -172q-4 18 8 33q74 96 74 151q0 61 -37 107q-39 51 -39 110q0 72 50.5 123t125.5 51t125.5 -51t50.5 -123q0 -111 -71.5 -225t-173.5 -194q-16 -13 -37.5 -16.5t-30.5 1.5l-27 10q-14 5 -18 23zM92 786q0 73 52 124t124 51t124 -51t52 -124t-51.5 -123.5 t-124.5 -50.5t-124.5 50.5t-51.5 123.5z" />
<glyph unicode="&#x3c;" horiz-adv-x="1218" d="M102 678v90q0 14 9 26.5t22 16.5l940 360q15 6 29 -3.5t14 -26.5v-152q0 -15 -9 -29t-24 -18l-561 -205q-12 -3 -12 -14t12 -14l561 -205q15 -3 24 -16t9 -29v-152q0 -17 -14 -27.5t-29 -5.5l-940 361q-13 4 -22 16.5t-9 26.5z" />
<glyph unicode="=" horiz-adv-x="1173" d="M102 467v158q0 14 11 24t26 10h897q14 0 24.5 -10.5t10.5 -23.5v-160q0 -13 -10.5 -24t-24.5 -11h-897q-15 0 -26 11.5t-11 25.5zM102 823v158q0 14 11 24.5t26 10.5h897q14 0 24.5 -11t10.5 -24v-160q0 -13 -10.5 -24t-24.5 -11h-897q-15 0 -26 11.5t-11 25.5z" />
<glyph unicode="&#x3e;" horiz-adv-x="1218" d="M102 307v152q0 16 9 29t24 16l561 205q13 3 13 14t-13 14l-561 205q-15 4 -24 18t-9 29v152q0 17 14 26.5t29 3.5l940 -360q13 -4 22 -16.5t9 -26.5v-90q0 -14 -9 -26.5t-22 -16.5l-940 -361q-15 -5 -29 5.5t-14 27.5z" />
<glyph unicode="?" horiz-adv-x="1017" d="M63 1298q2 15 13 23q98 78 194 113.5t209 35.5q223 0 360.5 -118.5t137.5 -311.5v-8q0 -138 -53 -214.5t-172 -143.5q-68 -37 -105 -77.5t-37 -92.5v-6q0 -13 -11.5 -23t-25.5 -10h-235q-15 0 -25 11t-10 26v6q0 55 11 100t26 75t45.5 59.5t53.5 46.5t65 45 q81 50 111 83.5t30 92.5v8q0 63 -44.5 99t-121.5 36q-124 0 -211 -76q-12 -9 -27.5 -8t-25.5 14l-145 189q-9 11 -7 26zM283 164q0 73 51.5 123.5t124.5 50.5t124.5 -50.5t51.5 -123.5t-51.5 -123.5t-124.5 -50.5t-124.5 50.5t-51.5 123.5z" />
<glyph unicode="@" horiz-adv-x="2379" d="M111 266q0 150 50.5 297.5t139 273t212 234t266 184.5t306 119t326.5 43q145 0 273.5 -27t236.5 -83.5t186.5 -137t122 -194t43.5 -248.5q0 -120 -45 -235.5t-120 -205t-168.5 -158.5t-195 -105.5t-194.5 -36.5q-76 0 -126 23.5t-81 78.5q-5 9 -14 10t-18 -6 q-114 -108 -260 -108q-177 0 -287.5 131t-110.5 338v104q0 109 33.5 199.5t90 149.5t129 91.5t151.5 32.5q81 0 137 -23.5t119 -74.5q13 -13 22 4l25 53q12 25 39 25h209q14 0 24 -10t10 -25v-737q0 -45 29.5 -62t69.5 -6q159 47 260.5 201.5t101.5 345.5q0 262 -189 412.5 t-499 150.5q-146 0 -289 -35.5t-267.5 -98.5t-231.5 -155t-183.5 -201t-119.5 -240.5t-43 -268.5q0 -130 54 -236.5t147 -177t217 -109t266 -38.5q115 0 236.5 27t219.5 73q12 5 27.5 0t21.5 -19l25 -63q6 -14 1 -27.5t-17 -19.5q-94 -47 -236.5 -81t-275.5 -34 q-140 0 -266 26.5t-234.5 82.5t-187 136t-123.5 193t-45 248zM971 463q0 -98 49 -153.5t137 -55.5q74 0 127 39q31 21 31 57v309q0 38 -31 60q-55 37 -127 37q-88 0 -137 -54.5t-49 -152.5v-86z" />
<glyph unicode="A" horiz-adv-x="1327" d="M12 43l584 1374q13 29 43 29h49q30 0 43 -29l584 -1374q6 -17 -4.5 -30t-26.5 -13h-266q-32 0 -45 29l-47 116q-14 31 -43 31h-439q-29 0 -43 -31l-47 -116q-13 -29 -45 -29h-266q-16 0 -26.5 13t-4.5 30zM518 440q-3 -8 1 -15t13 -7h263q9 0 13 7t1 15l-131 320 q-3 10 -14 10q-12 0 -15 -10z" />
<glyph unicode="B" horiz-adv-x="1284" d="M133 35v1376q0 13 9.5 24t25.5 11h520q178 0 291 -114t113 -269v-16q0 -105 -74 -195q-10 -14 -8 -27.5t16 -21.5q91 -52 146 -142.5t55 -195.5v-14q0 -186 -121.5 -315.5t-302.5 -135.5h-635q-15 0 -25 10.5t-10 24.5zM461 317q0 -9 6.5 -15.5t15.5 -6.5h222 q81 0 126.5 40t45.5 111v17q0 28 -7 52t-24 46.5t-51 35.5t-82 13h-230q-9 0 -15.5 -7t-6.5 -17v-269zM461 877q0 -9 6.5 -17t15.5 -8h148q58 3 94.5 43t36.5 102v15q0 64 -39 101.5t-105 37.5h-135q-18 0 -22 -21v-253z" />
<glyph unicode="C" horiz-adv-x="1267" d="M82 662v118q0 201 88 358t243.5 242.5t352.5 85.5q238 0 416 -135q13 -10 13.5 -25.5t-7.5 -25.5l-146 -190q-10 -11 -25 -13.5t-28 8.5q-90 78 -223 78q-165 0 -258.5 -104t-93.5 -279v-118q0 -174 93.5 -276.5t258.5 -102.5q128 0 221 75q12 10 27 9.5t24 -11.5 l150 -194q9 -10 7.5 -26t-13.5 -25q-173 -131 -416 -131q-200 0 -355.5 85.5t-242 241t-86.5 355.5z" />
<glyph unicode="D" horiz-adv-x="1417" d="M133 35v1376q0 13 10.5 24t24.5 11h483q307 0 495.5 -183.5t188.5 -482.5v-118q0 -133 -38.5 -244t-104 -187t-153.5 -129t-185.5 -77.5t-202.5 -24.5h-483q-14 0 -24.5 11t-10.5 24zM461 317q0 -9 6.5 -15.5t15.5 -6.5h168q163 0 258 99t95 268v118q0 172 -95 271.5 t-258 99.5h-168q-9 0 -15.5 -7t-6.5 -16v-811z" />
<glyph unicode="E" horiz-adv-x="1212" d="M133 35v1376q0 13 10.5 24t24.5 11h926q15 0 25.5 -10.5t10.5 -24.5v-225q0 -14 -10.5 -24.5t-25.5 -10.5h-611q-9 0 -15.5 -7t-6.5 -16v-254q0 -9 6.5 -15.5t15.5 -6.5h443q15 0 26 -11t11 -26v-197q0 -14 -11 -24t-26 -10h-443q-9 0 -15.5 -7.5t-6.5 -17.5v-242 q0 -9 6.5 -15.5t15.5 -6.5h611q15 0 25.5 -10.5t10.5 -24.5v-225q0 -14 -10.5 -24.5t-25.5 -10.5h-926q-14 0 -24.5 11t-10.5 24z" />
<glyph unicode="F" horiz-adv-x="1181" d="M133 35v1376q0 13 10.5 24t24.5 11h928q15 0 24.5 -10.5t9.5 -24.5v-225q0 -14 -9.5 -24.5t-24.5 -10.5h-613q-9 0 -15.5 -7t-6.5 -16v-333q0 -10 6.5 -17.5t15.5 -7.5h443q15 0 26 -10.5t11 -24.5v-196q0 -15 -11 -26t-26 -11h-443q-9 0 -15.5 -7t-6.5 -16v-444 q0 -14 -11 -24.5t-26 -10.5h-256q-14 0 -24.5 11t-10.5 24z" />
<glyph unicode="G" horiz-adv-x="1447" d="M82 662v118q0 201 88.5 358t244.5 242.5t353 85.5q238 0 414 -135q13 -9 15 -24t-7 -25l-148 -192q-8 -11 -21.5 -13.5t-29.5 8.5q-97 78 -223 78q-159 0 -256.5 -105t-97.5 -278v-118q0 -175 93 -277t253 -102q118 0 213 63q24 14 24 47v99q0 9 -6.5 15.5t-15.5 6.5 h-184q-15 0 -26 10.5t-11 24.5v172q0 15 11 25t26 10h499q15 0 25 -10t10 -25v-686q0 -14 -10 -24.5t-25 -10.5h-35q-25 0 -43 18l-90 93q-16 16 -35 0q-148 -131 -376 -131q-182 0 -325 85t-223.5 241t-80.5 356z" />
<glyph unicode="H" horiz-adv-x="1499" d="M133 35v1376q0 14 11 24.5t26 10.5h256q14 0 24.5 -11t10.5 -24v-537q0 -9 7 -15.5t17 -6.5h531q9 0 15.5 6.5t6.5 15.5v537q0 14 11 24.5t26 10.5h256q13 0 24 -11t11 -24v-1376q0 -13 -11 -24t-24 -11h-256q-15 0 -26 10.5t-11 24.5v524q0 10 -6.5 17.5t-15.5 7.5h-531 q-10 0 -17 -7t-7 -18v-524q0 -13 -10.5 -24t-24.5 -11h-256q-15 0 -26 10.5t-11 24.5z" />
<glyph unicode="I" horiz-adv-x="593" d="M133 35v1376q0 13 10.5 24t24.5 11h258q14 0 24.5 -11t10.5 -24v-1376q0 -13 -10.5 -24t-24.5 -11h-258q-14 0 -24.5 11t-10.5 24z" />
<glyph unicode="J" horiz-adv-x="796" d="M32.5 62q-4.5 15 4.5 30l100 176q15 27 41 17q33 -11 72 -11q47 0 76.5 32t29.5 73v1032q0 13 11 24t24 11h258q13 0 24 -11t11 -24v-1042q0 -57 -15 -111.5t-45.5 -103t-74 -85t-104.5 -58t-132 -21.5q-135 0 -262 51q-14 6 -18.5 21z" />
<glyph unicode="K" horiz-adv-x="1355" d="M133 35v1376q0 13 10.5 24t24.5 11h256q14 0 24.5 -11t10.5 -24v-547q0 -8 6 -15t16 -7h8q77 0 145 30.5t118 82.5t87.5 121t58.5 145.5t26 156.5l2 33q0 15 11 25t26 10h266q15 0 25.5 -11t9.5 -26l-2 -43q-13 -199 -99.5 -365.5t-228.5 -273.5q-19 -15 -8 -35l387 -639 q9 -16 -0.5 -34.5t-30.5 -18.5h-297q-22 0 -31 18l-313 555q-12 21 -37 17q-49 -8 -115 -8h-8q-9 0 -15.5 -7.5t-6.5 -17.5v-522q0 -13 -10.5 -24t-24.5 -11h-256q-14 0 -24.5 11t-10.5 24z" />
<glyph unicode="L" horiz-adv-x="1101" d="M133 35v1376q0 14 11 24.5t26 10.5h256q14 0 24.5 -11t10.5 -24v-1094q0 -9 7 -15.5t17 -6.5h531q15 0 25 -10.5t10 -24.5v-225q0 -14 -10 -24.5t-25 -10.5h-846q-15 0 -26 10.5t-11 24.5z" />
<glyph unicode="M" horiz-adv-x="1626" d="M74 39l176 1376q1 13 12 22t23 9h22q21 0 33 -16l461 -664q3 -6 12 -6t12 6l461 664q12 16 33 16h22q12 0 23 -9t12 -22l176 -1376q1 -15 -10 -27t-26 -12h-250q-14 0 -24 9t-11 22l-74 663q-1 12 -11.5 14.5t-17.5 -6.5l-286 -393q-12 -16 -29 -16t-29 16l-286 393 q-7 9 -17.5 6.5t-11.5 -14.5l-74 -663q-1 -13 -11 -22t-24 -9h-249q-15 0 -26.5 12t-10.5 27z" />
<glyph unicode="N" horiz-adv-x="1472" d="M133 35v1376q0 14 11 24.5t26 10.5h31q20 0 32 -12l752 -750q6 -7 16.5 -4t10.5 14v717q0 14 10 24.5t25 10.5h256q15 0 25.5 -10.5t10.5 -24.5v-1376q0 -14 -10.5 -24.5t-25.5 -10.5h-35q-23 0 -39 16l-740 746q-7 8 -17.5 5t-10.5 -15v-717q0 -14 -10 -24.5t-25 -10.5 h-256q-15 0 -26 10.5t-11 24.5z" />
<glyph unicode="O" horiz-adv-x="1531" d="M82 664v118q0 201 86.5 356.5t242.5 241.5t355 86t355 -86t242.5 -241.5t86.5 -356.5v-118q0 -305 -190.5 -494.5t-493.5 -189.5t-493.5 189.5t-190.5 494.5zM414 664q0 -181 94 -281t258 -100t258 100t94 281v118q0 180 -94 280.5t-258 100.5t-258 -100.5t-94 -280.5 v-118z" />
<glyph unicode="P" horiz-adv-x="1288" d="M133 35v1376q0 14 10 24.5t25 10.5h643q173 0 299.5 -136t126.5 -323v-14q0 -201 -127 -336t-319 -135h-308q-9 0 -16.5 -7t-7.5 -16v-444q0 -15 -10 -25t-25 -10h-256q-15 0 -25 10t-10 25zM459 793q0 -10 7.5 -17.5t16.5 -7.5h207q82 0 130 49.5t48 134.5v15 q0 86 -48 135t-132 49h-205q-9 0 -16.5 -7.5t-7.5 -17.5v-333z" />
<glyph unicode="Q" horiz-adv-x="1531" d="M82 664v118q0 201 86.5 356.5t242.5 241.5t355 86t355 -86t242.5 -241.5t86.5 -356.5v-118q0 -240 -121 -412.5t-328 -237.5q-26 -10 -16 -37q68 -176 277 -194q13 -1 22.5 -12t9.5 -25v-223q0 -14 -10 -25.5t-24 -11.5q-218 0 -377 127t-217 340q-4 14 -16 26t-32 15 q-244 43 -390 223.5t-146 446.5zM414 664q0 -181 94 -281t258 -100t258 100t94 281v118q0 180 -94 280.5t-258 100.5t-258 -100.5t-94 -280.5v-118z" />
<glyph unicode="R" horiz-adv-x="1333" d="M133 35v1376q0 14 11 24.5t26 10.5h635q172 0 299 -136t127 -323v-14q0 -145 -75 -255.5t-191 -164.5q-24 -10 -17 -33q29 -105 106.5 -171t184.5 -75q14 -2 23.5 -11.5t9.5 -24.5v-218q0 -14 -10 -25t-25 -11q-232 0 -397 138.5t-209 366.5q-2 9 -10.5 17t-18.5 8h-117 q-10 0 -17 -7t-7 -18v-454q0 -15 -10.5 -25t-24.5 -10h-256q-15 0 -26 10t-11 25zM461 788q0 -10 6.5 -17t17.5 -7h211q82 0 130 51t48 137v15q0 86 -47.5 135t-130.5 49h-211q-10 0 -17 -7t-7 -18v-338z" />
<glyph unicode="S" horiz-adv-x="1214" d="M76.5 172.5q-1.5 16.5 7.5 26.5l154 202q8 9 23 11.5t26 -6.5q57 -49 137.5 -81t153.5 -32q117 0 171 38t54 99v8q0 20 -3.5 36t-15.5 29.5t-21.5 23.5t-33.5 20t-39 16t-52 15.5t-57.5 14t-68.5 15.5q-126 29 -178 51q-202 88 -214 327q-1 16 -1 32v8q0 199 140 319.5 t368 120.5q215 0 399 -143q11 -9 13 -23t-7 -26l-151 -199q-9 -13 -25.5 -15t-28.5 9q-92 80 -200 80q-84 0 -129 -31t-45 -90v-6q0 -64 61 -97t221 -63q205 -38 306.5 -139t101.5 -270v-9q0 -212 -155.5 -338t-409.5 -126q-127 0 -258.5 46.5t-229.5 120.5 q-12 9 -13.5 25.5z" />
<glyph unicode="T" horiz-adv-x="1159" d="M31 1186v225q0 14 10 24.5t25 10.5h1028q13 0 23.5 -10.5t10.5 -24.5v-225q0 -14 -10.5 -24.5t-23.5 -10.5h-328q-9 0 -16 -7.5t-7 -17.5v-1091q0 -15 -10.5 -25t-25.5 -10h-256q-15 0 -25 10t-10 25v1091q0 10 -8 17.5t-17 7.5h-325q-15 0 -25 10.5t-10 24.5z" />
<glyph unicode="U" horiz-adv-x="1447" d="M123 571v840q0 14 11 24.5t26 10.5h256q15 0 25 -10.5t10 -24.5v-840q0 -135 71.5 -211.5t200.5 -76.5q130 0 202 76t72 212v840q0 13 10.5 24t24.5 11h258q14 0 24.5 -11t10.5 -24v-840q0 -264 -167.5 -427.5t-434.5 -163.5q-265 0 -432.5 163.5t-167.5 427.5z" />
<glyph unicode="V" horiz-adv-x="1333" d="M14 1403q-6 15 4 29t25 14h270q31 0 45 -31l295 -850q3 -10 15 -10q11 0 14 10l295 850q4 13 16.5 22t26.5 9h270q15 0 25 -14t4 -29l-528 -1374q-5 -12 -17.5 -20.5t-25.5 -8.5h-162q-13 0 -25.5 8.5t-17.5 20.5z" />
<glyph unicode="W" horiz-adv-x="2025" d="M14 1405q-6 15 4 28t25 13h270q15 0 27.5 -10t17.5 -25l252 -831q3 -11 13 -11.5t18 9.5l342 770q9 20 29 20h6q20 0 29 -20l339 -770q5 -8 15.5 -8.5t15.5 10.5l252 831q5 15 17.5 25t27.5 10h268q16 0 26.5 -13t4.5 -28l-452 -1372q-4 -15 -17 -24t-28 -9h-138 q-14 0 -26.5 7.5t-16.5 19.5l-307 684q-3 8 -14 8q-12 0 -15 -8l-307 -684q-14 -27 -43 -27h-137q-15 0 -28 9t-17 24z" />
<glyph unicode="X" horiz-adv-x="1480" d="M46 17q-9 17 3 32l481 682q10 15 10 34t-10 34l-421 598q-11 15 -2.5 32t28.5 17h311q25 0 39 -21l236 -350q9 -12 20 -12q12 0 21 12l235 350q14 21 39 21h312q20 0 28.5 -17t-2.5 -32l-422 -598q-10 -15 -10 -34t10 -34l482 -682q11 -15 2.5 -32t-27.5 -17h-317 q-26 0 -39 20l-293 437q-7 10 -19 10q-11 0 -18 -10l-293 -437q-13 -20 -39 -20h-317q-19 0 -28 17z" />
<glyph unicode="Y" horiz-adv-x="1409" d="M16 1399q-9 15 0 31t29 16h287q27 0 41 -25l317 -608q5 -8 15 -8h2q7 0 12 8l317 608q14 25 41 25h287q20 0 29 -16t0 -31l-514 -928q-11 -19 -11 -41v-383q0 -20 -13.5 -33.5t-33.5 -13.5h-233q-20 0 -33.5 13.5t-13.5 33.5v383q0 22 -11 41z" />
<glyph unicode="Z" horiz-adv-x="1226" d="M51 35v24q0 24 10 39l576 1018q6 11 -1 23t-20 12h-458q-14 0 -24.5 10.5t-10.5 24.5v225q0 13 10.5 24t24.5 11h960q15 0 26 -10.5t11 -24.5v-14q0 -18 -8 -31l-588 -1036q-5 -11 1.5 -23t19.5 -12h538q15 0 26 -11t11 -26v-223q0 -15 -11 -25t-26 -10h-1032 q-14 0 -24.5 10t-10.5 25z" />
<glyph unicode="[" horiz-adv-x="745" d="M164 -283v2014q0 14 11.5 24t25.5 10h426q15 0 26 -10t11 -24v-213q0 -15 -11 -26t-26 -11h-125q-9 0 -17 -7t-8 -16v-1470q0 -9 8 -16t17 -7h125q15 0 26 -10.5t11 -24.5v-213q0 -15 -11 -25.5t-26 -10.5h-426q-15 0 -26 10t-11 26z" />
<glyph unicode="\" horiz-adv-x="1083" d="M31 1718q-6 19 4 33t31 14h215q39 0 51 -34l721 -2003q6 -19 -4 -33t-31 -14h-215q-39 0 -51 34z" />
<glyph unicode="]" horiz-adv-x="745" d="M82 -70q0 14 11 24.5t26 10.5h125q9 0 16.5 7t7.5 16v1470q0 9 -7.5 16t-16.5 7h-125q-15 0 -26 11t-11 26v213q0 14 11 24t26 10h426q14 0 25.5 -10t11.5 -24v-2014q0 -16 -11 -26t-26 -10h-426q-15 0 -26 10.5t-11 25.5v213z" />
<glyph unicode="^" horiz-adv-x="1110" d="M66 115l401 837q14 31 43 31h90q29 0 43 -31l401 -837q6 -15 -3.5 -29t-26.5 -14h-152q-33 0 -47 32l-244 529q-5 12 -16 12t-16 -12l-244 -529q-14 -32 -45 -32h-152q-18 0 -28.5 14t-3.5 29z" />
<glyph unicode="_" horiz-adv-x="1228" d="M-35 -227q0 13 10.5 23.5t24.5 10.5h1229q15 0 27 -10.5t12 -23.5v-172q0 -13 -12 -24t-27 -11h-1229q-14 0 -24.5 11t-10.5 24v172z" />
<glyph unicode="`" horiz-adv-x="409" d="M-48 1335.5q0 20.5 19 30.5l156 86q15 7 32.5 6t28.5 -10l258 -217q14 -10 12.5 -29t-16.5 -28l-106 -60q-12 -6 -30 -5.5t-30 7.5l-307 189q-17 10 -17 30.5z" />
<glyph unicode="a" d="M61 453v104q0 109 33.5 199.5t90 149.5t129 91.5t151.5 32.5q81 0 137 -23.5t119 -74.5q13 -13 22 4l25 53q12 25 39 25h209q14 0 24.5 -10t10.5 -25v-944q0 -13 -10.5 -24t-24.5 -11h-256q-15 0 -26 10.5t-11 24.5v31q0 8 -8 11.5t-17 -3.5q-59 -45 -114.5 -67.5 t-124.5 -22.5q-177 0 -287.5 131t-110.5 338zM379 463q0 -98 49 -153.5t137 -55.5q66 0 127 39q31 19 31 57v309q0 38 -31 60q-55 37 -127 37q-88 0 -137 -54.5t-49 -152.5v-86z" />
<glyph unicode="b" d="M98 35v1376q0 15 11 25t26 10h256q14 0 24.5 -10t10.5 -25v-442q0 -9 9 -14t16 1q96 74 219 74q77 0 151.5 -34t133.5 -93.5t95.5 -150t36.5 -195.5v-104q0 -113 -35 -204.5t-93.5 -148t-131.5 -86.5t-153 -30q-135 0 -244 98q-6 6 -13.5 4t-10.5 -10l-25 -56 q-10 -20 -33 -20h-213q-15 0 -26 10.5t-11 24.5zM426 350q0 -38 31 -57q53 -39 127 -39q88 0 137 55.5t49 153.5v86q0 98 -49 152.5t-137 54.5q-72 0 -127 -37q-31 -22 -31 -60v-309z" />
<glyph unicode="c" horiz-adv-x="909" d="M61 451v112q0 125 68.5 234t188.5 175t262 66q151 0 280 -75q13 -7 16 -22.5t-4 -27.5l-102 -170q-6 -11 -19.5 -14.5t-25.5 2.5q-71 33 -145 33q-85 0 -141 -60.5t-56 -142.5v-106q0 -82 56 -143.5t141 -61.5q65 0 141 35q12 5 26.5 0t20.5 -15l98 -172q8 -12 4 -27.5 t-16 -21.5q-124 -74 -274 -74q-107 0 -203.5 39t-165.5 104t-109.5 152.5t-40.5 180.5z" />
<glyph unicode="d" d="M61 453v104q0 109 33.5 199.5t90 149.5t129 91.5t151.5 32.5q128 0 231 -80q8 -6 17.5 -1.5t9.5 14.5v448q0 15 10.5 25t24.5 10h258q14 0 24.5 -10t10.5 -25v-1376q0 -13 -10.5 -24t-24.5 -11h-215q-23 0 -33 20l-27 58q-3 8 -10.5 9t-13.5 -5q-109 -98 -256 -98 q-177 0 -288.5 131t-111.5 338zM379 463q0 -98 49 -153.5t137 -55.5q66 0 127 39q31 19 31 57v309q0 38 -31 60q-55 37 -127 37q-88 0 -137 -54.5t-49 -152.5v-86z" />
<glyph unicode="e" horiz-adv-x="1099" d="M61 453v108q0 210 138 343.5t352 133.5q213 0 350 -132.5t137 -344.5v-119q0 -15 -11 -25.5t-26 -10.5h-591q-9 0 -15.5 -7t-5.5 -16q20 -66 74 -102.5t133 -36.5q78 0 145 61q8 8 22 8.5t23 -6.5l183 -133q14 -11 15 -27t-11 -28q-150 -144 -377 -144q-226 0 -380.5 138 t-154.5 340zM387 635q-1 -10 6 -17.5t17 -7.5h282q9 0 15.5 7.5t5.5 17.5q-28 135 -158 135q-142 0 -168 -135z" />
<glyph unicode="f" horiz-adv-x="774" d="M16 848v131q0 15 11 25t26 10h94q10 0 17.5 7.5t7.5 16.5v131q0 295 344 295q142 0 272 -61q12 -5 18.5 -19t-1.5 -30l-88 -158q-6 -11 -19.5 -16t-25.5 0q-50 20 -88 20q-36 0 -60 -16.5t-24 -48.5v-97q0 -9 6.5 -16.5t15.5 -7.5h213q14 0 24.5 -10t10.5 -25v-131 q0 -15 -10.5 -26t-24.5 -11h-213q-9 0 -15.5 -7t-6.5 -16v-753q0 -14 -11 -24.5t-26 -10.5h-256q-13 0 -24 11t-11 24v753q0 9 -7.5 16t-17.5 7h-94q-15 0 -26 11t-11 26z" />
<glyph unicode="g" d="M61 453v104q0 109 33.5 199.5t90 149.5t129 91.5t151.5 32.5q81 0 137 -23.5t119 -74.5q13 -13 22 4l25 53q12 25 39 25h209q14 0 24.5 -10t10.5 -25v-1008q0 -209 -149 -336t-386 -127q-168 0 -295 76q-12 6 -15 21t3 28l92 154q8 12 22.5 15.5t26.5 -3.5 q53 -26 144 -26q108 0 168.5 54.5t60.5 152.5v100q0 8 -8 11.5t-17 -3.5q-61 -52 -116 -78t-123 -26q-177 0 -287.5 131t-110.5 338zM379 463q0 -98 49 -153.5t137 -55.5q66 0 127 39q31 19 31 57v309q0 38 -31 60q-55 37 -127 37q-88 0 -137 -54.5t-49 -152.5v-86z" />
<glyph unicode="h" horiz-adv-x="1124" d="M98 35v1376q0 15 11 25t26 10h256q15 0 25 -10t10 -25v-448q0 -11 10 -14.5t17 3.5q87 78 227 78q165 0 259.5 -105.5t94.5 -291.5v-598q0 -13 -11 -24t-24 -11h-256q-15 0 -25.5 10.5t-10.5 24.5v581q0 129 -136 129q-63 0 -112 -30q-33 -20 -33 -60v-620 q0 -14 -10 -24.5t-25 -10.5h-256q-15 0 -26 10.5t-11 24.5z" />
<glyph unicode="i" horiz-adv-x="524" d="M98 35v944q0 15 10.5 25t24.5 10h256q15 0 26 -10t11 -25v-944q0 -14 -11 -24.5t-26 -10.5h-256q-13 0 -24 11t-11 24zM98 1284q0 68 48 115t116 47t116 -47t48 -115t-48 -115t-116 -47t-116 47t-48 115z" />
<glyph unicode="j" horiz-adv-x="524" d="M-225.5 -401q-5.5 15 2.5 30l92 164q6 10 18 15t23 2q44 -11 82 -11q52 0 79 30.5t27 74.5v1075q0 15 10.5 25t24.5 10h258q14 0 24.5 -10t10.5 -25v-1071q0 -159 -100 -269t-271 -110q-137 0 -260 49q-15 6 -20.5 21zM98 1284q0 68 48 115t116 47t116 -47t48 -115 t-48 -115t-116 -47t-116 47t-48 115z" />
<glyph unicode="k" horiz-adv-x="1091" d="M98 35v1376q0 15 10 25t25 10h256q15 0 26 -10t11 -25v-758q0 -12 8.5 -19t20.5 -3q101 29 157 112t62 203l2 35q1 17 12 25t23 8h266q16 0 26 -10t9 -27l-6 -47q-35 -255 -215 -406q-16 -12 -5 -28l281 -441q12 -19 1.5 -37t-32.5 -18h-286q-23 0 -33 20l-195 355 q-10 17 -30 14l-46 -6q-9 0 -14.5 -7t-5.5 -16v-325q0 -14 -11 -24.5t-26 -10.5h-256q-15 0 -25 10.5t-10 24.5z" />
<glyph unicode="l" horiz-adv-x="524" d="M98 35v1376q0 15 11 25t26 10h256q14 0 24.5 -10t10.5 -25v-1376q0 -13 -11 -24t-24 -11h-256q-15 0 -26 10.5t-11 24.5z" />
<glyph unicode="m" horiz-adv-x="1730" d="M98 35v944q0 15 10.5 25t24.5 10h215q24 0 33 -21l25 -55q3 -7 11.5 -8.5t14.5 4.5q101 96 246 96q95 0 171 -37.5t120 -107.5q5 -7 12 -7t12 7q108 145 293 145q164 0 259 -106.5t95 -292.5v-596q0 -14 -10.5 -24.5t-23.5 -10.5h-258q-15 0 -25 10.5t-10 24.5v581 q0 129 -135 129q-62 0 -111 -30q-35 -25 -35 -64v-616q0 -14 -10 -24.5t-25 -10.5h-256q-13 0 -23.5 10.5t-10.5 24.5v581q0 129 -136 129q-63 0 -112 -30q-33 -20 -33 -60v-620q0 -14 -11 -24.5t-26 -10.5h-256q-13 0 -24 11t-11 24z" />
<glyph unicode="n" horiz-adv-x="1124" d="M98 35v944q0 15 11 25t26 10h213q24 0 33 -21l25 -55q3 -6 10.5 -8t15.5 4q104 96 252 96q164 0 257 -105.5t93 -291.5v-598q0 -14 -11 -24.5t-26 -10.5h-256q-13 0 -23.5 10.5t-10.5 24.5v581q0 129 -136 129q-63 0 -112 -30q-33 -20 -33 -60v-620q0 -13 -11 -24 t-24 -11h-256q-15 0 -26 10.5t-11 24.5z" />
<glyph unicode="o" horiz-adv-x="1155" d="M61 451v112q0 133 68 242t186.5 171t262.5 62q219 0 367.5 -136.5t148.5 -338.5v-112q0 -202 -148.5 -339t-367.5 -137t-368 137t-149 339zM381 451q0 -92 54.5 -149.5t142.5 -57.5t142 57.5t54 149.5v112q0 92 -54 149.5t-142 57.5t-142.5 -57.5t-54.5 -149.5v-112z" />
<glyph unicode="p" d="M98 -399v1378q0 15 10.5 25t24.5 10h215q20 0 31 -21l22 -47q3 -8 12 -10t17 4q109 90 240 90q77 0 151.5 -34t133.5 -93.5t95.5 -150t36.5 -195.5v-104q0 -113 -35 -204.5t-93.5 -148t-131.5 -86.5t-153 -30q-125 0 -223 73q-7 5 -16 1t-9 -13v-444q0 -14 -11 -24.5 t-26 -10.5h-256q-13 0 -24 11t-11 24zM426 350q0 -38 31 -57q53 -39 127 -39q88 0 137 55.5t49 153.5v86q0 98 -49 152.5t-137 54.5q-72 0 -127 -37q-31 -22 -31 -60v-309z" />
<glyph unicode="q" d="M61 453v104q0 109 33.5 199.5t90 149.5t129 91.5t151.5 32.5q83 0 141.5 -23.5t114.5 -74.5q13 -13 22 4l25 53q12 25 39 25h207q15 0 26 -10t11 -25v-1378q0 -14 -11 -24.5t-26 -10.5h-256q-14 0 -24.5 11t-10.5 24v465q0 8 -8 11.5t-17 -3.5q-111 -90 -239 -90 q-177 0 -287.5 131t-110.5 338zM379 463q0 -98 49 -153.5t137 -55.5q66 0 127 39q31 19 31 57v309q0 38 -31 60q-55 37 -127 37q-88 0 -137 -54.5t-49 -152.5v-86z" />
<glyph unicode="r" horiz-adv-x="845" d="M98 35v944q0 15 11 25t26 10h213q22 0 33 -21l22 -49q3 -6 12 -8t15 4q91 88 223 88q104 0 187 -57q11 -8 14 -21.5t-4 -25.5l-113 -183q-17 -27 -51 -10q-38 19 -84 19q-84 0 -145 -43q-31 -24 -31 -60v-612q0 -13 -11 -24t-24 -11h-256q-15 0 -26 10.5t-11 24.5z" />
<glyph unicode="s" horiz-adv-x="882" d="M62 127.5q-1 14.5 8 26.5l123 161q7 10 23 12.5t26 -5.5q95 -76 190 -76q51 0 77 18t26 43v6q0 29 -28 46.5t-108 31.5q-53 8 -94.5 20t-87 35t-76 54.5t-50 82.5t-19.5 115v9q0 144 109.5 236.5t273.5 92.5q167 0 303 -112q12 -9 13.5 -23.5t-7.5 -26.5l-121 -157 q-9 -12 -24 -13t-29 9q-67 49 -121 49q-35 0 -55.5 -16t-20.5 -41v-9q0 -35 34 -51t116 -29q42 -7 74 -14.5t70.5 -22t66 -35.5t51.5 -50.5t36.5 -72t12.5 -95.5v-9q0 -150 -111 -246t-294 -96q-214 0 -375 129q-11 9 -12 23.5z" />
<glyph unicode="t" horiz-adv-x="794" d="M0 848v131q0 15 10 25t25 10h96q9 0 16 7t7 17v228q0 15 10 26t24 11h258q14 0 24.5 -11t10.5 -26v-228q0 -10 7 -17t18 -7h211q15 0 25 -10t10 -25v-131q0 -15 -10 -26t-25 -11h-211q-10 0 -17.5 -7t-7.5 -16v-469q0 -31 25 -48t55 -17q45 0 82 18q13 5 28 1.5t21 -15.5 l96 -162q7 -14 2.5 -29.5t-18.5 -21.5q-135 -61 -274 -61q-344 0 -344 292v512q0 9 -7 16t-16 7h-96q-15 0 -25 11t-10 26z" />
<glyph unicode="u" horiz-adv-x="1116" d="M90 387v592q0 15 10.5 25t24.5 10h258q15 0 25 -10t10 -25v-584q0 -129 133 -129q58 0 106 31q33 23 33 59v623q0 15 10.5 25t24.5 10h256q15 0 26 -10t11 -25v-944q0 -14 -11 -24.5t-26 -10.5h-213q-23 0 -33 20l-26 56q-3 6 -10 7t-13 -5q-101 -96 -248 -96 q-163 0 -255.5 107.5t-92.5 297.5z" />
<glyph unicode="v" horiz-adv-x="1126" d="M25 971q-6 15 3.5 29t26.5 14h246q15 0 29 -9t18 -24l201 -594q3 -12 14 -12q12 0 15 12l200 594q4 15 18 24t29 9h246q17 0 27 -14t4 -29l-369 -940q-4 -13 -16.5 -22t-26.5 -9h-254q-14 0 -26.5 9t-16.5 22z" />
<glyph unicode="w" horiz-adv-x="1556" d="M43 975q-3 15 6.5 27t24.5 12h252q18 0 31 -10.5t16 -26.5l127 -584q3 -11 13 -11.5t15 9.5l199 506q5 12 17.5 20.5t27.5 8.5h12q15 0 27.5 -8.5t17.5 -20.5l199 -506q5 -10 15.5 -9.5t13.5 11.5l127 584q3 16 16 26.5t31 10.5h252q15 0 24 -12t6 -27l-253 -940 q-3 -15 -17 -25t-29 -10h-262q-31 0 -45 31l-112 286q-4 11 -17 11q-12 0 -16 -11l-113 -286q-14 -31 -45 -31h-262q-15 0 -28.5 10t-16.5 25z" />
<glyph unicode="x" horiz-adv-x="1126" d="M20.5 16q-6.5 16 4.5 29l358 473q11 14 0 29l-330 422q-11 13 -4 29t25 16h274q27 0 43 -23l156 -209q5 -8 16 -8q12 0 17 8l155 209q16 23 43 23h275q18 0 24.5 -16t-4.5 -29l-330 -422q-11 -15 0 -29l359 -473q11 -13 4 -29t-25 -16h-276q-29 0 -45 23l-180 249 q-6 9 -17 9q-10 0 -16 -9l-180 -249q-16 -23 -45 -23h-277q-18 0 -24.5 16z" />
<glyph unicode="y" horiz-adv-x="1144" d="M25 969q-6 14 2 29.5t26 15.5h250q30 0 43 -29l221 -541q3 -10 15 -10q11 0 14 10l213 541q13 29 43 29h240q17 0 25.5 -13t2.5 -30l-581 -1377q-12 -28 -45 -28h-224q-17 0 -26.5 15t-3.5 30l182 438q9 21 0 39z" />
<glyph unicode="z" horiz-adv-x="964" d="M29 35v8q0 18 10 35l424 665q8 12 2 24.5t-23 12.5h-315q-13 0 -24 11t-11 24v164q0 15 10.5 25t24.5 10h770q14 0 24.5 -10t10.5 -25v-8q0 -18 -10 -35l-420 -666q-8 -10 -1.5 -23.5t21.5 -13.5h361q15 0 25 -9.5t10 -24.5v-164q0 -14 -10 -24.5t-25 -10.5h-820 q-13 0 -23.5 10.5t-10.5 24.5z" />
<glyph unicode="{" horiz-adv-x="731" d="M124 724q0 16 11 26q111 106 111 231v528q0 195 162 283q16 8 28 2l178 -72q16 -6 21.5 -23t-6.5 -32q-68 -80 -68 -213v-473q0 -78 -34 -140t-78 -100q-7 -7 -7 -17.5t9 -16.5q110 -100 110 -242v-471q0 -135 68 -215q12 -12 7 -30.5t-22 -24.5l-168 -70q-19 -9 -38 2 q-162 92 -162 283v526q0 122 -111 233q-11 10 -11 26z" />
<glyph unicode="|" horiz-adv-x="688" d="M272 -283v2014q0 14 10 24t25 10h78q15 0 26 -10t11 -24v-2014q0 -15 -11 -25.5t-26 -10.5h-78q-14 0 -24.5 10t-10.5 26z" />
<glyph unicode="}" horiz-adv-x="731" d="M95 1697.5q5 18.5 22 24.5l168 70q19 10 39 -2q161 -91 161 -283v-526q0 -122 111 -233q10 -10 10 -26t-10 -26q-111 -106 -111 -231v-528q0 -196 -161 -283q-16 -8 -29 -2l-178 72q-16 6 -21.5 23t6.5 32q68 80 68 213v473q0 78 34.5 140t78.5 100q7 7 7 17.5t-9 16.5 q-111 101 -111 242v471q0 135 -68 215q-12 12 -7 30.5z" />
<glyph unicode="~" horiz-adv-x="1132" d="M62.5 518.5q1.5 18.5 13.5 30.5q25 26 47.5 45.5t59.5 43.5t86 37t106 13q28 0 55 -4t44 -7.5t42 -14.5t32.5 -14.5t33.5 -18t28 -15.5q83 -49 158 -49q90 0 176 82q15 14 40.5 11t35.5 -23l43 -66q9 -15 7.5 -34.5t-13.5 -32.5q-29 -29 -52.5 -48.5t-64 -46.5t-91 -41 t-106.5 -14q-33 0 -62 4t-57 14.5t-41 16.5t-42.5 22.5t-34.5 18.5q-89 49 -156 49q-88 0 -164 -71q-13 -13 -38 -8.5t-35 22.5l-43 63q-9 17 -7.5 35.5z" />
<glyph unicode="&#xa1;" horiz-adv-x="626" d="M137 852q0 73 51.5 123.5t124.5 50.5t124.5 -50.5t51.5 -123.5t-51.5 -123.5t-124.5 -50.5t-124.5 50.5t-51.5 123.5zM152 -399v911q0 14 10.5 24.5t25.5 10.5h252q15 0 26 -10.5t11 -24.5v-911q0 -14 -10 -24.5t-25 -10.5h-256q-14 0 -24 10t-10 25z" />
<glyph unicode="&#xa2;" horiz-adv-x="919" d="M61 451v112q0 175 130 311.5t323 159.5v150q0 14 10 24.5t25 10.5h78q15 0 26 -10.5t11 -24.5v-152q101 -14 196 -69q13 -7 16 -22.5t-4 -27.5l-102 -170q-6 -11 -19.5 -14.5t-25.5 2.5q-71 33 -145 33q-85 0 -141 -60.5t-56 -142.5v-106q0 -82 56 -143.5t141 -61.5 q65 0 141 35q12 5 26.5 0t20.5 -15l98 -172q8 -12 4 -27.5t-16 -21.5q-88 -52 -190 -67v-168q0 -15 -11 -26t-26 -11h-78q-14 0 -24.5 10t-10.5 27v166q-194 23 -323.5 159t-129.5 312z" />
<glyph unicode="&#xa3;" horiz-adv-x="1101" d="M61 645v146q0 15 11 24.5t26 9.5h62q24 0 22 27l-12 133q-17 208 116.5 343.5t362.5 135.5q161 0 305 -69q12 -6 17 -19.5t0 -25.5l-72 -181q-5 -14 -19.5 -20t-27.5 0q-70 33 -154 33q-94 0 -149 -55t-49 -150l10 -129q2 -9 9 -16t16 -7h147q15 0 26 -9.5t11 -24.5v-146 q0 -15 -11 -25t-26 -10h-125q-6 0 -10 -0.5t-10 -7t-5 -18.5l5 -47q6 -58 -8 -115t-35 -92q-6 -11 0.5 -23t19.5 -12h500q15 0 25 -11t10 -26v-223q0 -15 -10 -25t-25 -10h-867q-14 0 -24 10t-10 25v160q0 25 18 43q97 97 82 264l-8 86q0 9 -7 15.5t-16 6.5h-84 q-15 0 -26 10t-11 25z" />
<glyph unicode="&#xa5;" horiz-adv-x="1409" d="M16 1399q-9 15 0 31t29 16h287q27 0 41 -25l317 -608q5 -8 15 -8h2q7 0 12 8l317 608q14 25 41 25h287q20 0 29 -16t0 -31l-412 -744h111q14 0 24 -10.5t10 -23.5v-78q0 -14 -10.5 -24.5t-23.5 -10.5h-193l-20 -37q-11 -19 -11 -41v-70h224q14 0 24 -10t10 -24v-78 q0 -14 -10.5 -24.5t-23.5 -10.5h-224v-166q0 -20 -13.5 -33.5t-33.5 -13.5h-233q-20 0 -33.5 13.5t-13.5 33.5v166h-224q-15 0 -25.5 11.5t-10.5 25.5v76q0 14 10.5 24t25.5 10h224v70q0 22 -11 41l-20 37h-193q-15 0 -25.5 11.5t-10.5 25.5v76q0 14 10.5 24t25.5 10h111z " />
<glyph unicode="&#xa6;" horiz-adv-x="688" d="M272 -283v867q0 14 10 24t25 10h78q15 0 26 -10t11 -24v-867q0 -15 -11 -25.5t-26 -10.5h-78q-14 0 -24.5 10t-10.5 26zM272 864v867q0 14 10 24t25 10h78q15 0 26 -10t11 -24v-867q0 -15 -11 -26t-26 -11h-78q-14 0 -24.5 10t-10.5 27z" />
<glyph unicode="&#xa7;" horiz-adv-x="1249" d="M125 -207q-2 15 6 25l145 190q6 9 21.5 10t24.5 -8q58 -45 131.5 -72.5t142.5 -27.5q109 0 160 37t51 94v8q0 21 -6 37t-21 28t-30.5 19.5t-44.5 15.5t-52.5 12.5t-66 13t-72.5 15.5q-102 23 -165 46.5t-112.5 61.5t-70.5 93.5t-21 136.5v9q0 158 119 241q5 3 5.5 10.5 t-5.5 12.5q-96 87 -96 243v9q0 187 131.5 302t345.5 115q201 0 377 -135q9 -8 11 -21t-7 -24l-141 -186q-9 -13 -24 -15t-27 9q-85 73 -189 73q-78 0 -121 -30t-43 -86v-6q0 -58 56 -86.5t211 -63.5q91 -21 154 -44.5t115 -61t77.5 -92t25.5 -128.5v-8q0 -149 -119 -231 q-6 -5 -6 -12.5t6 -12.5q125 -86 125 -246v-8q0 -200 -146.5 -322t-383.5 -122q-119 0 -242.5 44t-216.5 114q-10 9 -12 24zM459 592q0 -74 36.5 -106t135.5 -56l123 -27q25 -6 34 17q19 51 19 80v4q0 67 -31 95t-123 52l-143 35q-28 6 -37 -18q-14 -40 -14 -70v-6z" />
<glyph unicode="&#xa8;" horiz-adv-x="409" d="M-129 1282q0 56 38.5 94.5t94.5 38.5t94.5 -38.5t38.5 -94.5t-38.5 -94.5t-94.5 -38.5t-94.5 38.5t-38.5 94.5zM270 1282q0 56 39 94.5t94 38.5q56 0 95 -39t39 -94t-39 -94t-95 -39q-55 0 -94 38.5t-39 94.5z" />
<glyph unicode="&#xa9;" horiz-adv-x="1548" d="M123 725q0 141 49.5 263t136 207.5t207.5 134t260 48.5q138 0 258 -48.5t206 -134t135.5 -207.5t49.5 -263t-49.5 -263t-135.5 -206.5t-206 -133t-258 -48.5q-139 0 -260 48t-207.5 133t-136 207t-49.5 263zM188 725q0 -128 44.5 -237.5t122.5 -185.5t187 -119.5 t234 -43.5q124 0 232 43.5t185.5 119.5t122 185.5t44.5 237.5t-44.5 237.5t-122 186.5t-185.5 120.5t-232 43.5q-125 0 -234 -43.5t-187 -120.5t-122.5 -186.5t-44.5 -237.5zM336 688v76q0 197 130 320.5t333 123.5q156 0 278 -88q17 -11 4 -33l-96 -122q-8 -8 -18.5 -9 t-20.5 7q-58 49 -147 49q-113 0 -176.5 -67t-63.5 -181v-76q0 -114 63.5 -180t176.5 -66q83 0 145 50q24 14 37 -3l100 -127q6 -6 4.5 -16t-8.5 -16q-117 -84 -278 -84q-207 0 -335 122t-128 320z" />
<glyph unicode="&#xaa;" horiz-adv-x="962" d="M82 997v84q0 173 95 276t226 103q64 0 110 -19.5t95 -60.5q6 -4 11.5 -2.5t7.5 6.5l20 43q9 19 31 19h168q11 0 18.5 -7.5t7.5 -19.5v-755q0 -11 -8 -20t-18 -9h-205q-12 0 -21.5 9t-9.5 20v24q0 6 -6 9t-12 -3q-94 -71 -193 -71q-141 0 -229 104t-88 270zM336 1006 q0 -78 39.5 -122t109.5 -44q63 0 101 30q24 15 24 45v248q0 32 -24 47q-45 31 -101 31q-70 0 -109.5 -44t-39.5 -122v-69z" />
<glyph unicode="&#xab;" horiz-adv-x="944" d="M82 512q0 11 6 20l227 318q10 16 29 16h125q12 0 16 -9t-2 -17l-182 -314q-4 -6 -4 -14t4 -14l182 -314q6 -8 2 -17t-16 -9h-125q-19 0 -29 16l-227 318q-6 9 -6 20zM457 512q0 11 6 20l227 318q10 16 29 16h125q12 0 16 -9t-2 -17l-182 -314q-4 -6 -4 -14t4 -14 l182 -314q6 -8 2 -17t-16 -9h-125q-19 0 -29 16l-227 318q-6 9 -6 20z" />
<glyph unicode="&#xac;" horiz-adv-x="1173" d="M102 821v160q0 14 11 24.5t26 10.5h895q15 0 26 -10.5t11 -24.5v-516q0 -14 -11 -24.5t-26 -10.5h-174q-14 0 -24.5 11t-10.5 24v299q0 9 -7 15.5t-17 6.5h-662q-15 0 -26 10.5t-11 24.5z" />
<glyph unicode="&#xad;" horiz-adv-x="761" d="M82 422v172q0 14 11 24.5t24 10.5h526q15 0 26 -10.5t11 -24.5v-172q0 -14 -11 -24.5t-26 -10.5h-526q-13 0 -24 10.5t-11 24.5z" />
<glyph unicode="&#xae;" horiz-adv-x="1042" d="M82 1040q0 193 125 317t315 124q189 0 314 -124.5t125 -316.5t-125 -316t-314 -124q-190 0 -315 124t-125 316zM143 1040q0 -166 107.5 -272t271.5 -106q163 0 270 106t107 272t-107.5 272.5t-269.5 106.5q-164 0 -271.5 -106.5t-107.5 -272.5zM326 784v527q0 12 14 12 h242q66 0 114.5 -52t48.5 -122v-6q0 -53 -26 -93t-68 -63q-10 -5 -6 -14q11 -41 41 -67t72 -29q10 -3 10 -15v-84q0 -12 -12 -12q-89 0 -152 52.5t-80 139.5q-4 11 -10 11h-53q-8 0 -8 -11v-174q0 -12 -15 -12h-98q-14 0 -14 12zM453 1071q0 -6 8 -6h80q31 0 50 19t19 51v6 q0 32 -18.5 51.5t-50.5 19.5h-80q-8 0 -8 -10v-131z" />
<glyph unicode="&#xaf;" horiz-adv-x="819" d="M94 1202v131q0 15 11 26t26 11h561q14 0 24.5 -11t10.5 -26v-131q0 -14 -10.5 -24.5t-24.5 -10.5h-561q-15 0 -26 10.5t-11 24.5z" />
<glyph unicode="&#xb0;" horiz-adv-x="528" d="M31 1245q0 98 66.5 160.5t166.5 62.5q101 0 167.5 -62.5t66.5 -160.5t-66.5 -160.5t-167.5 -62.5q-100 0 -166.5 62.5t-66.5 160.5zM166 1245q0 -47 26 -73.5t72 -26.5t72 26.5t26 73.5t-26 74t-72 27t-72 -27t-26 -74z" />
<glyph unicode="&#xb1;" horiz-adv-x="1173" d="M102 233v160q0 13 11 24t24 11h897q15 0 26 -10.5t11 -24.5v-157q0 -14 -11 -25.5t-26 -11.5h-897q-14 0 -24.5 10.5t-10.5 23.5zM102 842v157q0 14 11 24.5t26 10.5h310q9 0 16.5 7t7.5 16v239q0 15 10.5 26t24.5 11h160q14 0 24 -11t10 -26v-239q0 -9 8 -16t17 -7h309 q14 0 24.5 -11t10.5 -24v-159q0 -14 -10.5 -24.5t-24.5 -10.5h-309q-9 0 -17 -7t-8 -16v-239q0 -14 -10.5 -24.5t-23.5 -10.5h-160q-14 0 -24.5 11t-10.5 24v239q0 9 -7.5 16t-16.5 7h-310q-15 0 -26 11.5t-11 25.5z" />
<glyph unicode="&#xb2;" horiz-adv-x="745" d="M72 821v101q0 21 16 41l266 323q78 91 78 141v19q0 50 -33 79t-90 29q-59 0 -116 -24q-13 -7 -28.5 -2.5t-21.5 20.5l-47 119q-5 12 0 24.5t17 18.5q107 55 217 55q160 0 252 -82t92 -223v-22q0 -61 -36.5 -123t-102.5 -139l-117 -138q-10 -10 -5 -24.5t21 -14.5h184 q15 0 25 -10.5t10 -25.5v-142q0 -15 -10 -26t-25 -11h-509q-15 0 -26 11t-11 26z" />
<glyph unicode="&#xb3;" horiz-adv-x="727" d="M75.5 841.5q-4.5 12.5 0.5 24.5l47 121q15 31 49 19q54 -21 107 -21q58 0 96.5 34t38.5 85v12q0 54 -37.5 88.5t-97.5 34.5q-30 0 -78 -10q-10 -3 -21.5 2t-17.5 14l-19 29q-13 20 4 41l156 186q9 11 3 25t-21 14h-146q-13 0 -24 11t-11 24v143q0 14 11 24.5t24 10.5h457 q15 0 26 -10.5t11 -24.5v-110q0 -20 -15 -35l-161 -174q88 -25 143 -101t55 -178v-22q0 -140 -103.5 -233t-258.5 -93q-104 0 -201 51q-12 6 -16.5 18.5z" />
<glyph unicode="&#xb4;" horiz-adv-x="819" d="M157.5 1202q-1.5 19 12.5 29l258 217q11 9 28.5 10t32.5 -6l156 -86q19 -10 19 -30.5t-17 -30.5l-307 -189q-12 -7 -29.5 -7.5t-29.5 5.5l-107 60q-15 9 -16.5 28z" />
<glyph unicode="&#xb5;" horiz-adv-x="1116" d="M98 -399v1378q0 15 10.5 25t24.5 10h258q15 0 25 -10t10 -25v-629q0 -33 31 -57q39 -27 98 -27q54 0 102 31q33 23 33 59v623q0 15 10.5 25t24.5 10h256q15 0 26 -10t11 -25v-944q0 -14 -11 -24.5t-26 -10.5h-213q-23 0 -33 20l-26 56q-3 6 -10 7t-13 -5 q-73 -70 -164 -70q-26 0 -45 3t-28 3t-16 -5.5t-7 -14.5v-393q0 -14 -11 -24.5t-26 -10.5h-256q-13 0 -24 11t-11 24z" />
<glyph unicode="&#xb6;" horiz-adv-x="1638" d="M31 942v27q0 133 68.5 242.5t187.5 172t262 62.5h977q14 0 24.5 -11t10.5 -24v-225q0 -14 -10.5 -24.5t-24.5 -10.5h-82q-9 0 -16 -7.5t-7 -17.5v-1091q0 -15 -11 -25t-26 -10h-256q-15 0 -24.5 10t-9.5 25v1091q0 10 -8 17.5t-17 7.5h-172q-9 0 -16 -7.5t-7 -17.5v-1091 q0 -15 -10.5 -25t-25.5 -10h-256q-15 0 -25 10t-10 25v426q0 10 -8 17t-17 7q-212 8 -351.5 135.5t-139.5 321.5zM350 942q0 -89 47 -135.5t125 -46.5q9 0 17 7t8 17v342q0 10 -8 17.5t-17 7.5q-78 0 -125 -46.5t-47 -135.5v-27z" />
<glyph unicode="&#xb7;" horiz-adv-x="536" d="M92 729q0 73 51.5 123.5t124.5 50.5t124.5 -50.5t51.5 -123.5t-51.5 -123.5t-124.5 -50.5t-124.5 50.5t-51.5 123.5z" />
<glyph unicode="&#xb8;" horiz-adv-x="819" d="M181.5 -463.5q-5.5 13.5 0.5 27.5l21 53q4 12 20 17t29 -1q49 -18 98 -18q65 0 98 23t33 57v12q0 31 -33 54.5t-96 23.5q-53 0 -104 -23q-9 -4 -18.5 -1.5t-14.5 10.5l-8 12q-11 14 -2 29l112 188h142l-37 -63q-7 -10 -2.5 -21t18.5 -12q96 -9 150.5 -59.5t54.5 -129.5 v-24q0 -95 -79 -154t-204 -59q-73 0 -161 39q-12 6 -17.5 19.5z" />
<glyph unicode="&#xb9;" horiz-adv-x="540" d="M98 1593l84 144q10 16 31 16h149q14 0 24.5 -10.5t10.5 -24.5v-897q0 -15 -10.5 -26t-24.5 -11h-161q-14 0 -24.5 11t-10.5 26v695q0 10 -7 17t-16 7h-14q-19 0 -30 18t-1 35z" />
<glyph unicode="&#xba;" horiz-adv-x="989" d="M82 1004v71q0 161 119.5 271t294.5 110q173 0 292 -110t119 -271v-71q0 -161 -119 -271t-292 -110q-175 0 -294.5 110t-119.5 271zM338 1004q0 -73 43.5 -118.5t114.5 -45.5q69 0 112 45.5t43 118.5v71q0 74 -43 120t-112 46q-70 0 -114 -46t-44 -120v-71z" />
<glyph unicode="&#xbb;" horiz-adv-x="944" d="M84 167q-4 9 2 17l182 314q4 6 4 14t-4 14l-182 314q-6 8 -2 17t16 9h125q19 0 29 -16l227 -318q6 -9 6 -20t-6 -20l-227 -318q-10 -16 -29 -16h-125q-12 0 -16 9zM459 167q-4 9 2 17l182 314q4 6 4 14t-4 14l-182 314q-6 8 -2 17t16 9h125q19 0 29 -16l227 -318 q6 -9 6 -20t-6 -20l-227 -318q-10 -16 -29 -16h-125q-12 0 -16 9z" />
<glyph unicode="&#xbc;" horiz-adv-x="1513" d="M68 1286l84 144q10 16 30 16h150q14 0 24.5 -11t10.5 -24v-897q0 -15 -10.5 -26t-24.5 -11h-162q-14 0 -24.5 11t-10.5 26v694q0 10 -6.5 17.5t-15.5 7.5h-15q-19 0 -29.5 18t-0.5 35zM276 47l615 1364q12 35 51 35h139q21 0 31 -14t4 -33l-614 -1364q-12 -35 -51 -35 h-140q-22 0 -32.5 14t-2.5 33zM784 242v82q0 22 13 41l352 587q10 17 31 17h147q15 0 26 -10.5t11 -24.5v-518q0 -10 6.5 -17.5t15.5 -7.5h31q15 0 25 -10.5t10 -24.5v-114q0 -15 -10 -25t-25 -10h-31q-9 0 -15.5 -8t-6.5 -17v-145q0 -15 -11 -26t-26 -11h-160q-14 0 -24 11 t-10 26v145q0 9 -7.5 17t-17.5 8h-287q-15 0 -26 10t-11 25zM1042 400.5q6 -9.5 19 -9.5h47q10 0 17.5 7.5t7.5 17.5v98q0 14 -11.5 17t-19.5 -9l-60 -102q-6 -10 0 -19.5z" />
<glyph unicode="&#xbd;" horiz-adv-x="1611" d="M68 1286l84 144q10 16 30 16h150q14 0 24.5 -11t10.5 -24v-897q0 -15 -10.5 -26t-24.5 -11h-162q-14 0 -24.5 11t-10.5 26v694q0 10 -6.5 17.5t-15.5 7.5h-15q-19 0 -29.5 18t-0.5 35zM276 47l615 1364q12 35 51 35h139q21 0 31 -14t4 -33l-614 -1364q-12 -35 -51 -35 h-140q-21 0 -31 14t-4 33zM948 37v100q0 20 17 41l266 324q78 91 78 141v19q0 50 -33 79t-90 29q-58 0 -117 -25q-13 -7 -28 -2t-21 21l-47 119q-5 12 -0.5 24.5t16.5 18.5q107 55 217 55q160 0 252 -82t92 -223v-23q0 -61 -36.5 -123t-102.5 -139l-117 -137 q-10 -10 -5 -24.5t22 -14.5h184q15 0 25 -11t10 -26v-141q0 -15 -10 -26t-25 -11h-510q-15 0 -26 11t-11 26z" />
<glyph unicode="&#xbe;" horiz-adv-x="1687" d="M69.5 534.5q-4.5 12.5 0.5 24.5l47 121q15 30 49 18q52 -20 106 -20q58 0 97 34t39 85v12q0 54 -38 88.5t-98 34.5q-39 0 -77 -10q-10 -3 -21.5 2t-17.5 14l-19 29q-13 20 4 41l156 186q9 10 3 24.5t-21 14.5h-146q-13 0 -24 10.5t-11 24.5v143q0 13 11 24t24 11h457 q15 0 26 -10.5t11 -24.5v-111q0 -19 -15 -34l-161 -174q88 -25 143 -101t55 -178v-22q0 -140 -103.5 -233t-258.5 -93q-104 0 -201 51q-12 6 -16.5 18.5zM473 47l614 1364q12 35 52 35h139q21 0 31 -14t4 -33l-615 -1364q-12 -35 -51 -35h-139q-22 0 -32.5 14t-2.5 33z M958 242v82q0 22 13 41l352 587q10 17 31 17h147q15 0 26 -10.5t11 -24.5v-518q0 -10 7 -17.5t16 -7.5h30q15 0 25 -10.5t10 -24.5v-114q0 -15 -10 -25t-25 -10h-30q-9 0 -16 -8t-7 -17v-145q0 -15 -11 -26t-26 -11h-160q-14 0 -24 11t-10 26v145q0 9 -7.5 17t-17.5 8h-287 q-15 0 -26 10t-11 25zM1216.5 400.5q5.5 -9.5 18.5 -9.5h47q10 0 17.5 7.5t7.5 17.5v98q0 14 -11.5 17t-19.5 -9l-59 -102q-6 -10 -0.5 -19.5z" />
<glyph unicode="&#xbf;" horiz-adv-x="1017" d="M41 -14q0 138 53 214.5t172 143.5q68 37 105 77.5t37 92.5v6q0 13 11 23t25 10h236q15 0 25 -11t10 -26v-6q0 -68 -14 -118.5t-46 -89t-60.5 -61.5t-80.5 -57q-81 -50 -111 -83.5t-30 -92.5v-8q0 -63 44.5 -99t121.5 -36q124 0 211 76q12 9 27.5 7.5t25.5 -14.5l145 -188 q9 -11 7 -26t-13 -23q-99 -78 -195 -114t-208 -36q-223 0 -360.5 118.5t-137.5 311.5v9zM383 852q0 73 51.5 123.5t124.5 50.5t124.5 -50.5t51.5 -123.5t-51.5 -123.5t-124.5 -50.5t-124.5 50.5t-51.5 123.5z" />
<glyph unicode="&#xc0;" horiz-adv-x="1327" d="M12 43l584 1374q13 29 43 29h49q30 0 43 -29l584 -1374q6 -17 -4.5 -30t-26.5 -13h-266q-32 0 -45 29l-47 116q-14 31 -43 31h-439q-29 0 -43 -31l-47 -116q-13 -29 -45 -29h-266q-16 0 -26.5 13t-4.5 30zM409 1767.5q0 20.5 19 30.5l156 86q15 7 32.5 6t28.5 -10 l258 -217q14 -10 12.5 -29t-16.5 -28l-106 -60q-12 -6 -30 -5.5t-30 7.5l-307 189q-17 10 -17 30.5zM518 440q-3 -8 1 -15t13 -7h263q9 0 13 7t1 15l-131 320q-3 10 -14 10q-12 0 -15 -10z" />
<glyph unicode="&#xc1;" horiz-adv-x="1327" d="M12 43l584 1374q13 29 43 29h49q30 0 43 -29l584 -1374q6 -17 -4.5 -30t-26.5 -13h-266q-32 0 -45 29l-47 116q-14 31 -43 31h-439q-29 0 -43 -31l-47 -116q-13 -29 -45 -29h-266q-16 0 -26.5 13t-4.5 30zM409.5 1634q-1.5 19 12.5 29l258 217q11 9 28.5 10t32.5 -6 l156 -86q19 -10 19 -30.5t-17 -30.5l-307 -189q-12 -7 -30 -7.5t-30 5.5l-106 60q-15 9 -16.5 28zM518 440q-3 -8 1 -15t13 -7h263q9 0 13 7t1 15l-131 320q-3 10 -14 10q-12 0 -15 -10z" />
<glyph unicode="&#xc2;" horiz-adv-x="1327" d="M12 43l584 1374q13 29 43 29h49q30 0 43 -29l584 -1374q6 -17 -4.5 -30t-26.5 -13h-266q-32 0 -45 29l-47 116q-14 31 -43 31h-439q-29 0 -43 -31l-47 -116q-13 -29 -45 -29h-266q-16 0 -26.5 13t-4.5 30zM338.5 1637.5q-1.5 18.5 13.5 27.5l293 209q9 6 19 6q9 0 18 -6 l293 -209q15 -9 13.5 -27.5t-15.5 -27.5l-88 -54q-19 -11 -37 0l-172 101q-4 2 -12 2q-9 0 -13 -2l-172 -101q-18 -11 -37 0l-88 54q-14 9 -15.5 27.5zM518 440q-3 -8 1 -15t13 -7h263q9 0 13 7t1 15l-131 320q-3 10 -14 10q-12 0 -15 -10z" />
<glyph unicode="&#xc3;" horiz-adv-x="1327" d="M12 43l584 1374q13 29 43 29h49q30 0 43 -29l584 -1374q6 -17 -4.5 -30t-26.5 -13h-266q-32 0 -45 29l-47 116q-14 31 -43 31h-439q-29 0 -43 -31l-47 -116q-13 -29 -45 -29h-266q-16 0 -26.5 13t-4.5 30zM338 1716q-14 21 4 39q83 88 195 88q33 0 63 -7t43 -13t39 -19 q58 -30 96 -30q53 0 105 36q9 7 23.5 4t21.5 -14l59 -96q6 -9 5 -21t-9 -20q-89 -94 -205 -94q-12 0 -22.5 0.5t-21 2.5t-18 3t-17 4.5t-14.5 5t-14.5 5.5t-12.5 5.5l-13 6.5l-12 6q-54 30 -96 30q-48 0 -97 -30q-9 -6 -22.5 -3t-20.5 15zM518 440q-3 -8 1 -15t13 -7h263 q9 0 13 7t1 15l-131 320q-3 10 -14 10q-12 0 -15 -10z" />
<glyph unicode="&#xc4;" horiz-adv-x="1327" d="M12 43l584 1374q13 29 43 29h49q30 0 43 -29l584 -1374q6 -17 -4.5 -30t-26.5 -13h-266q-32 0 -45 29l-47 116q-14 31 -43 31h-439q-29 0 -43 -31l-47 -116q-13 -29 -45 -29h-266q-16 0 -26.5 13t-4.5 30zM330 1714q0 56 39 94.5t94 38.5t94 -38.5t39 -94.5t-39 -94.5 t-94 -38.5t-94 38.5t-39 94.5zM518 440q-3 -8 1 -15t13 -7h263q9 0 13 7t1 15l-131 320q-3 10 -14 10q-12 0 -15 -10zM729 1714q0 56 38.5 94.5t94.5 38.5t94.5 -38.5t38.5 -94.5t-38.5 -94.5t-94.5 -38.5t-94.5 38.5t-38.5 94.5z" />
<glyph unicode="&#xc5;" horiz-adv-x="1327" d="M12 43l584 1374q13 29 43 29h49q30 0 43 -29l584 -1374q6 -17 -4.5 -30t-26.5 -13h-266q-32 0 -45 29l-47 116q-14 31 -43 31h-439q-29 0 -43 -31l-47 -116q-13 -29 -45 -29h-266q-16 0 -26.5 13t-4.5 30zM469 1714q0 81 55.5 134t139.5 53t139 -53t55 -134t-55 -133.5 t-139 -52.5t-139.5 52.5t-55.5 133.5zM518 440q-3 -8 1 -15t13 -7h263q9 0 13 7t1 15l-131 320q-3 10 -14 10q-12 0 -15 -10zM582 1714q0 -40 22 -62t60 -22t59.5 22t21.5 62t-21.5 62t-59.5 22t-60 -22t-22 -62z" />
<glyph unicode="&#xc6;" horiz-adv-x="1695" d="M14 43l584 1374q13 29 43 29h936q15 0 26 -10.5t11 -24.5v-225q0 -14 -11 -24.5t-26 -10.5h-709q-9 0 -12.5 -7t0.5 -16l109 -254q11 -22 32 -22h412q15 0 26 -11t11 -26v-197q0 -14 -11 -24t-26 -10h-299q-9 0 -12.5 -7t0.5 -18l102 -242q11 -22 33 -22h344 q15 0 26 -10.5t11 -24.5v-225q0 -14 -11 -24.5t-26 -10.5h-557q-32 0 -45 29l-47 116q-14 31 -43 31h-439q-29 0 -43 -31l-47 -116q-13 -29 -45 -29h-266q-16 0 -27 13.5t-4 29.5zM520 440q-3 -8 1.5 -15t13.5 -7h262q9 0 13 7t1 15l-131 320q-3 10 -14 10q-12 0 -15 -10z " />
<glyph unicode="&#xc7;" horiz-adv-x="1267" d="M82 662v118q0 201 88 358t243.5 242.5t352.5 85.5q238 0 416 -135q13 -10 13.5 -25.5t-7.5 -25.5l-146 -190q-10 -11 -25 -13.5t-28 8.5q-90 78 -223 78q-165 0 -258.5 -104t-93.5 -279v-118q0 -174 93.5 -276.5t258.5 -102.5q128 0 221 75q12 10 27 9.5t24 -11.5 l150 -194q9 -10 7.5 -26t-13.5 -25q-161 -122 -383 -131l-25 -43q-7 -10 -2 -21t19 -12q96 -9 150 -59.5t54 -129.5v-24q0 -95 -78.5 -154t-203.5 -59q-74 0 -162 39q-12 6 -17 19.5t1 27.5l20 53q4 12 20 17t29 -1q50 -18 98 -18q65 0 98.5 23t33.5 57v12q0 31 -33 54.5 t-96 23.5q-54 0 -105 -23q-9 -4 -18.5 -1.5t-14.5 10.5l-8 12q-11 14 -2 29l105 174q-262 32 -421 215.5t-159 460.5z" />
<glyph unicode="&#xc8;" horiz-adv-x="1212" d="M133 35v1376q0 13 10.5 24t24.5 11h926q15 0 25.5 -10.5t10.5 -24.5v-225q0 -14 -10.5 -24.5t-25.5 -10.5h-611q-9 0 -15.5 -7t-6.5 -16v-254q0 -9 6.5 -15.5t15.5 -6.5h443q15 0 26 -11t11 -26v-197q0 -14 -11 -24t-26 -10h-443q-9 0 -15.5 -7.5t-6.5 -17.5v-242 q0 -9 6.5 -15.5t15.5 -6.5h611q15 0 25.5 -10.5t10.5 -24.5v-225q0 -14 -10.5 -24.5t-25.5 -10.5h-926q-14 0 -24.5 11t-10.5 24zM391 1767.5q0 20.5 19 30.5l155 86q15 7 33 6t29 -10l258 -217q14 -10 12.5 -29t-16.5 -28l-107 -60q-12 -6 -29.5 -5.5t-29.5 7.5l-307 189 q-17 10 -17 30.5z" />
<glyph unicode="&#xc9;" horiz-adv-x="1212" d="M133 35v1376q0 13 10.5 24t24.5 11h926q15 0 25.5 -10.5t10.5 -24.5v-225q0 -14 -10.5 -24.5t-25.5 -10.5h-611q-9 0 -15.5 -7t-6.5 -16v-254q0 -9 6.5 -15.5t15.5 -6.5h443q15 0 26 -11t11 -26v-197q0 -14 -11 -24t-26 -10h-443q-9 0 -15.5 -7.5t-6.5 -17.5v-242 q0 -9 6.5 -15.5t15.5 -6.5h611q15 0 25.5 -10.5t10.5 -24.5v-225q0 -14 -10.5 -24.5t-25.5 -10.5h-926q-14 0 -24.5 11t-10.5 24zM376.5 1634q-1.5 19 12.5 29l258 217q11 9 29 10t33 -6l155 -86q19 -10 19 -30.5t-17 -30.5l-307 -189q-12 -7 -29.5 -7.5t-29.5 5.5l-107 60 q-15 9 -16.5 28z" />
<glyph unicode="&#xca;" horiz-adv-x="1212" d="M133 35v1376q0 13 10.5 24t24.5 11h926q15 0 25.5 -10.5t10.5 -24.5v-225q0 -14 -10.5 -24.5t-25.5 -10.5h-611q-9 0 -15.5 -7t-6.5 -16v-254q0 -9 6.5 -15.5t15.5 -6.5h443q15 0 26 -11t11 -26v-197q0 -14 -11 -24t-26 -10h-443q-9 0 -15.5 -7.5t-6.5 -17.5v-242 q0 -9 6.5 -15.5t15.5 -6.5h611q15 0 25.5 -10.5t10.5 -24.5v-225q0 -14 -10.5 -24.5t-25.5 -10.5h-926q-14 0 -24.5 11t-10.5 24zM314.5 1637.5q-1.5 18.5 13.5 27.5l293 209q9 6 18 6t18 -6l293 -209q15 -9 13.5 -27.5t-15.5 -27.5l-88 -54q-18 -11 -37 0l-172 101 q-4 2 -12 2t-12 -2l-172 -101q-19 -11 -37 0l-88 54q-14 9 -15.5 27.5z" />
<glyph unicode="&#xcb;" horiz-adv-x="1212" d="M133 35v1376q0 13 10.5 24t24.5 11h926q15 0 25.5 -10.5t10.5 -24.5v-225q0 -14 -10.5 -24.5t-25.5 -10.5h-611q-9 0 -15.5 -7t-6.5 -16v-254q0 -9 6.5 -15.5t15.5 -6.5h443q15 0 26 -11t11 -26v-197q0 -14 -11 -24t-26 -10h-443q-9 0 -15.5 -7.5t-6.5 -17.5v-242 q0 -9 6.5 -15.5t15.5 -6.5h611q15 0 25.5 -10.5t10.5 -24.5v-225q0 -14 -10.5 -24.5t-25.5 -10.5h-926q-14 0 -24.5 11t-10.5 24zM311 1714q0 56 38.5 94.5t94.5 38.5t95 -39t39 -94t-39 -94t-95 -39t-94.5 38.5t-38.5 94.5zM711 1714q0 56 38.5 94.5t94.5 38.5t94.5 -38.5 t38.5 -94.5t-38.5 -94.5t-94.5 -38.5t-94.5 38.5t-38.5 94.5z" />
<glyph unicode="&#xcc;" horiz-adv-x="593" d="M42 1767.5q0 20.5 19 30.5l156 86q15 7 33 6t29 -10l258 -217q13 -11 11.5 -29.5t-16.5 -27.5l-106 -60q-12 -6 -29.5 -5.5t-29.5 7.5l-308 189q-17 10 -17 30.5zM133 35v1376q0 13 10.5 24t24.5 11h258q14 0 24.5 -11t10.5 -24v-1376q0 -13 -10.5 -24t-24.5 -11h-258 q-14 0 -24.5 11t-10.5 24z" />
<glyph unicode="&#xcd;" horiz-adv-x="593" d="M42.5 1634q-1.5 19 12.5 29l258 217q11 9 29 10t33 -6l155 -86q19 -10 19 -30.5t-17 -30.5l-307 -189q-12 -7 -29.5 -7.5t-29.5 5.5l-107 60q-15 9 -16.5 28zM133 35v1376q0 13 10.5 24t24.5 11h258q14 0 24.5 -11t10.5 -24v-1376q0 -13 -10.5 -24t-24.5 -11h-258 q-14 0 -24.5 11t-10.5 24z" />
<glyph unicode="&#xce;" horiz-adv-x="593" d="M-27.5 1637.5q-1.5 18.5 13.5 27.5l293 209q9 6 18 6t18 -6l293 -209q15 -9 13.5 -27.5t-15.5 -27.5l-88 -54q-19 -11 -37 0l-172 101q-4 2 -12 2t-12 -2l-172 -101q-19 -11 -37 0l-88 54q-14 9 -15.5 27.5zM133 35v1376q0 13 10.5 24t24.5 11h258q14 0 24.5 -11 t10.5 -24v-1376q0 -13 -10.5 -24t-24.5 -11h-258q-14 0 -24.5 11t-10.5 24z" />
<glyph unicode="&#xcf;" horiz-adv-x="593" d="M-37 1714q0 56 38.5 94.5t94.5 38.5t94.5 -38.5t38.5 -94.5t-38.5 -94.5t-94.5 -38.5t-94.5 38.5t-38.5 94.5zM133 35v1376q0 13 10.5 24t24.5 11h258q14 0 24.5 -11t10.5 -24v-1376q0 -13 -10.5 -24t-24.5 -11h-258q-14 0 -24.5 11t-10.5 24zM362 1714q0 55 39 94t95 39 t94.5 -38.5t38.5 -94.5t-38.5 -94.5t-94.5 -38.5t-95 39t-39 94z" />
<glyph unicode="&#xd0;" horiz-adv-x="1417" d="M25 659v111q0 15 10.5 26t25.5 11h50q9 0 15.5 6.5t6.5 15.5v582q0 13 10.5 24t24.5 11h483q307 0 495.5 -183.5t188.5 -482.5v-118q0 -133 -38.5 -244t-104 -187t-153.5 -129t-185.5 -77.5t-202.5 -24.5h-483q-14 0 -24.5 11t-10.5 24v567q0 9 -6.5 16t-15.5 7h-50 q-15 0 -25.5 10t-10.5 24zM461 317q0 -9 6.5 -15.5t15.5 -6.5h168q163 0 258 99t95 268v118q0 172 -95 271.5t-258 99.5h-168q-9 0 -15.5 -7t-6.5 -16v-299q0 -9 6.5 -15.5t15.5 -6.5h52q14 0 24 -11t10 -26v-111q0 -13 -10.5 -23.5t-23.5 -10.5h-52q-9 0 -15.5 -7t-6.5 -16 v-285z" />
<glyph unicode="&#xd1;" horiz-adv-x="1472" d="M133 35v1376q0 14 11 24.5t26 10.5h31q20 0 32 -12l752 -750q6 -7 16.5 -4t10.5 14v717q0 14 10 24.5t25 10.5h256q15 0 25.5 -10.5t10.5 -24.5v-1376q0 -14 -10.5 -24.5t-25.5 -10.5h-35q-23 0 -39 16l-740 746q-7 8 -17.5 5t-10.5 -15v-717q0 -14 -10 -24.5t-25 -10.5 h-256q-15 0 -26 10.5t-11 24.5zM424 1716q-14 21 4 39q83 88 195 88q33 0 63 -7t43 -13t39 -19q58 -30 96 -30q53 0 105 36q9 7 23.5 4t21.5 -14l59 -96q6 -9 5 -21t-9 -20q-89 -94 -205 -94q-12 0 -22.5 0.5t-21 2.5t-18 3t-17 4.5t-14.5 5t-14.5 5.5t-12.5 5.5l-13 6.5 l-12 6q-54 30 -96 30q-48 0 -97 -30q-9 -6 -22.5 -3t-20.5 15z" />
<glyph unicode="&#xd2;" horiz-adv-x="1531" d="M82 664v118q0 201 86.5 356.5t242.5 241.5t355 86t355 -86t242.5 -241.5t86.5 -356.5v-118q0 -305 -190.5 -494.5t-493.5 -189.5t-493.5 189.5t-190.5 494.5zM414 664q0 -181 94 -281t258 -100t258 100t94 281v118q0 180 -94 280.5t-258 100.5t-258 -100.5t-94 -280.5 v-118zM511 1767.5q0 20.5 19 30.5l156 86q15 7 33 6t29 -10l258 -217q13 -11 11.5 -29.5t-16.5 -27.5l-106 -60q-12 -6 -29.5 -5.5t-29.5 7.5l-308 189q-17 10 -17 30.5z" />
<glyph unicode="&#xd3;" horiz-adv-x="1531" d="M82 664v118q0 201 86.5 356.5t242.5 241.5t355 86t355 -86t242.5 -241.5t86.5 -356.5v-118q0 -305 -190.5 -494.5t-493.5 -189.5t-493.5 189.5t-190.5 494.5zM414 664q0 -181 94 -281t258 -100t258 100t94 281v118q0 180 -94 280.5t-258 100.5t-258 -100.5t-94 -280.5 v-118zM511.5 1634q-1.5 19 12.5 29l258 217q11 9 29 10t33 -6l155 -86q19 -10 19 -30.5t-17 -30.5l-307 -189q-12 -7 -29.5 -7.5t-29.5 5.5l-107 60q-15 9 -16.5 28z" />
<glyph unicode="&#xd4;" horiz-adv-x="1531" d="M82 664v118q0 201 86.5 356.5t242.5 241.5t355 86t355 -86t242.5 -241.5t86.5 -356.5v-118q0 -305 -190.5 -494.5t-493.5 -189.5t-493.5 189.5t-190.5 494.5zM414 664q0 -181 94 -281t258 -100t258 100t94 281v118q0 180 -94 280.5t-258 100.5t-258 -100.5t-94 -280.5 v-118zM441.5 1637.5q-1.5 18.5 13.5 27.5l293 209q9 6 18 6t18 -6l293 -209q15 -9 13.5 -27.5t-15.5 -27.5l-88 -54q-19 -11 -37 0l-172 101q-4 2 -12 2t-12 -2l-172 -101q-18 -11 -37 0l-88 54q-14 9 -15.5 27.5z" />
<glyph unicode="&#xd5;" horiz-adv-x="1531" d="M82 664v118q0 201 86.5 356.5t242.5 241.5t355 86t355 -86t242.5 -241.5t86.5 -356.5v-118q0 -305 -190.5 -494.5t-493.5 -189.5t-493.5 189.5t-190.5 494.5zM414 664q0 -181 94 -281t258 -100t258 100t94 281v118q0 180 -94 280.5t-258 100.5t-258 -100.5t-94 -280.5 v-118zM440 1716q-14 21 4 39q83 88 195 88q33 0 63 -7t43 -13t39 -19q58 -30 97 -30q52 0 104 36q9 7 23.5 4t21.5 -14l60 -96q6 -9 4.5 -21t-9.5 -20q-89 -94 -204 -94q-11 0 -21 0.5t-18 1.5t-17.5 3t-15 3.5t-14.5 4.5t-13 4.5t-13 5.5t-11.5 5t-12 5.5t-10.5 5.5 q-54 30 -96 30q-47 0 -96 -30q-9 -6 -22.5 -3t-20.5 15z" />
<glyph unicode="&#xd6;" horiz-adv-x="1531" d="M82 664v118q0 201 86.5 356.5t242.5 241.5t355 86t355 -86t242.5 -241.5t86.5 -356.5v-118q0 -305 -190.5 -494.5t-493.5 -189.5t-493.5 189.5t-190.5 494.5zM414 664q0 -181 94 -281t258 -100t258 100t94 281v118q0 180 -94 280.5t-258 100.5t-258 -100.5t-94 -280.5 v-118zM432 1714q0 56 39 94.5t94 38.5t94 -38.5t39 -94.5t-39 -94.5t-94 -38.5t-94 38.5t-39 94.5zM831 1714q0 55 39 94t95 39q55 0 94 -38.5t39 -94.5t-39 -94.5t-94 -38.5q-56 0 -95 39t-39 94z" />
<glyph unicode="&#xd7;" horiz-adv-x="995" d="M52.5 425q0.5 16 10.5 26l256 256q6 6 6 16t-6 16l-256 258q-10 10 -10.5 26t8.5 26l113 112q10 9 25.5 8.5t25.5 -10.5l256 -258q16 -13 35 2l254 256q10 9 25.5 9t25.5 -9l113 -112q9 -11 9 -26t-9 -24l-256 -256q-6 -6 -7 -16t5 -16l258 -258q9 -9 9 -24t-9 -26 l-113 -112q-11 -9 -26 -9t-25 9l-256 258q-6 6 -16.5 5t-16.5 -7l-256 -256q-11 -10 -26.5 -9.5t-26.5 9.5l-111 110q-9 10 -8.5 26z" />
<glyph unicode="&#xd8;" horiz-adv-x="1531" d="M82 664v118q0 201 86.5 356.5t242.5 241.5t355 86q106 0 201 -24l32 71q15 35 52 35h147q22 0 32.5 -14t2.5 -33l-68 -149q135 -89 210 -236.5t75 -333.5v-118q0 -305 -190.5 -494.5t-493.5 -189.5q-105 0 -207 26l-33 -74q-15 -34 -51 -34h-147q-22 0 -32.5 14t-2.5 33 l67 149q-132 90 -205 237.5t-73 332.5zM414 664q0 -167 82 -269l342 762q-34 6 -72 6q-164 0 -258 -100.5t-94 -280.5v-118zM686 289q37 -6 80 -6q164 0 258 100t94 281v118q0 170 -86 273z" />
<glyph unicode="&#xd9;" horiz-adv-x="1447" d="M123 571v840q0 14 11 24.5t26 10.5h256q15 0 25 -10.5t10 -24.5v-840q0 -135 71.5 -211.5t200.5 -76.5q130 0 202 76t72 212v840q0 13 10.5 24t24.5 11h258q14 0 24.5 -11t10.5 -24v-840q0 -264 -167.5 -427.5t-434.5 -163.5q-265 0 -432.5 163.5t-167.5 427.5z M470 1767.5q0 20.5 19 30.5l156 86q15 7 33 6t29 -10l258 -217q14 -10 12.5 -29t-16.5 -28l-107 -60q-12 -6 -29.5 -5.5t-29.5 7.5l-308 189q-17 10 -17 30.5z" />
<glyph unicode="&#xda;" horiz-adv-x="1447" d="M123 571v840q0 14 11 24.5t26 10.5h256q15 0 25 -10.5t10 -24.5v-840q0 -135 71.5 -211.5t200.5 -76.5q130 0 202 76t72 212v840q0 13 10.5 24t24.5 11h258q14 0 24.5 -11t10.5 -24v-840q0 -264 -167.5 -427.5t-434.5 -163.5q-265 0 -432.5 163.5t-167.5 427.5z M470.5 1634q-1.5 19 12.5 29l258 217q11 9 29 10t33 -6l155 -86q19 -10 19.5 -30.5t-16.5 -30.5l-308 -189q-12 -7 -29.5 -7.5t-29.5 5.5l-107 60q-15 9 -16.5 28z" />
<glyph unicode="&#xdb;" horiz-adv-x="1447" d="M123 571v840q0 14 11 24.5t26 10.5h256q15 0 25 -10.5t10 -24.5v-840q0 -135 71.5 -211.5t200.5 -76.5q130 0 202 76t72 212v840q0 13 10.5 24t24.5 11h258q14 0 24.5 -11t10.5 -24v-840q0 -264 -167.5 -427.5t-434.5 -163.5q-265 0 -432.5 163.5t-167.5 427.5z M398.5 1637.5q-1.5 18.5 13.5 27.5l293 209q9 6 18 6t18 -6l293 -209q15 -9 13.5 -27.5t-15.5 -27.5l-88 -54q-18 -11 -37 0l-172 101q-4 2 -12 2t-12 -2l-172 -101q-18 -11 -37 0l-88 54q-14 9 -15.5 27.5z" />
<glyph unicode="&#xdc;" horiz-adv-x="1447" d="M123 571v840q0 14 11 24.5t26 10.5h256q15 0 25 -10.5t10 -24.5v-840q0 -135 71.5 -211.5t200.5 -76.5q130 0 202 76t72 212v840q0 13 10.5 24t24.5 11h258q14 0 24.5 -11t10.5 -24v-840q0 -264 -167.5 -427.5t-434.5 -163.5q-265 0 -432.5 163.5t-167.5 427.5zM391 1714 q0 56 38.5 94.5t94.5 38.5t94.5 -38.5t38.5 -94.5t-38.5 -94.5t-94.5 -38.5t-94.5 38.5t-38.5 94.5zM791 1714q0 56 38.5 94.5t94.5 38.5t94.5 -38.5t38.5 -94.5t-38.5 -94.5t-94.5 -38.5t-94.5 38.5t-38.5 94.5z" />
<glyph unicode="&#xdd;" horiz-adv-x="1409" d="M16 1399q-9 15 0 31t29 16h287q27 0 41 -25l317 -608q5 -8 15 -8h2q7 0 12 8l317 608q14 25 41 25h287q20 0 29 -16t0 -31l-514 -928q-11 -19 -11 -41v-383q0 -20 -13.5 -33.5t-33.5 -13.5h-233q-20 0 -33.5 13.5t-13.5 33.5v383q0 22 -11 41zM450.5 1634 q-1.5 19 12.5 29l258 217q11 9 28.5 10t32.5 -6l156 -86q19 -10 19 -30.5t-17 -30.5l-307 -189q-12 -7 -30 -7.5t-30 5.5l-106 60q-15 9 -16.5 28z" />
<glyph unicode="&#xde;" horiz-adv-x="1267" d="M133 35v1376q0 15 10 25t25 10h256q15 0 25 -10t10 -25v-172q0 -10 7.5 -17.5t16.5 -7.5h328q114 0 212 -62t156 -167.5t58 -228.5v-15q0 -201 -127 -336t-319 -135h-308q-9 0 -16.5 -6.5t-7.5 -15.5v-213q0 -15 -10 -25t-25 -10h-256q-15 0 -25 10t-10 25zM459 561 q0 -10 7.5 -17t16.5 -7h207q82 0 130 49.5t48 134.5v14q0 86 -48.5 135.5t-131.5 49.5h-205q-9 0 -16.5 -7.5t-7.5 -17.5v-334z" />
<glyph unicode="&#xdf;" horiz-adv-x="1191" d="M98 35v993q0 167 131.5 280t331.5 113h39q207 0 332 -111.5t125 -267.5v-16q0 -132 -109 -229q-8 -6 -8 -16t8 -15q86 -51 134 -135.5t48 -186.5v-14q0 -124 -60.5 -223t-163.5 -153t-226 -54h-115q-14 0 -24.5 10t-10.5 25v184q0 15 10.5 25t24.5 10h43q79 0 125.5 49.5 t46.5 122.5v16q0 29 -7 54t-24 50t-51 39.5t-82 14.5h-51q-14 0 -24.5 10t-10.5 25v162q0 15 10.5 24.5t24.5 9.5h19q64 0 103.5 40.5t39.5 105.5v14q0 65 -38.5 107.5t-100.5 42.5h-19q-63 0 -103 -43t-40 -111v-952q0 -14 -10 -24.5t-25 -10.5h-258q-15 0 -25 10.5 t-10 24.5z" />
<glyph unicode="&#xe0;" d="M61 453v104q0 109 33.5 199.5t90 149.5t129 91.5t151.5 32.5q81 0 137 -23.5t119 -74.5q13 -13 22 4l25 53q12 25 39 25h209q14 0 24.5 -10t10.5 -25v-944q0 -13 -10.5 -24t-24.5 -11h-256q-15 0 -26 10.5t-11 24.5v31q0 8 -8 11.5t-17 -3.5q-59 -45 -114.5 -67.5 t-124.5 -22.5q-177 0 -287.5 131t-110.5 338zM341 1335.5q0 20.5 19 30.5l156 86q15 7 33 6t29 -10l258 -217q13 -11 11.5 -29.5t-16.5 -27.5l-106 -60q-12 -6 -29.5 -5.5t-29.5 7.5l-308 189q-17 10 -17 30.5zM379 463q0 -98 49 -153.5t137 -55.5q66 0 127 39q31 19 31 57 v309q0 38 -31 60q-55 37 -127 37q-88 0 -137 -54.5t-49 -152.5v-86z" />
<glyph unicode="&#xe1;" d="M61 453v104q0 109 33.5 199.5t90 149.5t129 91.5t151.5 32.5q81 0 137 -23.5t119 -74.5q13 -13 22 4l25 53q12 25 39 25h209q14 0 24.5 -10t10.5 -25v-944q0 -13 -10.5 -24t-24.5 -11h-256q-15 0 -26 10.5t-11 24.5v31q0 8 -8 11.5t-17 -3.5q-59 -45 -114.5 -67.5 t-124.5 -22.5q-177 0 -287.5 131t-110.5 338zM362.5 1202q-1.5 19 12.5 29l258 217q11 9 28.5 10t32.5 -6l156 -86q19 -10 19 -30.5t-17 -30.5l-307 -189q-12 -7 -30 -7.5t-30 5.5l-106 60q-15 9 -16.5 28zM379 463q0 -98 49 -153.5t137 -55.5q66 0 127 39q31 19 31 57v309 q0 38 -31 60q-55 37 -127 37q-88 0 -137 -54.5t-49 -152.5v-86z" />
<glyph unicode="&#xe2;" d="M61 453v104q0 109 33.5 199.5t90 149.5t129 91.5t151.5 32.5q81 0 137 -23.5t119 -74.5q13 -13 22 4l25 53q12 25 39 25h209q14 0 24.5 -10t10.5 -25v-944q0 -13 -10.5 -24t-24.5 -11h-256q-15 0 -26 10.5t-11 24.5v31q0 8 -8 11.5t-17 -3.5q-59 -45 -114.5 -67.5 t-124.5 -22.5q-177 0 -287.5 131t-110.5 338zM283.5 1205.5q-1.5 18.5 13.5 27.5l293 209q9 6 18 6q10 0 19 -6l293 -209q15 -9 13.5 -27.5t-15.5 -27.5l-89 -54q-18 -11 -36 0l-172 101q-4 2 -13 2q-8 0 -12 -2l-172 -101q-18 -11 -37 0l-88 54q-14 9 -15.5 27.5zM379 463 q0 -98 49 -153.5t137 -55.5q66 0 127 39q31 19 31 57v309q0 38 -31 60q-55 37 -127 37q-88 0 -137 -54.5t-49 -152.5v-86z" />
<glyph unicode="&#xe3;" d="M61 453v104q0 109 33.5 199.5t90 149.5t129 91.5t151.5 32.5q81 0 137 -23.5t119 -74.5q13 -13 22 4l25 53q12 25 39 25h209q14 0 24.5 -10t10.5 -25v-944q0 -13 -10.5 -24t-24.5 -11h-256q-15 0 -26 10.5t-11 24.5v31q0 8 -8 11.5t-17 -3.5q-59 -45 -114.5 -67.5 t-124.5 -22.5q-177 0 -287.5 131t-110.5 338zM301 1284q-14 21 4 39q83 88 195 88q33 0 63 -7t43 -13t39 -19q60 -31 96 -31q51 0 105 37q9 7 23.5 4t21.5 -14l59 -96q6 -9 5 -21t-9 -20q-89 -94 -205 -94q-12 0 -22.5 0.5t-21 2.5t-18 3t-17 4.5t-14.5 5t-14.5 5.5 t-12.5 5.5l-13 6.5l-12 6q-54 30 -96 30q-48 0 -97 -30q-9 -6 -22.5 -3t-20.5 15zM379 463q0 -98 49 -153.5t137 -55.5q66 0 127 39q31 19 31 57v309q0 38 -31 60q-55 37 -127 37q-88 0 -137 -54.5t-49 -152.5v-86z" />
<glyph unicode="&#xe4;" d="M61 453v104q0 109 33.5 199.5t90 149.5t129 91.5t151.5 32.5q81 0 137 -23.5t119 -74.5q13 -13 22 4l25 53q12 25 39 25h209q14 0 24.5 -10t10.5 -25v-944q0 -13 -10.5 -24t-24.5 -11h-256q-15 0 -26 10.5t-11 24.5v31q0 8 -8 11.5t-17 -3.5q-59 -45 -114.5 -67.5 t-124.5 -22.5q-177 0 -287.5 131t-110.5 338zM293 1282q0 56 38.5 94.5t94.5 38.5t94.5 -38.5t38.5 -94.5t-38.5 -94.5t-94.5 -38.5t-94.5 38.5t-38.5 94.5zM379 463q0 -98 49 -153.5t137 -55.5q66 0 127 39q31 19 31 57v309q0 38 -31 60q-55 37 -127 37q-88 0 -137 -54.5 t-49 -152.5v-86zM692 1282q0 56 39 94.5t94 38.5t94 -38.5t39 -94.5t-39 -94.5t-94 -38.5t-94 38.5t-39 94.5z" />
<glyph unicode="&#xe5;" d="M61 453v104q0 109 33.5 199.5t90 149.5t129 91.5t151.5 32.5q81 0 137 -23.5t119 -74.5q13 -13 22 4l25 53q12 25 39 25h209q14 0 24.5 -10t10.5 -25v-944q0 -13 -10.5 -24t-24.5 -11h-256q-15 0 -26 10.5t-11 24.5v31q0 8 -8 11.5t-17 -3.5q-59 -45 -114.5 -67.5 t-124.5 -22.5q-177 0 -287.5 131t-110.5 338zM379 463q0 -98 49 -153.5t137 -55.5q66 0 127 39q31 19 31 57v309q0 38 -31 60q-55 37 -127 37q-88 0 -137 -54.5t-49 -152.5v-86zM446 1282q0 81 55.5 133.5t139.5 52.5t139.5 -52.5t55.5 -133.5t-55.5 -133.5t-139.5 -52.5 t-139.5 52.5t-55.5 133.5zM559 1282q0 -40 22 -62t60 -22t60 22t22 62t-22 62t-60 22t-60 -22t-22 -62z" />
<glyph unicode="&#xe6;" horiz-adv-x="1701" d="M66 303v8q0 80 31.5 139t88.5 93t127.5 50.5t155.5 16.5h164q10 0 17 7t7 18v27q0 45 -36.5 70.5t-96.5 25.5q-51 0 -111 -18.5t-102 -51.5q-10 -8 -26 -6t-23 12l-123 162q-9 12 -8 26t12 23q74 59 184 94t218 35q180 0 293 -71q19 -13 39 0q119 75 276 75 q213 0 350 -132.5t137 -344.5v-119q0 -15 -10.5 -25.5t-25.5 -10.5h-592q-9 0 -15.5 -7t-5.5 -16q20 -66 74 -102.5t133 -36.5q78 0 145 61q8 8 22.5 8.5t23.5 -6.5l182 -133q14 -11 15 -27t-11 -28q-150 -144 -377 -144q-93 0 -201 33q-13 7 -26 -2q-9 -6 -21 -6h-215 q-23 0 -35 25l-22 47q-3 8 -10 10t-15 -4q-59 -53 -118.5 -73.5t-137.5 -20.5q-155 0 -243 88.5t-88 230.5zM385 328q0 -33 28.5 -53.5t80.5 -20.5q80 0 133 39q30 21 30 57v31q0 11 -7 18t-17 7h-113q-135 0 -135 -72v-6zM989 635q-1 -10 6 -17.5t17 -7.5h282q9 0 15.5 7.5 t5.5 17.5q-28 135 -158 135q-142 0 -168 -135z" />
<glyph unicode="&#xe7;" horiz-adv-x="909" d="M61 451v112q0 125 68.5 234t188.5 175t262 66q151 0 280 -75q13 -7 16 -22.5t-4 -27.5l-102 -170q-6 -11 -19.5 -14.5t-25.5 2.5q-71 33 -145 33q-85 0 -141 -60.5t-56 -142.5v-106q0 -82 56 -143.5t141 -61.5q65 0 141 35q12 5 26.5 0t20.5 -15l98 -172q8 -12 4 -27.5 t-16 -21.5q-108 -66 -244 -72l-22 -40q-7 -10 -2.5 -21t18.5 -12q96 -9 150.5 -59.5t54.5 -129.5v-24q0 -95 -79 -154t-204 -59q-73 0 -161 39q-12 6 -17.5 19.5t0.5 27.5l21 53q4 12 20 17t29 -1q50 -18 98 -18q65 0 98 23t33 57v12q0 31 -33 54.5t-96 23.5q-53 0 -104 -23 q-9 -4 -18.5 -1.5t-14.5 10.5l-8 12q-11 14 -2 29l104 174q-179 34 -296.5 166.5t-117.5 298.5z" />
<glyph unicode="&#xe8;" horiz-adv-x="1099" d="M61 453v108q0 210 138 343.5t352 133.5q213 0 350 -132.5t137 -344.5v-119q0 -15 -11 -25.5t-26 -10.5h-591q-9 0 -15.5 -7t-5.5 -16q20 -66 74 -102.5t133 -36.5q78 0 145 61q8 8 22 8.5t23 -6.5l183 -133q14 -11 15 -27t-11 -28q-150 -144 -377 -144q-226 0 -380.5 138 t-154.5 340zM333 1335.5q0 20.5 19 30.5l156 86q15 7 32.5 6t28.5 -10l258 -217q14 -10 12.5 -29t-16.5 -28l-106 -60q-12 -6 -30 -5.5t-30 7.5l-307 189q-17 10 -17 30.5zM387 635q-1 -10 6 -17.5t17 -7.5h282q9 0 15.5 7.5t5.5 17.5q-28 135 -158 135q-142 0 -168 -135z " />
<glyph unicode="&#xe9;" horiz-adv-x="1099" d="M61 453v108q0 210 138 343.5t352 133.5q213 0 350 -132.5t137 -344.5v-119q0 -15 -11 -25.5t-26 -10.5h-591q-9 0 -15.5 -7t-5.5 -16q20 -66 74 -102.5t133 -36.5q78 0 145 61q8 8 22 8.5t23 -6.5l183 -133q14 -11 15 -27t-11 -28q-150 -144 -377 -144q-226 0 -380.5 138 t-154.5 340zM315.5 1202q-1.5 19 12.5 29l258 217q11 9 28.5 10t32.5 -6l156 -86q19 -10 19 -30.5t-17 -30.5l-307 -189q-12 -7 -30 -7.5t-30 5.5l-106 60q-15 9 -16.5 28zM387 635q-1 -10 6 -17.5t17 -7.5h282q9 0 15.5 7.5t5.5 17.5q-28 135 -158 135q-142 0 -168 -135z " />
<glyph unicode="&#xea;" horiz-adv-x="1099" d="M61 453v108q0 210 138 343.5t352 133.5q213 0 350 -132.5t137 -344.5v-119q0 -15 -11 -25.5t-26 -10.5h-591q-9 0 -15.5 -7t-5.5 -16q20 -66 74 -102.5t133 -36.5q78 0 145 61q8 8 22 8.5t23 -6.5l183 -133q14 -11 15 -27t-11 -28q-150 -144 -377 -144q-226 0 -380.5 138 t-154.5 340zM250.5 1205.5q-1.5 18.5 13.5 27.5l293 209q9 6 18 6q10 0 19 -6l293 -209q15 -9 13.5 -27.5t-15.5 -27.5l-88 -54q-18 -11 -37 0l-172 101q-4 2 -13 2q-8 0 -12 -2l-172 -101q-19 -11 -37 0l-88 54q-14 9 -15.5 27.5zM387 635q-1 -10 6 -17.5t17 -7.5h282 q9 0 15.5 7.5t5.5 17.5q-28 135 -158 135q-142 0 -168 -135z" />
<glyph unicode="&#xeb;" horiz-adv-x="1099" d="M61 453v108q0 210 138 343.5t352 133.5q213 0 350 -132.5t137 -344.5v-119q0 -15 -11 -25.5t-26 -10.5h-591q-9 0 -15.5 -7t-5.5 -16q20 -66 74 -102.5t133 -36.5q78 0 145 61q8 8 22 8.5t23 -6.5l183 -133q14 -11 15 -27t-11 -28q-150 -144 -377 -144q-226 0 -380.5 138 t-154.5 340zM236 1282q0 56 39 94.5t94 38.5t94 -38.5t39 -94.5t-39 -94.5t-94 -38.5t-94 38.5t-39 94.5zM387 635q-1 -10 6 -17.5t17 -7.5h282q9 0 15.5 7.5t5.5 17.5q-28 135 -158 135q-142 0 -168 -135zM635 1282q0 56 38.5 94.5t94.5 38.5t94.5 -38.5t38.5 -94.5 t-38.5 -94.5t-94.5 -38.5t-94.5 38.5t-38.5 94.5z" />
<glyph unicode="&#xec;" horiz-adv-x="524" d="M8 1335.5q0 20.5 19 30.5l155 86q15 7 33 6t29 -10l258 -217q14 -10 12.5 -29t-16.5 -28l-107 -60q-12 -6 -29.5 -5.5t-29.5 7.5l-307 189q-17 10 -17 30.5zM98 35v944q0 15 10.5 25t24.5 10h256q15 0 26 -10t11 -25v-944q0 -14 -11 -24.5t-26 -10.5h-256q-13 0 -24 11 t-11 24z" />
<glyph unicode="&#xed;" horiz-adv-x="524" d="M8.5 1201.5q-1.5 18.5 11.5 29.5l259 217q11 9 28.5 10t32.5 -6l156 -86q19 -10 19 -30.5t-17 -30.5l-308 -189q-12 -7 -29.5 -7.5t-29.5 5.5l-106 60q-15 9 -16.5 27.5zM98 35v944q0 15 10.5 25t24.5 10h256q15 0 26 -10t11 -25v-944q0 -14 -11 -24.5t-26 -10.5h-256 q-13 0 -24 11t-11 24z" />
<glyph unicode="&#xee;" horiz-adv-x="524" d="M-62.5 1205.5q-1.5 18.5 13.5 27.5l293 209q9 6 18 6q10 0 19 -6l292 -209q15 -9 13.5 -27.5t-15.5 -27.5l-88 -54q-19 -11 -37 0l-172 101q-4 2 -12 2t-12 -2l-172 -101q-19 -11 -37 0l-88 54q-14 9 -15.5 27.5zM98 35v944q0 15 10.5 25t24.5 10h256q15 0 26 -10t11 -25 v-944q0 -14 -11 -24.5t-26 -10.5h-256q-13 0 -24 11t-11 24z" />
<glyph unicode="&#xef;" horiz-adv-x="524" d="M-72 1282q0 56 39 94.5t94 38.5q56 0 95 -39t39 -94t-39 -94t-95 -39q-55 0 -94 38.5t-39 94.5zM98 35v944q0 15 10.5 25t24.5 10h256q15 0 26 -10t11 -25v-944q0 -14 -11 -24.5t-26 -10.5h-256q-13 0 -24 11t-11 24zM328 1282q0 56 39 94.5t94 38.5t94 -38.5t39 -94.5 t-39 -94.5t-94 -38.5t-94 38.5t-39 94.5z" />
<glyph unicode="&#xf0;" horiz-adv-x="1155" d="M61 453v110q0 109 36.5 200.5t97 151t137.5 92.5t160 33q129 0 223 -61q6 -5 11.5 -1t2.5 11q-20 47 -78 119q-14 18 -37 6l-96 -45q-14 -6 -28.5 -1t-20.5 17l-47 101q-6 13 -0.5 28t18.5 21l27 12q7 3 7 11t-7 12q-42 26 -70 39q-14 8 -18.5 24.5t6.5 30.5l121 156 q9 10 24 13t27 -3q112 -60 193 -127q20 -16 43 -4l81 39q12 6 27 0t21 -19l47 -100q6 -12 0.5 -25.5t-17.5 -19.5l-34 -17q-21 -11 -7 -28q183 -259 183 -666v-110q0 -202 -149 -340t-367 -138t-367.5 138t-149.5 340zM381 453q0 -92 54.5 -149.5t142.5 -57.5t142 57.5 t54 149.5v110q0 92 -54 149.5t-142 57.5t-142.5 -57.5t-54.5 -149.5v-110z" />
<glyph unicode="&#xf1;" horiz-adv-x="1124" d="M98 35v944q0 15 11 25t26 10h213q24 0 33 -21l25 -55q3 -6 10.5 -8t15.5 4q104 96 252 96q164 0 257 -105.5t93 -291.5v-598q0 -14 -11 -24.5t-26 -10.5h-256q-13 0 -23.5 10.5t-10.5 24.5v581q0 129 -136 129q-63 0 -112 -30q-33 -20 -33 -60v-620q0 -13 -11 -24 t-24 -11h-256q-15 0 -26 10.5t-11 24.5zM258 1284q-14 21 4 39q83 88 195 88q33 0 63 -7t43 -13t39 -19q60 -31 96 -31q51 0 105 37q9 7 23.5 4t21.5 -14l59 -96q6 -9 5 -21t-9 -20q-89 -94 -205 -94q-12 0 -22.5 0.5t-21 2.5t-18 3t-17 4.5t-14.5 5t-14.5 5.5t-12.5 5.5 l-13 6.5l-12 6q-54 30 -96 30q-48 0 -97 -30q-9 -6 -22.5 -3t-20.5 15z" />
<glyph unicode="&#xf2;" horiz-adv-x="1155" d="M61 451v112q0 133 68 242t186.5 171t262.5 62q219 0 367.5 -136.5t148.5 -338.5v-112q0 -202 -148.5 -339t-367.5 -137t-368 137t-149 339zM323 1335.5q0 20.5 19 30.5l156 86q15 7 32.5 6t28.5 -10l258 -217q14 -10 12.5 -29t-16.5 -28l-106 -60q-12 -6 -30 -5.5 t-30 7.5l-307 189q-17 10 -17 30.5zM381 451q0 -92 54.5 -149.5t142.5 -57.5t142 57.5t54 149.5v112q0 92 -54 149.5t-142 57.5t-142.5 -57.5t-54.5 -149.5v-112z" />
<glyph unicode="&#xf3;" horiz-adv-x="1155" d="M61 451v112q0 133 68 242t186.5 171t262.5 62q219 0 367.5 -136.5t148.5 -338.5v-112q0 -202 -148.5 -339t-367.5 -137t-368 137t-149 339zM323.5 1202q-1.5 19 12.5 29l258 217q11 9 28.5 10t32.5 -6l156 -86q19 -10 19 -30.5t-17 -30.5l-307 -189q-12 -7 -30 -7.5 t-30 5.5l-106 60q-15 9 -16.5 28zM381 451q0 -92 54.5 -149.5t142.5 -57.5t142 57.5t54 149.5v112q0 92 -54 149.5t-142 57.5t-142.5 -57.5t-54.5 -149.5v-112z" />
<glyph unicode="&#xf4;" horiz-adv-x="1155" d="M61 451v112q0 133 68 242t186.5 171t262.5 62q219 0 367.5 -136.5t148.5 -338.5v-112q0 -202 -148.5 -339t-367.5 -137t-368 137t-149 339zM252.5 1205.5q-1.5 18.5 13.5 27.5l293 209q9 6 19 6q9 0 18 -6l293 -209q15 -9 13.5 -27.5t-15.5 -27.5l-88 -54q-19 -11 -37 0 l-172 101q-4 2 -12 2q-9 0 -13 -2l-172 -101q-19 -11 -37 0l-88 54q-14 9 -15.5 27.5zM381 451q0 -92 54.5 -149.5t142.5 -57.5t142 57.5t54 149.5v112q0 92 -54 149.5t-142 57.5t-142.5 -57.5t-54.5 -149.5v-112z" />
<glyph unicode="&#xf5;" horiz-adv-x="1155" d="M61 451v112q0 133 68 242t186.5 171t262.5 62q219 0 367.5 -136.5t148.5 -338.5v-112q0 -202 -148.5 -339t-367.5 -137t-368 137t-149 339zM252 1284q-14 21 4 39q83 88 195 88q33 0 63 -7t43 -13t39 -19q60 -31 96 -31q51 0 105 37q9 7 23.5 4t21.5 -14l59 -96 q6 -9 5 -21t-9 -20q-89 -94 -205 -94q-12 0 -22.5 0.5t-21 2.5t-18 3t-17 4.5t-14.5 5t-14.5 5.5t-12.5 5.5l-13 6.5l-12 6q-54 30 -96 30q-48 0 -97 -30q-9 -6 -22.5 -3t-20.5 15zM381 451q0 -92 54.5 -149.5t142.5 -57.5t142 57.5t54 149.5v112q0 92 -54 149.5t-142 57.5 t-142.5 -57.5t-54.5 -149.5v-112z" />
<glyph unicode="&#xf6;" horiz-adv-x="1155" d="M61 451v112q0 133 68 242t186.5 171t262.5 62q219 0 367.5 -136.5t148.5 -338.5v-112q0 -202 -148.5 -339t-367.5 -137t-368 137t-149 339zM244 1282q0 56 39 94.5t94 38.5t94 -38.5t39 -94.5t-39 -94.5t-94 -38.5t-94 38.5t-39 94.5zM381 451q0 -92 54.5 -149.5 t142.5 -57.5t142 57.5t54 149.5v112q0 92 -54 149.5t-142 57.5t-142.5 -57.5t-54.5 -149.5v-112zM643 1282q0 56 38.5 94.5t94.5 38.5t94.5 -38.5t38.5 -94.5t-38.5 -94.5t-94.5 -38.5t-94.5 38.5t-38.5 94.5z" />
<glyph unicode="&#xf7;" horiz-adv-x="1173" d="M102 645v158q0 14 11 24.5t26 10.5h897q14 0 24.5 -11t10.5 -24v-160q0 -13 -10.5 -24t-24.5 -11h-897q-15 0 -26 11.5t-11 25.5zM440 403q0 61 43 104.5t105 43.5q61 0 104 -43t43 -105q0 -61 -42.5 -104t-104.5 -43t-105 43t-43 104zM440 1040q0 62 43 105t105 43 q61 0 104 -43t43 -105t-42.5 -104.5t-104.5 -42.5t-105 43t-43 104z" />
<glyph unicode="&#xf8;" horiz-adv-x="1155" d="M61 451v112q0 133 68 242t186.5 171t262.5 62q62 0 120 -12l25 55q12 35 51 35h148q21 0 30.5 -14t3.5 -33l-59 -129q92 -66 144.5 -164t52.5 -213v-112q0 -202 -148.5 -339t-367.5 -137q-47 0 -111 11l-23 -54q-12 -34 -51 -34h-147q-22 0 -32.5 14t-2.5 33l55 123 q-96 64 -150.5 164t-54.5 219zM381 451q0 -50 16 -93l185 412h-4q-88 0 -142.5 -57.5t-54.5 -149.5v-112zM584 244q85 1 137.5 58.5t52.5 148.5v112q0 41 -12 76z" />
<glyph unicode="&#xf9;" horiz-adv-x="1116" d="M90 387v592q0 15 10.5 25t24.5 10h258q15 0 25 -10t10 -25v-584q0 -129 133 -129q58 0 106 31q33 23 33 59v623q0 15 10.5 25t24.5 10h256q15 0 26 -10t11 -25v-944q0 -14 -11 -24.5t-26 -10.5h-213q-23 0 -33 20l-26 56q-3 6 -10 7t-13 -5q-101 -96 -248 -96 q-163 0 -255.5 107.5t-92.5 297.5zM309 1335.5q0 20.5 19 30.5l155 86q15 7 33 6t29 -10l258 -217q14 -10 12.5 -29t-16.5 -28l-107 -60q-12 -6 -29.5 -5.5t-29.5 7.5l-307 189q-17 10 -17 30.5z" />
<glyph unicode="&#xfa;" horiz-adv-x="1116" d="M90 387v592q0 15 10.5 25t24.5 10h258q15 0 25 -10t10 -25v-584q0 -129 133 -129q58 0 106 31q33 23 33 59v623q0 15 10.5 25t24.5 10h256q15 0 26 -10t11 -25v-944q0 -14 -11 -24.5t-26 -10.5h-213q-23 0 -33 20l-26 56q-3 6 -10 7t-13 -5q-101 -96 -248 -96 q-163 0 -255.5 107.5t-92.5 297.5zM309.5 1202q-1.5 19 12.5 29l258 217q11 9 28.5 10t32.5 -6l156 -86q19 -10 19 -30.5t-17 -30.5l-307 -189q-12 -7 -30 -7.5t-30 5.5l-106 60q-15 9 -16.5 28z" />
<glyph unicode="&#xfb;" horiz-adv-x="1116" d="M90 387v592q0 15 10.5 25t24.5 10h258q15 0 25 -10t10 -25v-584q0 -129 133 -129q58 0 106 31q33 23 33 59v623q0 15 10.5 25t24.5 10h256q15 0 26 -10t11 -25v-944q0 -14 -11 -24.5t-26 -10.5h-213q-23 0 -33 20l-26 56q-3 6 -10 7t-13 -5q-101 -96 -248 -96 q-163 0 -255.5 107.5t-92.5 297.5zM236.5 1205.5q-1.5 18.5 13.5 27.5l293 209q9 6 18 6q10 0 19 -6l292 -209q15 -9 13.5 -27.5t-15.5 -27.5l-88 -54q-18 -11 -37 0l-172 101q-4 2 -12 2t-12 -2l-172 -101q-18 -11 -37 0l-88 54q-14 9 -15.5 27.5z" />
<glyph unicode="&#xfc;" horiz-adv-x="1116" d="M90 387v592q0 15 10.5 25t24.5 10h258q15 0 25 -10t10 -25v-584q0 -129 133 -129q58 0 106 31q33 23 33 59v623q0 15 10.5 25t24.5 10h256q15 0 26 -10t11 -25v-944q0 -14 -11 -24.5t-26 -10.5h-213q-23 0 -33 20l-26 56q-3 6 -10 7t-13 -5q-101 -96 -248 -96 q-163 0 -255.5 107.5t-92.5 297.5zM229 1282q0 56 38.5 94.5t94.5 38.5t95 -39t39 -94t-39 -94t-95 -39t-94.5 38.5t-38.5 94.5zM629 1282q0 56 38.5 94.5t94.5 38.5t94.5 -38.5t38.5 -94.5t-38.5 -94.5t-94.5 -38.5t-94.5 38.5t-38.5 94.5z" />
<glyph unicode="&#xfd;" horiz-adv-x="1144" d="M25 969q-6 14 2 29.5t26 15.5h250q30 0 43 -29l221 -541q3 -10 15 -10q11 0 14 10l213 541q13 29 43 29h240q17 0 25.5 -13t2.5 -30l-581 -1377q-12 -28 -45 -28h-224q-17 0 -26.5 15t-3.5 30l182 438q9 21 0 39zM309.5 1202q-1.5 19 12.5 29l258 217q11 9 28.5 10 t32.5 -6l156 -86q19 -10 19 -30.5t-17 -30.5l-307 -189q-12 -7 -30 -7.5t-30 5.5l-106 60q-15 9 -16.5 28z" />
<glyph unicode="&#xfe;" d="M98 -399v1810q0 15 11 25t26 10h256q14 0 24.5 -10t10.5 -25v-442q0 -9 9 -14t16 1q103 74 219 74q77 0 151.5 -34t133.5 -93.5t95.5 -150t36.5 -195.5v-104q0 -113 -35 -204.5t-93.5 -148t-131.5 -86.5t-153 -30q-125 0 -223 73q-7 5 -16 1t-9 -13v-444q0 -14 -11 -24.5 t-26 -10.5h-256q-13 0 -24 11t-11 24zM426 350q0 -38 31 -57q53 -39 127 -39q88 0 137 55.5t49 153.5v86q0 98 -49 152.5t-137 54.5q-72 0 -127 -37q-31 -22 -31 -60v-309z" />
<glyph unicode="&#xff;" horiz-adv-x="1144" d="M25 969q-6 14 2 29.5t26 15.5h250q30 0 43 -29l221 -541q3 -10 15 -10q11 0 14 10l213 541q13 29 43 29h240q17 0 25.5 -13t2.5 -30l-581 -1377q-12 -28 -45 -28h-224q-17 0 -26.5 15t-3.5 30l182 438q9 21 0 39zM229 1282q0 56 38.5 94.5t94.5 38.5t95 -39t39 -94 t-39 -94t-95 -39t-94.5 38.5t-38.5 94.5zM629 1282q0 56 38.5 94.5t94.5 38.5t94.5 -38.5t38.5 -94.5t-38.5 -94.5t-94.5 -38.5t-94.5 38.5t-38.5 94.5z" />
<glyph unicode="&#x152;" horiz-adv-x="2197" d="M82 664v118q0 201 86.5 356.5t242.5 241.5t355 86q178 0 319 -86q12 -7 22.5 -1t10.5 18v14q0 13 11 24t24 11h926q15 0 26 -10.5t11 -24.5v-225q0 -14 -11 -24.5t-26 -10.5h-611q-9 0 -15.5 -7t-6.5 -16v-254q0 -9 6.5 -15.5t15.5 -6.5h443q15 0 26 -11t11 -26v-197 q0 -14 -11 -24t-26 -10h-443q-9 0 -15.5 -7.5t-6.5 -17.5v-242q0 -9 6.5 -15.5t15.5 -6.5h611q15 0 26 -10.5t11 -24.5v-225q0 -14 -11 -24.5t-26 -10.5h-926q-13 0 -24 11t-11 24v14q0 12 -10.5 18t-22.5 -1q-146 -86 -319 -86q-303 0 -493.5 189.5t-190.5 494.5zM414 664 q0 -181 94 -281t258 -100t258 100t94 281v118q0 180 -94 280.5t-258 100.5t-258 -100.5t-94 -280.5v-118z" />
<glyph unicode="&#x153;" horiz-adv-x="1812" d="M61 451v112q0 133 68 242t186.5 171t262.5 62q190 0 327 -106q19 -13 39 0q131 106 320 106q213 0 350 -132.5t137 -344.5v-119q0 -15 -11 -25.5t-26 -10.5h-592q-9 0 -15 -7t-5 -16q15 -66 70.5 -102.5t136.5 -36.5q78 0 145 61q8 8 22 8.5t23 -6.5l182 -133 q14 -11 15.5 -27t-10.5 -28q-150 -144 -377 -144q-205 0 -355 115q-17 11 -34 0q-144 -115 -342 -115q-219 0 -368 137t-149 339zM381 451q0 -92 54.5 -149.5t142.5 -57.5t142 57.5t54 149.5v112q0 92 -54 149.5t-142 57.5t-142.5 -57.5t-54.5 -149.5v-112zM1100 635 q-1 -10 6 -17.5t16 -7.5h283q9 0 15 7.5t5 17.5q-28 135 -157 135q-142 0 -168 -135z" />
<glyph unicode="&#x178;" horiz-adv-x="1409" d="M16 1399q-9 15 0 31t29 16h287q27 0 41 -25l317 -608q5 -8 15 -8h2q7 0 12 8l317 608q14 25 41 25h287q20 0 29 -16t0 -31l-514 -928q-11 -19 -11 -41v-383q0 -20 -13.5 -33.5t-33.5 -13.5h-233q-20 0 -33.5 13.5t-13.5 33.5v383q0 22 -11 41zM371 1714q0 56 38.5 94.5 t94.5 38.5t94.5 -38.5t38.5 -94.5t-38.5 -94.5t-94.5 -38.5t-94.5 38.5t-38.5 94.5zM770 1714q0 56 39 94.5t94 38.5t94 -38.5t39 -94.5t-39 -94.5t-94 -38.5t-94 38.5t-39 94.5z" />
<glyph unicode="&#x2c6;" horiz-adv-x="819" d="M84.5 1205.5q-1.5 18.5 13.5 27.5l293 209q9 6 19 6q9 0 18 -6l293 -209q15 -9 13.5 -27.5t-15.5 -27.5l-88 -54q-19 -11 -37 0l-172 101q-4 2 -12 2q-9 0 -13 -2l-172 -101q-18 -11 -37 0l-88 54q-14 9 -15.5 27.5z" />
<glyph unicode="&#x2dc;" horiz-adv-x="819" d="M86 1284q-14 21 4 39q83 88 195 88q33 0 63 -7t43 -13t39 -19q60 -31 96 -31q51 0 105 37q9 7 23.5 4t21.5 -14l59 -96q6 -9 5 -21t-9 -20q-89 -94 -205 -94q-12 0 -22.5 0.5t-21 2.5t-18 3t-17 4.5t-14.5 5t-14.5 5.5t-12.5 5.5l-13 6.5l-12 6q-54 30 -96 30 q-48 0 -97 -30q-9 -6 -22.5 -3t-20.5 15z" />
<glyph unicode="&#x2000;" horiz-adv-x="950" />
<glyph unicode="&#x2001;" horiz-adv-x="1901" />
<glyph unicode="&#x2002;" horiz-adv-x="950" />
<glyph unicode="&#x2003;" horiz-adv-x="1901" />
<glyph unicode="&#x2004;" horiz-adv-x="633" />
<glyph unicode="&#x2005;" horiz-adv-x="475" />
<glyph unicode="&#x2006;" horiz-adv-x="316" />
<glyph unicode="&#x2007;" horiz-adv-x="316" />
<glyph unicode="&#x2008;" horiz-adv-x="237" />
<glyph unicode="&#x2009;" horiz-adv-x="380" />
<glyph unicode="&#x200a;" horiz-adv-x="105" />
<glyph unicode="&#x2010;" horiz-adv-x="761" d="M82 422v172q0 14 11 24.5t24 10.5h526q15 0 26 -10.5t11 -24.5v-172q0 -14 -11 -24.5t-26 -10.5h-526q-13 0 -24 10.5t-11 24.5z" />
<glyph unicode="&#x2011;" horiz-adv-x="761" d="M82 422v172q0 14 11 24.5t24 10.5h526q15 0 26 -10.5t11 -24.5v-172q0 -14 -11 -24.5t-26 -10.5h-526q-13 0 -24 10.5t-11 24.5z" />
<glyph unicode="&#x2012;" horiz-adv-x="761" d="M82 422v172q0 14 11 24.5t24 10.5h526q15 0 26 -10.5t11 -24.5v-172q0 -14 -11 -24.5t-26 -10.5h-526q-13 0 -24 10.5t-11 24.5z" />
<glyph unicode="&#x2013;" horiz-adv-x="966" d="M82 422v172q0 14 11 24.5t24 10.5h731q15 0 26 -10.5t11 -24.5v-172q0 -14 -11 -24.5t-26 -10.5h-731q-13 0 -24 10.5t-11 24.5z" />
<glyph unicode="&#x2014;" horiz-adv-x="1642" d="M41 422v172q0 14 10.5 24.5t24.5 10.5h1489q15 0 26 -10.5t11 -24.5v-172q0 -14 -11 -24.5t-26 -10.5h-1489q-14 0 -24.5 10.5t-10.5 24.5z" />
<glyph unicode="&#x2018;" horiz-adv-x="425" d="M82 1128q0 94 60.5 191t146.5 166q12 11 30.5 13.5t26.5 -1.5l23 -8q12 -5 15 -20t-7 -27q-60 -77 -60 -129q0 -51 31 -90q33 -42 33 -95q0 -61 -43 -105t-107 -44q-65 0 -107 44t-42 105z" />
<glyph unicode="&#x2019;" horiz-adv-x="425" d="M83 970q-3 15 7 27q60 77 60 129t-31 91q-33 42 -33 94q0 61 42.5 104t107.5 43q64 0 106.5 -43t42.5 -104q0 -94 -60.5 -191t-146.5 -166q-13 -11 -31 -14t-26 2l-23 8q-12 5 -15 20z" />
<glyph unicode="&#x201a;" horiz-adv-x="425" d="M42.5 -191q-3.5 15 6.5 27q62 80 62 129q0 31 -7.5 50t-25.5 40q-33 48 -33 95q0 61 43 104t107 43q65 0 107 -43t42 -104q0 -94 -60.5 -191t-146.5 -166q-13 -11 -31 -14t-26 2l-23 8q-11 5 -14.5 20z" />
<glyph unicode="&#x201c;" horiz-adv-x="806" d="M82 1128q0 94 60.5 191t146.5 166q12 11 30.5 13.5t26.5 -1.5l23 -8q12 -5 15 -20t-7 -27q-60 -77 -60 -129q0 -51 31 -90q33 -48 33 -95q0 -61 -43 -105t-107 -44q-65 0 -107 44t-42 105zM463 1128q0 94 60.5 191t146.5 166q12 11 30.5 13.5t26.5 -1.5l23 -8 q12 -5 15 -20t-7 -27q-60 -77 -60 -129q0 -51 31 -90q33 -42 33 -95q0 -61 -42.5 -105t-107.5 -44q-63 0 -106 44t-43 105z" />
<glyph unicode="&#x201d;" horiz-adv-x="806" d="M83 970q-3 15 7 27q60 77 60 129t-31 91q-33 48 -33 94q0 61 42.5 104t107.5 43q64 0 106.5 -43t42.5 -104q0 -94 -60.5 -191t-146.5 -166q-13 -11 -31 -14t-26 2l-23 8q-12 5 -15 20zM464 970q-3 15 7 27q59 76 59 129q0 54 -30 91q-33 42 -33 94q0 61 42.5 104 t106.5 43q65 0 107.5 -43t42.5 -104q0 -94 -60.5 -191t-146.5 -166q-13 -11 -31 -14t-26 2l-23 8q-12 5 -15 20z" />
<glyph unicode="&#x201e;" horiz-adv-x="808" d="M42.5 -191q-3.5 15 6.5 27q62 80 62 129q0 31 -7.5 50t-25.5 40q-33 48 -33 95q0 61 43 104t107 43q65 0 107 -43t42 -104q0 -94 -60.5 -191t-146.5 -166q-13 -11 -31 -14t-26 2l-23 8q-11 5 -14.5 20zM423.5 -191q-3.5 15 6.5 27q62 80 62 129q0 48 -31 90 q-35 44 -35 95q0 61 43.5 104t108.5 43q64 0 106.5 -43t42.5 -104q0 -94 -61 -191t-148 -166q-13 -11 -31 -14t-26 2l-23 8q-11 5 -14.5 20z" />
<glyph unicode="&#x2022;" horiz-adv-x="1032" d="M164 729q0 147 103 247.5t249 100.5t249 -100.5t103 -247.5t-103 -247.5t-249 -100.5t-249 100.5t-103 247.5z" />
<glyph unicode="&#x2026;" horiz-adv-x="1609" d="M92 164q0 73 51.5 123.5t124.5 50.5t124.5 -50.5t51.5 -123.5t-51.5 -123.5t-124.5 -50.5t-124.5 50.5t-51.5 123.5zM629 164q0 73 51.5 123.5t124.5 50.5t124.5 -50.5t51.5 -123.5t-51.5 -123.5t-124.5 -50.5t-124.5 50.5t-51.5 123.5zM1165 164q0 73 51.5 123.5 t124.5 50.5t125 -50.5t52 -123.5t-52 -123.5t-125 -50.5t-124.5 50.5t-51.5 123.5z" />
<glyph unicode="&#x202f;" horiz-adv-x="380" />
<glyph unicode="&#x2039;" horiz-adv-x="569" d="M82 512q0 11 6 20l227 318q10 16 29 16h125q12 0 16 -9t-2 -17l-182 -314q-4 -6 -4 -14t4 -14l182 -314q6 -8 2 -17t-16 -9h-125q-19 0 -29 16l-227 318q-6 9 -6 20z" />
<glyph unicode="&#x203a;" horiz-adv-x="569" d="M84 167q-4 9 2 17l182 314q4 6 4 14t-4 14l-182 314q-6 8 -2 17t16 9h125q19 0 29 -16l227 -318q6 -9 6 -20t-6 -20l-227 -318q-10 -16 -29 -16h-125q-12 0 -16 9z" />
<glyph unicode="&#x205f;" horiz-adv-x="475" />
<glyph unicode="&#x20ac;" horiz-adv-x="1257" d="M-6 541v75q0 14 11 24.5t26 10.5h51v11v118v19h-51q-15 0 -26 11.5t-11 25.5v75q0 14 11 24.5t26 10.5h67q51 237 231.5 378.5t436.5 141.5q238 0 416 -135q13 -10 13.5 -25.5t-7.5 -25.5l-146 -190q-10 -11 -25 -13.5t-28 8.5q-90 78 -223 78q-122 0 -206 -57t-120 -160 h365q13 0 24 -11t11 -24v-77q0 -14 -11 -24.5t-24 -10.5h-391v-19v-118v-11h391q13 0 24 -10.5t11 -24.5v-77q0 -13 -11 -24t-24 -11h-367q36 -105 120 -163t208 -58q128 0 221 75q12 10 27 9.5t24 -11.5l150 -194q9 -10 7.5 -26t-13.5 -25q-173 -131 -416 -131 q-260 0 -441.5 142.5t-228.5 381.5h-65q-15 0 -26 11.5t-11 25.5z" />
<glyph unicode="&#x2122;" horiz-adv-x="1697" d="M82 1239v186q0 21 20 21h578q8 0 14 -6t6 -15v-186q0 -7 -6 -13.5t-14 -6.5h-148q-12 0 -12 -15v-549q0 -20 -20 -20h-219q-19 0 -19 20v549q0 15 -14 15h-146q-20 0 -20 20zM731 655l96 775q3 16 21 16h86q12 0 16 -8l199 -312q4 -4 6 -4q4 0 8 4l197 312q5 8 20 8h84 q16 0 19 -16l100 -775q1 -9 -5 -14.5t-15 -5.5h-209q-16 0 -19 16l-37 303q0 6 -6 7.5t-10 -3.5l-111 -151q-7 -10 -16 -10t-16 10l-111 151q-3 3 -6.5 3.5t-6 -1.5t-3.5 -6l-35 -303q-3 -16 -21 -16h-204q-8 0 -15 6t-6 14z" />
<glyph unicode="&#x25fc;" horiz-adv-x="1013" d="M0 0v1014h1014v-1014h-1014z" />
</font>
</defs>
</svg>
